<svg xmlns="http://www.w3.org/2000/svg" xmlns:xlink="http://www.w3.org/1999/xlink" width="1200" zoomAndPan="magnify" viewBox="0 0 900 470.999988" height="628" preserveAspectRatio="xMidYMid meet" version="1.0"><defs><g/><clipPath id="2b8d9a1c45"><path d="M 464.234375 31.324219 L 872.585938 31.324219 L 872.585938 439.675781 L 464.234375 439.675781 Z M 464.234375 31.324219 " clip-rule="nonzero"/></clipPath><clipPath id="5749fcd612"><path d="M 668.410156 31.324219 C 555.648438 31.324219 464.234375 122.738281 464.234375 235.5 C 464.234375 348.261719 555.648438 439.675781 668.410156 439.675781 C 781.175781 439.675781 872.585938 348.261719 872.585938 235.5 C 872.585938 122.738281 781.175781 31.324219 668.410156 31.324219 Z M 668.410156 31.324219 " clip-rule="nonzero"/></clipPath><clipPath id="837299e171"><path d="M 512.015625 60 L 824.765625 60 L 824.765625 411 L 512.015625 411 Z M 512.015625 60 " clip-rule="nonzero"/></clipPath><clipPath id="3f39816da8"><path d="M 668 147 L 824.765625 147 L 824.765625 324 L 668 324 Z M 668 147 " clip-rule="nonzero"/></clipPath></defs><rect x="-90" width="1080" fill="#ffffff" y="-47.099999" height="565.199986" fill-opacity="1"/><rect x="-90" width="1080" fill="#1a4674" y="-47.099999" height="565.199986" fill-opacity="1"/><g clip-path="url(#2b8d9a1c45)"><g clip-path="url(#5749fcd612)"><path fill="#ffa100" d="M 464.234375 31.324219 L 872.585938 31.324219 L 872.585938 439.675781 L 464.234375 439.675781 Z M 464.234375 31.324219 " fill-opacity="1" fill-rule="nonzero"/></g></g><g clip-path="url(#837299e171)"><path fill="#5c8dbc" d="M 824.277344 163.355469 C 824.277344 157.460938 823.007812 152.253906 820.457031 147.78125 C 817.957031 143.386719 814.210938 139.703125 809.183594 136.789062 C 767.664062 112.851562 726.125 88.980469 684.617188 65.015625 C 673.429688 58.558594 662.582031 58.792969 651.480469 65.347656 C 634.960938 75.09375 552.230469 122.496094 527.570312 136.777344 C 517.425781 142.65625 512.484375 151.652344 512.484375 163.34375 C 512.46875 211.492188 512.484375 259.632812 512.46875 307.785156 C 512.46875 313.546875 513.675781 318.648438 516.113281 323.050781 C 518.617188 327.578125 522.417969 331.375 527.566406 334.351562 C 552.21875 348.628906 634.949219 396.023438 651.472656 405.773438 C 662.585938 412.339844 673.433594 412.570312 684.621094 406.101562 C 726.128906 382.136719 767.683594 358.269531 809.203125 334.339844 C 814.351562 331.363281 818.144531 327.566406 820.65625 323.039062 C 823.085938 318.648438 824.292969 313.535156 824.292969 307.761719 C 824.292969 307.761719 824.292969 211.507812 824.28125 163.355469 " fill-opacity="1" fill-rule="nonzero"/></g><path fill="#1a4674" d="M 668.855469 235.09375 L 516.117188 323.050781 C 518.617188 327.578125 522.417969 331.371094 527.566406 334.351562 C 552.21875 348.628906 634.949219 396.023438 651.472656 405.773438 C 662.585938 412.335938 673.433594 412.570312 684.621094 406.101562 C 726.128906 382.136719 767.683594 358.269531 809.203125 334.339844 C 814.351562 331.359375 818.144531 327.566406 820.65625 323.039062 L 668.859375 235.09375 " fill-opacity="1" fill-rule="nonzero"/><path fill="#1a4674" d="M 623.617188 261.144531 C 632.503906 276.667969 649.210938 287.136719 668.378906 287.136719 C 687.667969 287.136719 704.46875 276.535156 713.3125 260.855469 L 668.855469 235.09375 L 623.617188 261.144531 " fill-opacity="1" fill-rule="nonzero"/><g clip-path="url(#3f39816da8)"><path fill="#1b598e" d="M 824.277344 163.355469 C 824.277344 157.460938 823.007812 152.253906 820.457031 147.78125 L 668.855469 235.09375 L 820.652344 323.039062 C 823.082031 318.644531 824.289062 313.53125 824.289062 307.761719 C 824.289062 307.761719 824.289062 211.507812 824.277344 163.355469 " fill-opacity="1" fill-rule="nonzero"/></g><path fill="#ffffff" d="M 815.929688 241.378906 L 804.070312 241.378906 L 804.070312 253.238281 L 792.199219 253.238281 L 792.199219 241.378906 L 780.34375 241.378906 L 780.34375 229.515625 L 792.199219 229.515625 L 792.199219 217.65625 L 804.070312 217.65625 L 804.070312 229.515625 L 815.929688 229.515625 L 815.929688 241.378906 " fill-opacity="1" fill-rule="nonzero"/><path fill="#ffffff" d="M 772.644531 241.378906 L 760.785156 241.378906 L 760.785156 253.238281 L 748.925781 253.238281 L 748.925781 241.378906 L 737.066406 241.378906 L 737.066406 229.515625 L 748.925781 229.515625 L 748.925781 217.65625 L 760.785156 217.65625 L 760.785156 229.515625 L 772.644531 229.515625 L 772.644531 241.378906 " fill-opacity="1" fill-rule="nonzero"/><path fill="#ffffff" d="M 713.3125 260.855469 C 704.46875 276.535156 687.667969 287.136719 668.378906 287.136719 C 649.210938 287.136719 632.503906 276.667969 623.617188 261.144531 C 619.296875 253.605469 616.816406 244.878906 616.816406 235.558594 C 616.816406 207.078125 639.902344 183.988281 668.378906 183.988281 C 687.421875 183.988281 704.039062 194.324219 712.972656 209.6875 L 758.039062 183.734375 C 740.128906 152.800781 706.6875 131.992188 668.378906 131.992188 C 611.1875 131.992188 564.828125 178.363281 564.828125 235.558594 C 564.828125 254.324219 569.820312 271.921875 578.542969 287.101562 C 596.410156 318.195312 629.953125 339.132812 668.378906 339.132812 C 706.882812 339.132812 740.472656 318.109375 758.308594 286.929688 L 713.3125 260.855469 " fill-opacity="1" fill-rule="nonzero"/><g fill="#ffffff" fill-opacity="1"><g transform="translate(102.021963, 240.525116)"><g><path d="M 19.65625 -29.90625 C 16.800781 -29.90625 14.59375 -28.832031 13.03125 -26.6875 C 11.46875 -24.550781 10.6875 -21.570312 10.6875 -17.75 C 10.6875 -9.789062 13.675781 -5.8125 19.65625 -5.8125 C 22.15625 -5.8125 25.191406 -6.4375 28.765625 -7.6875 L 28.765625 -1.34375 C 25.828125 -0.125 22.554688 0.484375 18.953125 0.484375 C 13.753906 0.484375 9.78125 -1.085938 7.03125 -4.234375 C 4.28125 -7.378906 2.90625 -11.898438 2.90625 -17.796875 C 2.90625 -21.503906 3.578125 -24.753906 4.921875 -27.546875 C 6.273438 -30.335938 8.21875 -32.476562 10.75 -33.96875 C 13.28125 -35.457031 16.25 -36.203125 19.65625 -36.203125 C 23.125 -36.203125 26.609375 -35.363281 30.109375 -33.6875 L 27.65625 -27.546875 C 26.320312 -28.171875 24.976562 -28.71875 23.625 -29.1875 C 22.28125 -29.664062 20.957031 -29.90625 19.65625 -29.90625 Z M 19.65625 -29.90625 "/></g></g></g><g fill="#ffffff" fill-opacity="1"><g transform="translate(133.877334, 240.525116)"><g><path d="M 11.59375 -14.9375 L 2.15625 -14.9375 L 2.15625 -20.28125 L 11.59375 -20.28125 L 11.59375 -29.8125 L 16.9375 -29.8125 L 16.9375 -20.28125 L 26.390625 -20.28125 L 26.390625 -14.9375 L 16.9375 -14.9375 L 16.9375 -5.546875 L 11.59375 -5.546875 Z M 11.59375 -14.9375 "/></g></g></g><g fill="#ffffff" fill-opacity="1"><g transform="translate(162.412912, 240.525116)"><g><path d="M 11.59375 -14.9375 L 2.15625 -14.9375 L 2.15625 -20.28125 L 11.59375 -20.28125 L 11.59375 -29.8125 L 16.9375 -29.8125 L 16.9375 -20.28125 L 26.390625 -20.28125 L 26.390625 -14.9375 L 16.9375 -14.9375 L 16.9375 -5.546875 L 11.59375 -5.546875 Z M 11.59375 -14.9375 "/></g></g></g><g fill="#ffffff" fill-opacity="1"><g transform="translate(190.94849, 240.525116)"><g/></g></g><g fill="#ffffff" fill-opacity="1"><g transform="translate(203.93474, 240.525116)"><g><path d="M 36.890625 -17.890625 C 36.890625 -11.984375 35.421875 -7.441406 32.484375 -4.265625 C 29.554688 -1.097656 25.359375 0.484375 19.890625 0.484375 C 14.421875 0.484375 10.222656 -1.097656 7.296875 -4.265625 C 4.367188 -7.441406 2.90625 -12 2.90625 -17.9375 C 2.90625 -23.882812 4.375 -28.421875 7.3125 -31.546875 C 10.25 -34.679688 14.460938 -36.25 19.953125 -36.25 C 25.429688 -36.25 29.625 -34.671875 32.53125 -31.515625 C 35.4375 -28.359375 36.890625 -23.816406 36.890625 -17.890625 Z M 10.84375 -17.890625 C 10.84375 -13.910156 11.597656 -10.910156 13.109375 -8.890625 C 14.617188 -6.867188 16.878906 -5.859375 19.890625 -5.859375 C 25.929688 -5.859375 28.953125 -9.867188 28.953125 -17.890625 C 28.953125 -25.929688 25.953125 -29.953125 19.953125 -29.953125 C 16.941406 -29.953125 14.671875 -28.9375 13.140625 -26.90625 C 11.609375 -24.882812 10.84375 -21.878906 10.84375 -17.890625 Z M 10.84375 -17.890625 "/></g></g></g><g fill="#ffffff" fill-opacity="1"><g transform="translate(243.723442, 240.525116)"><g><path d="M 36.890625 -17.890625 C 36.890625 -11.984375 35.421875 -7.441406 32.484375 -4.265625 C 29.554688 -1.097656 25.359375 0.484375 19.890625 0.484375 C 14.421875 0.484375 10.222656 -1.097656 7.296875 -4.265625 C 4.367188 -7.441406 2.90625 -12 2.90625 -17.9375 C 2.90625 -23.882812 4.375 -28.421875 7.3125 -31.546875 C 10.25 -34.679688 14.460938 -36.25 19.953125 -36.25 C 25.429688 -36.25 29.625 -34.671875 32.53125 -31.515625 C 35.4375 -28.359375 36.890625 -23.816406 36.890625 -17.890625 Z M 10.84375 -17.890625 C 10.84375 -13.910156 11.597656 -10.910156 13.109375 -8.890625 C 14.617188 -6.867188 16.878906 -5.859375 19.890625 -5.859375 C 25.929688 -5.859375 28.953125 -9.867188 28.953125 -17.890625 C 28.953125 -25.929688 25.953125 -29.953125 19.953125 -29.953125 C 16.941406 -29.953125 14.671875 -28.9375 13.140625 -26.90625 C 11.609375 -24.882812 10.84375 -21.878906 10.84375 -17.890625 Z M 10.84375 -17.890625 "/></g></g></g><g fill="#ffffff" fill-opacity="1"><g transform="translate(283.512143, 240.525116)"><g><path d="M 12.0625 -18.890625 L 14.546875 -18.890625 C 16.878906 -18.890625 18.625 -19.347656 19.78125 -20.265625 C 20.9375 -21.191406 21.515625 -22.535156 21.515625 -24.296875 C 21.515625 -26.066406 21.03125 -27.375 20.0625 -28.21875 C 19.09375 -29.070312 17.570312 -29.5 15.5 -29.5 L 12.0625 -29.5 Z M 29.15625 -24.5625 C 29.15625 -20.71875 27.953125 -17.78125 25.546875 -15.75 C 23.148438 -13.71875 19.738281 -12.703125 15.3125 -12.703125 L 12.0625 -12.703125 L 12.0625 0 L 4.5 0 L 4.5 -35.6875 L 15.890625 -35.6875 C 20.222656 -35.6875 23.515625 -34.753906 25.765625 -32.890625 C 28.023438 -31.035156 29.15625 -28.257812 29.15625 -24.5625 Z M 29.15625 -24.5625 "/></g></g></g></svg>