<svg xmlns="http://www.w3.org/2000/svg" xmlns:xlink="http://www.w3.org/1999/xlink" width="1200" zoomAndPan="magnify" viewBox="0 0 900 470.999988" height="628" preserveAspectRatio="xMidYMid meet" version="1.0"><defs><g/><clipPath id="9d052c8b03"><path d="M 464.234375 31.324219 L 872.585938 31.324219 L 872.585938 439.675781 L 464.234375 439.675781 Z M 464.234375 31.324219 " clip-rule="nonzero"/></clipPath><clipPath id="f736c6aae7"><path d="M 668.410156 31.324219 C 555.648438 31.324219 464.234375 122.738281 464.234375 235.5 C 464.234375 348.261719 555.648438 439.675781 668.410156 439.675781 C 781.175781 439.675781 872.585938 348.261719 872.585938 235.5 C 872.585938 122.738281 781.175781 31.324219 668.410156 31.324219 Z M 668.410156 31.324219 " clip-rule="nonzero"/></clipPath><clipPath id="4fc038c6d0"><path d="M 512.015625 60 L 824.765625 60 L 824.765625 411 L 512.015625 411 Z M 512.015625 60 " clip-rule="nonzero"/></clipPath><clipPath id="ade80eeb77"><path d="M 668 147 L 824.765625 147 L 824.765625 324 L 668 324 Z M 668 147 " clip-rule="nonzero"/></clipPath></defs><rect x="-90" width="1080" fill="#ffffff" y="-47.099999" height="565.199986" fill-opacity="1"/><rect x="-90" width="1080" fill="#1a4674" y="-47.099999" height="565.199986" fill-opacity="1"/><g clip-path="url(#9d052c8b03)"><g clip-path="url(#f736c6aae7)"><path fill="#ffa100" d="M 464.234375 31.324219 L 872.585938 31.324219 L 872.585938 439.675781 L 464.234375 439.675781 Z M 464.234375 31.324219 " fill-opacity="1" fill-rule="nonzero"/></g></g><g clip-path="url(#4fc038c6d0)"><path fill="#5c8dbc" d="M 824.277344 163.355469 C 824.277344 157.460938 823.007812 152.253906 820.457031 147.78125 C 817.957031 143.386719 814.210938 139.703125 809.183594 136.789062 C 767.664062 112.851562 726.125 88.980469 684.617188 65.015625 C 673.429688 58.558594 662.582031 58.792969 651.480469 65.347656 C 634.960938 75.09375 552.230469 122.496094 527.570312 136.777344 C 517.425781 142.65625 512.484375 151.652344 512.484375 163.34375 C 512.46875 211.492188 512.484375 259.632812 512.46875 307.785156 C 512.46875 313.546875 513.675781 318.648438 516.113281 323.050781 C 518.617188 327.578125 522.417969 331.375 527.566406 334.351562 C 552.21875 348.628906 634.949219 396.023438 651.472656 405.773438 C 662.585938 412.339844 673.433594 412.570312 684.621094 406.101562 C 726.128906 382.136719 767.683594 358.269531 809.203125 334.339844 C 814.351562 331.363281 818.144531 327.566406 820.65625 323.039062 C 823.085938 318.648438 824.292969 313.535156 824.292969 307.761719 C 824.292969 307.761719 824.292969 211.507812 824.28125 163.355469 " fill-opacity="1" fill-rule="nonzero"/></g><path fill="#1a4674" d="M 668.855469 235.09375 L 516.117188 323.050781 C 518.617188 327.578125 522.417969 331.371094 527.566406 334.351562 C 552.21875 348.628906 634.949219 396.023438 651.472656 405.773438 C 662.585938 412.335938 673.433594 412.570312 684.621094 406.101562 C 726.128906 382.136719 767.683594 358.269531 809.203125 334.339844 C 814.351562 331.359375 818.144531 327.566406 820.65625 323.039062 L 668.859375 235.09375 " fill-opacity="1" fill-rule="nonzero"/><path fill="#1a4674" d="M 623.617188 261.144531 C 632.503906 276.667969 649.210938 287.136719 668.378906 287.136719 C 687.667969 287.136719 704.46875 276.535156 713.3125 260.855469 L 668.855469 235.09375 L 623.617188 261.144531 " fill-opacity="1" fill-rule="nonzero"/><g clip-path="url(#ade80eeb77)"><path fill="#1b598e" d="M 824.277344 163.355469 C 824.277344 157.460938 823.007812 152.253906 820.457031 147.78125 L 668.855469 235.09375 L 820.652344 323.039062 C 823.082031 318.644531 824.289062 313.53125 824.289062 307.761719 C 824.289062 307.761719 824.289062 211.507812 824.277344 163.355469 " fill-opacity="1" fill-rule="nonzero"/></g><path fill="#ffffff" d="M 815.929688 241.378906 L 804.070312 241.378906 L 804.070312 253.238281 L 792.199219 253.238281 L 792.199219 241.378906 L 780.34375 241.378906 L 780.34375 229.515625 L 792.199219 229.515625 L 792.199219 217.65625 L 804.070312 217.65625 L 804.070312 229.515625 L 815.929688 229.515625 L 815.929688 241.378906 " fill-opacity="1" fill-rule="nonzero"/><path fill="#ffffff" d="M 772.644531 241.378906 L 760.785156 241.378906 L 760.785156 253.238281 L 748.925781 253.238281 L 748.925781 241.378906 L 737.066406 241.378906 L 737.066406 229.515625 L 748.925781 229.515625 L 748.925781 217.65625 L 760.785156 217.65625 L 760.785156 229.515625 L 772.644531 229.515625 L 772.644531 241.378906 " fill-opacity="1" fill-rule="nonzero"/><path fill="#ffffff" d="M 713.3125 260.855469 C 704.46875 276.535156 687.667969 287.136719 668.378906 287.136719 C 649.210938 287.136719 632.503906 276.667969 623.617188 261.144531 C 619.296875 253.605469 616.816406 244.878906 616.816406 235.558594 C 616.816406 207.078125 639.902344 183.988281 668.378906 183.988281 C 687.421875 183.988281 704.039062 194.324219 712.972656 209.6875 L 758.039062 183.734375 C 740.128906 152.800781 706.6875 131.992188 668.378906 131.992188 C 611.1875 131.992188 564.828125 178.363281 564.828125 235.558594 C 564.828125 254.324219 569.820312 271.921875 578.542969 287.101562 C 596.410156 318.195312 629.953125 339.132812 668.378906 339.132812 C 706.882812 339.132812 740.472656 318.109375 758.308594 286.929688 L 713.3125 260.855469 " fill-opacity="1" fill-rule="nonzero"/><g fill="#ffffff" fill-opacity="1"><g transform="translate(188.79202, 219.749985)"><g><path d="M 19.65625 -29.90625 C 16.800781 -29.90625 14.59375 -28.832031 13.03125 -26.6875 C 11.46875 -24.550781 10.6875 -21.570312 10.6875 -17.75 C 10.6875 -9.789062 13.675781 -5.8125 19.65625 -5.8125 C 22.15625 -5.8125 25.191406 -6.4375 28.765625 -7.6875 L 28.765625 -1.34375 C 25.828125 -0.125 22.554688 0.484375 18.953125 0.484375 C 13.753906 0.484375 9.78125 -1.085938 7.03125 -4.234375 C 4.28125 -7.378906 2.90625 -11.898438 2.90625 -17.796875 C 2.90625 -21.503906 3.578125 -24.753906 4.921875 -27.546875 C 6.273438 -30.335938 8.21875 -32.476562 10.75 -33.96875 C 13.28125 -35.457031 16.25 -36.203125 19.65625 -36.203125 C 23.125 -36.203125 26.609375 -35.363281 30.109375 -33.6875 L 27.65625 -27.546875 C 26.320312 -28.171875 24.976562 -28.71875 23.625 -29.1875 C 22.28125 -29.664062 20.957031 -29.90625 19.65625 -29.90625 Z M 19.65625 -29.90625 "/></g></g></g><g fill="#ffffff" fill-opacity="1"><g transform="translate(220.647391, 219.749985)"><g><path d="M 11.59375 -14.9375 L 2.15625 -14.9375 L 2.15625 -20.28125 L 11.59375 -20.28125 L 11.59375 -29.8125 L 16.9375 -29.8125 L 16.9375 -20.28125 L 26.390625 -20.28125 L 26.390625 -14.9375 L 16.9375 -14.9375 L 16.9375 -5.546875 L 11.59375 -5.546875 Z M 11.59375 -14.9375 "/></g></g></g><g fill="#ffffff" fill-opacity="1"><g transform="translate(249.182969, 219.749985)"><g><path d="M 11.59375 -14.9375 L 2.15625 -14.9375 L 2.15625 -20.28125 L 11.59375 -20.28125 L 11.59375 -29.8125 L 16.9375 -29.8125 L 16.9375 -20.28125 L 26.390625 -20.28125 L 26.390625 -14.9375 L 16.9375 -14.9375 L 16.9375 -5.546875 L 11.59375 -5.546875 Z M 11.59375 -14.9375 "/></g></g></g><g fill="#ffffff" fill-opacity="1"><g transform="translate(54.026404, 289.499981)"><g><path d="M 11.9375 0 L 4.5 0 L 4.5 -35.6875 L 24.953125 -35.6875 L 24.953125 -29.5 L 11.9375 -29.5 L 11.9375 -20.28125 L 24.046875 -20.28125 L 24.046875 -14.109375 L 11.9375 -14.109375 Z M 11.9375 0 "/></g></g></g><g fill="#ffffff" fill-opacity="1"><g transform="translate(81.463521, 289.499981)"><g><path d="M 23.25 0 L 22.234375 -3.484375 L 21.84375 -3.484375 C 21.050781 -2.222656 19.921875 -1.242188 18.453125 -0.546875 C 16.992188 0.140625 15.328125 0.484375 13.453125 0.484375 C 10.242188 0.484375 7.828125 -0.367188 6.203125 -2.078125 C 4.578125 -3.796875 3.765625 -6.269531 3.765625 -9.5 L 3.765625 -27.296875 L 11.203125 -27.296875 L 11.203125 -11.359375 C 11.203125 -9.390625 11.550781 -7.910156 12.25 -6.921875 C 12.957031 -5.929688 14.070312 -5.4375 15.59375 -5.4375 C 17.675781 -5.4375 19.179688 -6.132812 20.109375 -7.53125 C 21.046875 -8.925781 21.515625 -11.234375 21.515625 -14.453125 L 21.515625 -27.296875 L 28.953125 -27.296875 L 28.953125 0 Z M 23.25 0 "/></g></g></g><g fill="#ffffff" fill-opacity="1"><g transform="translate(114.319712, 289.499981)"><g><path d="M 29.109375 0 L 21.65625 0 L 21.65625 -15.9375 C 21.65625 -17.90625 21.304688 -19.378906 20.609375 -20.359375 C 19.910156 -21.347656 18.796875 -21.84375 17.265625 -21.84375 C 15.179688 -21.84375 13.675781 -21.144531 12.75 -19.75 C 11.820312 -18.363281 11.359375 -16.0625 11.359375 -12.84375 L 11.359375 0 L 3.90625 0 L 3.90625 -27.296875 L 9.59375 -27.296875 L 10.59375 -23.796875 L 11.015625 -23.796875 C 11.835938 -25.117188 12.976562 -26.117188 14.4375 -26.796875 C 15.894531 -27.472656 17.550781 -27.8125 19.40625 -27.8125 C 22.582031 -27.8125 24.992188 -26.953125 26.640625 -25.234375 C 28.285156 -23.515625 29.109375 -21.035156 29.109375 -17.796875 Z M 29.109375 0 "/></g></g></g><g fill="#ffffff" fill-opacity="1"><g transform="translate(147.175904, 289.499981)"><g><path d="M 12.546875 0.484375 C 9.335938 0.484375 6.816406 -0.757812 4.984375 -3.25 C 3.160156 -5.738281 2.25 -9.1875 2.25 -13.59375 C 2.25 -18.070312 3.179688 -21.5625 5.046875 -24.0625 C 6.910156 -26.5625 9.476562 -27.8125 12.75 -27.8125 C 16.175781 -27.8125 18.796875 -26.472656 20.609375 -23.796875 L 20.84375 -23.796875 C 20.46875 -25.835938 20.28125 -27.65625 20.28125 -29.25 L 20.28125 -37.984375 L 27.765625 -37.984375 L 27.765625 0 L 22.046875 0 L 20.609375 -3.546875 L 20.28125 -3.546875 C 18.59375 -0.859375 16.015625 0.484375 12.546875 0.484375 Z M 15.15625 -5.4375 C 17.0625 -5.4375 18.457031 -5.988281 19.34375 -7.09375 C 20.226562 -8.207031 20.710938 -10.09375 20.796875 -12.75 L 20.796875 -13.546875 C 20.796875 -16.472656 20.34375 -18.570312 19.4375 -19.84375 C 18.539062 -21.113281 17.078125 -21.75 15.046875 -21.75 C 13.378906 -21.75 12.085938 -21.046875 11.171875 -19.640625 C 10.253906 -18.234375 9.796875 -16.1875 9.796875 -13.5 C 9.796875 -10.8125 10.257812 -8.796875 11.1875 -7.453125 C 12.113281 -6.109375 13.4375 -5.4375 15.15625 -5.4375 Z M 15.15625 -5.4375 "/></g></g></g><g fill="#ffffff" fill-opacity="1"><g transform="translate(178.811583, 289.499981)"><g><path d="M 21.234375 0 L 19.796875 -3.71875 L 19.609375 -3.71875 C 18.347656 -2.132812 17.054688 -1.035156 15.734375 -0.421875 C 14.410156 0.179688 12.679688 0.484375 10.546875 0.484375 C 7.921875 0.484375 5.851562 -0.257812 4.34375 -1.75 C 2.84375 -3.25 2.09375 -5.382812 2.09375 -8.15625 C 2.09375 -11.050781 3.101562 -13.1875 5.125 -14.5625 C 7.15625 -15.9375 10.21875 -16.695312 14.3125 -16.84375 L 19.046875 -17 L 19.046875 -18.1875 C 19.046875 -20.957031 17.628906 -22.34375 14.796875 -22.34375 C 12.617188 -22.34375 10.054688 -21.679688 7.109375 -20.359375 L 4.640625 -25.390625 C 7.773438 -27.035156 11.257812 -27.859375 15.09375 -27.859375 C 18.75 -27.859375 21.550781 -27.0625 23.5 -25.46875 C 25.457031 -23.875 26.4375 -21.445312 26.4375 -18.1875 L 26.4375 0 Z M 19.046875 -12.640625 L 16.15625 -12.546875 C 14 -12.484375 12.390625 -12.09375 11.328125 -11.375 C 10.265625 -10.65625 9.734375 -9.566406 9.734375 -8.109375 C 9.734375 -6.003906 10.941406 -4.953125 13.359375 -4.953125 C 15.078125 -4.953125 16.453125 -5.445312 17.484375 -6.4375 C 18.523438 -7.4375 19.046875 -8.757812 19.046875 -10.40625 Z M 19.046875 -12.640625 "/></g></g></g><g fill="#ffffff" fill-opacity="1"><g transform="translate(209.007057, 289.499981)"><g><path d="M 28.34375 0 L 20.90625 0 L 20.90625 -15.9375 C 20.90625 -17.90625 20.570312 -19.378906 19.90625 -20.359375 C 19.25 -21.347656 18.210938 -21.84375 16.796875 -21.84375 C 14.890625 -21.84375 13.503906 -21.144531 12.640625 -19.75 C 11.785156 -18.351562 11.359375 -16.050781 11.359375 -12.84375 L 11.359375 0 L 3.90625 0 L 3.90625 -27.296875 L 9.59375 -27.296875 L 10.59375 -23.796875 L 11.015625 -23.796875 C 11.742188 -25.054688 12.800781 -26.039062 14.1875 -26.75 C 15.570312 -27.457031 17.160156 -27.8125 18.953125 -27.8125 C 23.035156 -27.8125 25.800781 -26.472656 27.25 -23.796875 L 27.90625 -23.796875 C 28.632812 -25.066406 29.710938 -26.050781 31.140625 -26.75 C 32.566406 -27.457031 34.175781 -27.8125 35.96875 -27.8125 C 39.050781 -27.8125 41.382812 -27.015625 42.96875 -25.421875 C 44.5625 -23.835938 45.359375 -21.296875 45.359375 -17.796875 L 45.359375 0 L 37.890625 0 L 37.890625 -15.9375 C 37.890625 -17.90625 37.554688 -19.378906 36.890625 -20.359375 C 36.234375 -21.347656 35.203125 -21.84375 33.796875 -21.84375 C 31.972656 -21.84375 30.609375 -21.191406 29.703125 -19.890625 C 28.796875 -18.585938 28.34375 -16.523438 28.34375 -13.703125 Z M 28.34375 0 "/></g></g></g><g fill="#ffffff" fill-opacity="1"><g transform="translate(258.096062, 289.499981)"><g><path d="M 15.203125 -22.515625 C 13.628906 -22.515625 12.394531 -22.007812 11.5 -21 C 10.601562 -20 10.09375 -18.582031 9.96875 -16.75 L 20.40625 -16.75 C 20.375 -18.582031 19.894531 -20 18.96875 -21 C 18.039062 -22.007812 16.785156 -22.515625 15.203125 -22.515625 Z M 16.265625 0.484375 C 11.867188 0.484375 8.429688 -0.722656 5.953125 -3.140625 C 3.484375 -5.566406 2.25 -9.003906 2.25 -13.453125 C 2.25 -18.023438 3.390625 -21.5625 5.671875 -24.0625 C 7.960938 -26.5625 11.125 -27.8125 15.15625 -27.8125 C 19.019531 -27.8125 22.023438 -26.710938 24.171875 -24.515625 C 26.316406 -22.316406 27.390625 -19.28125 27.390625 -15.40625 L 27.390625 -11.796875 L 9.796875 -11.796875 C 9.867188 -9.679688 10.488281 -8.023438 11.65625 -6.828125 C 12.832031 -5.640625 14.484375 -5.046875 16.609375 -5.046875 C 18.242188 -5.046875 19.796875 -5.21875 21.265625 -5.5625 C 22.734375 -5.90625 24.265625 -6.453125 25.859375 -7.203125 L 25.859375 -1.4375 C 24.554688 -0.789062 23.160156 -0.3125 21.671875 0 C 20.191406 0.320312 18.390625 0.484375 16.265625 0.484375 Z M 16.265625 0.484375 "/></g></g></g><g fill="#ffffff" fill-opacity="1"><g transform="translate(287.632459, 289.499981)"><g><path d="M 29.109375 0 L 21.65625 0 L 21.65625 -15.9375 C 21.65625 -17.90625 21.304688 -19.378906 20.609375 -20.359375 C 19.910156 -21.347656 18.796875 -21.84375 17.265625 -21.84375 C 15.179688 -21.84375 13.675781 -21.144531 12.75 -19.75 C 11.820312 -18.363281 11.359375 -16.0625 11.359375 -12.84375 L 11.359375 0 L 3.90625 0 L 3.90625 -27.296875 L 9.59375 -27.296875 L 10.59375 -23.796875 L 11.015625 -23.796875 C 11.835938 -25.117188 12.976562 -26.117188 14.4375 -26.796875 C 15.894531 -27.472656 17.550781 -27.8125 19.40625 -27.8125 C 22.582031 -27.8125 24.992188 -26.953125 26.640625 -25.234375 C 28.285156 -23.515625 29.109375 -21.035156 29.109375 -17.796875 Z M 29.109375 0 "/></g></g></g><g fill="#ffffff" fill-opacity="1"><g transform="translate(320.488651, 289.499981)"><g><path d="M 15.40625 -5.4375 C 16.707031 -5.4375 18.269531 -5.722656 20.09375 -6.296875 L 20.09375 -0.75 C 18.238281 0.0703125 15.957031 0.484375 13.25 0.484375 C 10.28125 0.484375 8.113281 -0.265625 6.75 -1.765625 C 5.394531 -3.273438 4.71875 -5.535156 4.71875 -8.546875 L 4.71875 -21.703125 L 1.140625 -21.703125 L 1.140625 -24.859375 L 5.25 -27.34375 L 7.390625 -33.109375 L 12.15625 -33.109375 L 12.15625 -27.296875 L 19.796875 -27.296875 L 19.796875 -21.703125 L 12.15625 -21.703125 L 12.15625 -8.546875 C 12.15625 -7.484375 12.453125 -6.695312 13.046875 -6.1875 C 13.640625 -5.6875 14.425781 -5.4375 15.40625 -5.4375 Z M 15.40625 -5.4375 "/></g></g></g><g fill="#ffffff" fill-opacity="1"><g transform="translate(342.189348, 289.499981)"><g><path d="M 21.234375 0 L 19.796875 -3.71875 L 19.609375 -3.71875 C 18.347656 -2.132812 17.054688 -1.035156 15.734375 -0.421875 C 14.410156 0.179688 12.679688 0.484375 10.546875 0.484375 C 7.921875 0.484375 5.851562 -0.257812 4.34375 -1.75 C 2.84375 -3.25 2.09375 -5.382812 2.09375 -8.15625 C 2.09375 -11.050781 3.101562 -13.1875 5.125 -14.5625 C 7.15625 -15.9375 10.21875 -16.695312 14.3125 -16.84375 L 19.046875 -17 L 19.046875 -18.1875 C 19.046875 -20.957031 17.628906 -22.34375 14.796875 -22.34375 C 12.617188 -22.34375 10.054688 -21.679688 7.109375 -20.359375 L 4.640625 -25.390625 C 7.773438 -27.035156 11.257812 -27.859375 15.09375 -27.859375 C 18.75 -27.859375 21.550781 -27.0625 23.5 -25.46875 C 25.457031 -23.875 26.4375 -21.445312 26.4375 -18.1875 L 26.4375 0 Z M 19.046875 -12.640625 L 16.15625 -12.546875 C 14 -12.484375 12.390625 -12.09375 11.328125 -11.375 C 10.265625 -10.65625 9.734375 -9.566406 9.734375 -8.109375 C 9.734375 -6.003906 10.941406 -4.953125 13.359375 -4.953125 C 15.078125 -4.953125 16.453125 -5.445312 17.484375 -6.4375 C 18.523438 -7.4375 19.046875 -8.757812 19.046875 -10.40625 Z M 19.046875 -12.640625 "/></g></g></g><g fill="#ffffff" fill-opacity="1"><g transform="translate(372.384834, 289.499981)"><g><path d="M 11.359375 0 L 3.90625 0 L 3.90625 -37.984375 L 11.359375 -37.984375 Z M 11.359375 0 "/></g></g></g><g fill="#ffffff" fill-opacity="1"><g transform="translate(387.641249, 289.499981)"><g><path d="M 22.953125 -8.109375 C 22.953125 -5.304688 21.976562 -3.171875 20.03125 -1.703125 C 18.082031 -0.242188 15.171875 0.484375 11.296875 0.484375 C 9.316406 0.484375 7.625 0.347656 6.21875 0.078125 C 4.820312 -0.179688 3.515625 -0.570312 2.296875 -1.09375 L 2.296875 -7.25 C 3.679688 -6.601562 5.238281 -6.054688 6.96875 -5.609375 C 8.707031 -5.171875 10.234375 -4.953125 11.546875 -4.953125 C 14.242188 -4.953125 15.59375 -5.734375 15.59375 -7.296875 C 15.59375 -7.878906 15.414062 -8.351562 15.0625 -8.71875 C 14.707031 -9.09375 14.085938 -9.507812 13.203125 -9.96875 C 12.328125 -10.4375 11.15625 -10.976562 9.6875 -11.59375 C 7.59375 -12.476562 6.050781 -13.289062 5.0625 -14.03125 C 4.082031 -14.78125 3.367188 -15.640625 2.921875 -16.609375 C 2.472656 -17.578125 2.25 -18.769531 2.25 -20.1875 C 2.25 -22.613281 3.1875 -24.488281 5.0625 -25.8125 C 6.945312 -27.144531 9.613281 -27.8125 13.0625 -27.8125 C 16.351562 -27.8125 19.550781 -27.09375 22.65625 -25.65625 L 20.40625 -20.28125 C 19.039062 -20.875 17.765625 -21.359375 16.578125 -21.734375 C 15.390625 -22.109375 14.175781 -22.296875 12.9375 -22.296875 C 10.738281 -22.296875 9.640625 -21.703125 9.640625 -20.515625 C 9.640625 -19.835938 9.992188 -19.253906 10.703125 -18.765625 C 11.410156 -18.285156 12.960938 -17.566406 15.359375 -16.609375 C 17.492188 -15.742188 19.054688 -14.9375 20.046875 -14.1875 C 21.035156 -13.4375 21.765625 -12.570312 22.234375 -11.59375 C 22.710938 -10.613281 22.953125 -9.453125 22.953125 -8.109375 Z M 22.953125 -8.109375 "/></g></g></g></svg>