<svg xmlns="http://www.w3.org/2000/svg" xmlns:xlink="http://www.w3.org/1999/xlink" width="1200" zoomAndPan="magnify" viewBox="0 0 900 470.999988" height="628" preserveAspectRatio="xMidYMid meet" version="1.0"><defs><g/><clipPath id="8fd0cfd4c0"><path d="M 450 0 L 900 0 L 900 471 L 450 471 Z M 450 0 " clip-rule="nonzero"/></clipPath><clipPath id="672edc2c97"><path d="M 463.601562 313.914062 C 455.390625 289.84375 450 262.316406 450 235.371094 C 450 208.429688 454.621094 182.503906 462.832031 158.609375 C 463.085938 158.101562 463.085938 157.59375 463.34375 157.085938 C 496.191406 67.359375 582.925781 1.269531 684.289062 0 L 954.691406 0 C 996.113281 0 1029.691406 33.578125 1029.691406 75 L 1029.691406 396 C 1029.691406 437.421875 996.113281 471 954.691406 471 L 684.546875 471 C 582.414062 469.730469 495.679688 404.65625 463.601562 313.914062 Z M 463.601562 313.914062 " clip-rule="nonzero"/></clipPath><clipPath id="22e658e08a"><path d="M 470 218 L 648 218 L 648 304.742188 L 470 304.742188 Z M 470 218 " clip-rule="nonzero"/></clipPath></defs><rect x="-90" width="1080" fill="#ffffff" y="-47.099999" height="565.199986" fill-opacity="1"/><rect x="-90" width="1080" fill="#1a4674" y="-47.099999" height="565.199986" fill-opacity="1"/><g clip-path="url(#8fd0cfd4c0)"><g clip-path="url(#672edc2c97)"><path fill="#cb8308" d="M 450 471 L 450 0 L 1029.550781 0 L 1029.550781 471 Z M 450 471 " fill-opacity="1" fill-rule="nonzero"/></g></g><g clip-path="url(#22e658e08a)"><path fill="#00709f" d="M 470.390625 285.226562 L 484.492188 285.226562 L 484.492188 229.5625 L 506.324219 278.105469 C 508.898438 283.957031 512.425781 286.0625 519.339844 286.0625 C 526.253906 286.0625 529.644531 283.980469 532.222656 278.105469 L 554.054688 229.5625 L 554.054688 285.25 L 568.160156 285.25 L 568.160156 229.652344 C 568.160156 224.230469 565.984375 221.605469 561.511719 220.253906 C 550.800781 216.910156 543.613281 219.800781 540.363281 227.03125 L 518.9375 274.941406 L 498.191406 227.011719 C 495.070312 219.78125 487.75 216.886719 477.039062 220.230469 C 472.5625 221.589844 470.390625 224.210938 470.390625 229.632812 Z M 579.878906 239.902344 L 593.976562 239.902344 L 593.976562 270.585938 C 593.847656 272.253906 594.511719 276.164062 602.238281 276.285156 C 606.179688 276.347656 632.65625 276.285156 632.902344 276.285156 L 632.902344 239.75 L 647.03125 239.75 C 647.09375 239.75 647.015625 289.5625 647.019531 289.777344 C 647.09375 302.0625 631.773438 304.730469 624.714844 304.9375 L 580.1875 304.9375 L 580.1875 295.449219 L 624.792969 295.449219 C 633.867188 294.484375 632.796875 289.976562 632.796875 288.457031 L 632.796875 284.757812 L 602.828125 284.757812 C 588.882812 284.632812 580.003906 278.546875 579.894531 271.542969 C 579.882812 270.917969 580.195312 240.203125 579.882812 239.902344 Z M 579.878906 239.902344 " fill-opacity="1" fill-rule="nonzero"/></g><path fill="#ff9f00" d="M 657.902344 285.226562 L 698.441406 285.226562 C 703.1875 285.226562 707.800781 284.234375 711.464844 282.515625 C 717.566406 279.714844 720.550781 275.917969 720.550781 270.945312 L 720.550781 260.640625 C 720.550781 256.570312 717.160156 252.777344 710.515625 250.246094 C 706.992188 248.886719 702.652344 248.164062 698.449219 248.164062 L 681.363281 248.164062 C 675.671875 248.164062 672.957031 246.445312 672.28125 242.652344 C 672.144531 242.199219 672.144531 241.816406 672.144531 241.386719 L 672.144531 234.96875 C 672.144531 234.605469 672.144531 234.242188 672.28125 233.792969 C 672.957031 230.898438 674.449219 230.085938 679.464844 229.613281 C 679.875 229.613281 680.414062 229.519531 680.824219 229.519531 L 721.09375 229.519531 L 721.09375 220.121094 L 681.5 220.121094 C 675.804688 220.121094 672.824219 220.484375 670.109375 221.296875 C 661.691406 223.917969 658.03125 228.097656 658.03125 235.332031 L 658.03125 243.554688 C 658.03125 249.886719 665.21875 255.308594 677.285156 256.574219 C 678.640625 256.664062 679.996094 256.753906 681.351562 256.753906 L 695.996094 256.753906 C 696.539062 256.753906 697.082031 256.753906 697.488281 256.84375 C 701.960938 257.207031 703.863281 258.019531 705.21875 259.644531 C 706.054688 260.480469 706.304688 261.277344 706.304688 262.152344 L 706.304688 270.378906 C 706.304688 271.375 705.625 272.640625 704.269531 273.722656 C 703.050781 274.8125 701.015625 275.53125 698.304688 275.714844 C 697.757812 275.714844 697.355469 275.804688 696.8125 275.804688 L 657.898438 275.804688 L 657.898438 285.203125 Z M 808.515625 268.867188 C 808.515625 278.539062 815.703125 283.964844 830.210938 285.046875 C 831.566406 285.152344 832.921875 285.210938 834.277344 285.226562 L 871.023438 285.226562 L 871.023438 275.828125 L 834.007812 275.828125 C 825.734375 275.828125 822.617188 273.746094 822.617188 268.773438 L 822.617188 220.140625 L 808.515625 220.140625 Z M 729.542969 269.355469 L 729.542969 235.84375 C 729.542969 227.328125 735.523438 222.164062 747.34375 220.53125 C 748.605469 220.351562 749.875 220.261719 751.148438 220.261719 L 777.917969 220.261719 C 779.238281 220.261719 780.550781 220.351562 781.859375 220.53125 C 793.679688 222.164062 799.65625 227.324219 799.65625 235.84375 L 799.65625 269.355469 C 799.65625 276.261719 797.117188 279.960938 791.265625 282.371094 L 805.15625 294.910156 L 788.78125 294.910156 L 777.542969 284.765625 L 766.230469 285.484375 L 751.148438 285.484375 C 748.566406 285.484375 745.851562 285.117188 742.859375 284.304688 C 733.875 281.859375 729.546875 277.148438 729.546875 269.355469 Z M 744.765625 268.519531 C 744.765625 268.972656 744.902344 269.425781 745.039062 269.96875 C 745.875 273.867188 749.519531 276.039062 755.070312 276.039062 L 767.882812 276.039062 L 756.117188 265.417969 L 772.488281 265.417969 L 782.730469 274.679688 C 784.621094 273.675781 785.863281 272.132812 786.28125 270.152344 C 786.417969 269.699219 786.417969 269.246094 786.417969 268.792969 L 786.417969 236.660156 C 786.417969 236.296875 786.417969 235.824219 786.28125 235.390625 C 785.445312 231.769531 781.796875 229.683594 776.363281 229.683594 L 755.109375 229.683594 C 748.835938 229.683594 744.78125 232.402344 744.78125 236.660156 L 744.78125 268.542969 Z M 744.765625 268.519531 " fill-opacity="1" fill-rule="nonzero"/><path fill="#00709f" d="M 883.421875 204.542969 C 874.753906 204.308594 868.132812 205.113281 862.472656 207.5 C 860.863281 208.179688 858.296875 208.199219 858.035156 210.214844 C 858.917969 211.140625 859.058594 212.523438 859.757812 213.664062 C 861.113281 215.851562 863.394531 218.785156 865.429688 220.316406 C 867.652344 221.996094 869.945312 223.792969 872.332031 225.25 C 876.574219 227.835938 881.3125 229.316406 885.394531 231.90625 C 887.804688 233.429688 890.195312 235.351562 892.542969 237.078125 C 893.703125 237.933594 894.488281 239.257812 895.992188 239.789062 L 895.992188 239.542969 C 895.199219 238.535156 894.996094 237.148438 894.269531 236.09375 L 891.0625 232.890625 C 887.929688 228.710938 883.953125 225.082031 879.726562 222.042969 C 876.355469 219.625 868.808594 216.355469 867.402344 212.429688 L 867.152344 212.183594 C 869.546875 211.910156 872.34375 211.046875 874.550781 210.460938 C 878.257812 209.464844 881.570312 209.722656 885.398438 208.734375 L 890.578125 207.253906 L 890.578125 206.269531 C 888.640625 204.28125 887.261719 201.65625 885.152344 199.859375 C 879.636719 195.15625 873.609375 190.464844 867.410156 186.546875 C 863.96875 184.375 859.71875 182.964844 856.070312 181.125 C 854.84375 180.503906 852.6875 180.183594 851.878906 179.152344 C 849.964844 176.710938 848.921875 173.613281 847.445312 170.789062 C 844.351562 164.832031 841.3125 158.324219 838.570312 152.058594 C 836.699219 147.785156 835.476562 143.566406 833.148438 139.734375 C 821.957031 121.332031 809.90625 110.226562 791.25 99.3125 C 787.277344 96.992188 782.496094 96.070312 777.445312 94.875 L 769.308594 94.382812 C 767.652344 93.691406 765.933594 91.664062 764.378906 90.683594 C 758.195312 86.773438 742.335938 78.28125 737.757812 89.429688 C 734.867188 96.476562 742.078125 103.355469 744.660156 106.929688 C 746.46875 109.4375 748.789062 112.246094 750.082031 115.0625 C 750.933594 116.914062 751.082031 118.773438 751.808594 120.734375 C 753.597656 125.542969 755.15625 130.816406 757.476562 135.277344 C 758.644531 137.535156 759.9375 139.914062 761.417969 141.929688 C 762.328125 143.171875 763.886719 143.714844 764.128906 145.628906 C 762.609375 147.761719 762.519531 151.066406 761.664062 153.765625 C 757.8125 165.914062 759.265625 181.007812 764.867188 190 C 766.589844 192.757812 770.636719 198.675781 776.207031 196.40625 C 781.078125 194.421875 779.96875 188.277344 781.382812 182.851562 C 781.695312 181.617188 781.503906 180.71875 782.125 179.894531 L 782.125 180.140625 L 786.5625 189.011719 C 789.84375 194.300781 795.671875 199.828125 800.609375 203.558594 C 803.171875 205.492188 805.207031 208.835938 808.496094 209.96875 L 808.496094 209.722656 L 808.25 209.722656 C 807.609375 208.71875 806.605469 208.304688 805.785156 207.503906 C 803.855469 205.613281 801.710938 203.261719 800.113281 201.097656 C 795.621094 195 791.652344 188.328125 788.039062 181.378906 C 786.3125 178.0625 784.808594 174.402344 783.355469 171.027344 C 782.796875 169.722656 782.800781 167.757812 781.632812 167.082031 C 780.039062 169.558594 777.6875 171.554688 776.457031 174.476562 C 774.480469 179.144531 774.226562 184.839844 773.496094 190.746094 C 773.066406 190.902344 773.257812 190.792969 773.003906 190.992188 C 769.574219 190.164062 768.363281 186.628906 767.089844 183.597656 C 763.863281 175.925781 763.265625 163.582031 766.101562 154.761719 C 766.835938 152.476562 770.15625 145.285156 768.8125 143.175781 C 768.171875 141.070312 766.054688 139.832031 764.871094 138.242188 C 763.40625 136.257812 761.941406 133.636719 760.925781 131.339844 C 758.285156 125.363281 757.050781 118.65625 754.273438 112.609375 C 752.941406 109.71875 750.699219 106.796875 748.851562 104.25 C 746.804688 101.40625 744.519531 99.308594 742.9375 95.886719 C 742.371094 94.664062 741.605469 92.710938 742.441406 91.449219 C 742.523438 91.082031 742.699219 90.761719 742.964844 90.496094 C 743.234375 90.226562 743.550781 90.050781 743.921875 89.972656 C 745.351562 88.871094 749.335938 90.335938 750.824219 90.957031 C 754.773438 92.601562 758.074219 94.164062 761.425781 96.382812 C 763.035156 97.425781 764.65625 99.507812 766.597656 100.082031 L 768.8125 100.082031 C 772.285156 100.878906 776.171875 100.332031 779.410156 101.3125 C 785.140625 103.054688 790.273438 105.765625 794.941406 108.707031 C 809.148438 117.679688 820.761719 130.449219 828.707031 145.703125 C 829.988281 148.152344 830.539062 150.496094 831.664062 153.097656 C 833.9375 158.320312 836.796875 163.742188 839.058594 168.871094 C 841.316406 173.988281 843.511719 179.152344 846.699219 183.410156 C 848.378906 185.648438 854.851562 186.851562 857.792969 188.09375 C 859.855469 188.964844 863.234375 189.875 865.1875 191.050781 C 868.917969 193.300781 872.535156 195.984375 876.035156 198.449219 C 877.785156 199.683594 883.160156 202.386719 883.429688 204.609375 Z M 883.421875 204.542969 " fill-opacity="1" fill-rule="nonzero"/><path fill="#00709f" d="M 773.257812 110.636719 C 771.449219 110.601562 770.171875 110.832031 768.820312 111.128906 L 768.820312 111.375 L 769.066406 111.375 C 769.929688 113.148438 771.449219 114.285156 772.515625 115.8125 L 774.980469 120.988281 L 775.226562 120.742188 C 776.753906 119.664062 777.453125 117.945312 777.445312 115.316406 C 776.832031 114.671875 776.742188 113.867188 776.210938 113.097656 C 775.507812 112.074219 774.121094 111.492188 773.253906 110.632812 Z M 773.257812 110.636719 " fill-opacity="1" fill-rule="evenodd"/><path fill="#ff9f00" d="M 877.652344 275.558594 C 877.652344 281.765625 882.558594 285.949219 888.046875 285.949219 C 893.53125 285.949219 898.4375 281.765625 898.4375 275.558594 C 898.4375 269.351562 893.53125 265.167969 888.046875 265.167969 C 882.558594 265.167969 877.652344 269.351562 877.652344 275.558594 Z M 896.109375 275.558594 C 896.109375 280.269531 892.507812 283.789062 888.042969 283.789062 C 883.527344 283.789062 879.972656 280.269531 879.972656 275.558594 C 879.972656 270.847656 883.523438 267.328125 888.042969 267.328125 C 892.503906 267.328125 896.109375 270.847656 896.109375 275.558594 Z M 890.84375 281.492188 L 893.167969 281.492188 L 889.761719 276.28125 C 891.589844 276.085938 892.972656 275.199219 892.972656 273.039062 C 892.972656 270.625 891.449219 269.632812 888.515625 269.632812 L 883.882812 269.632812 L 883.882812 281.492188 L 885.878906 281.492188 L 885.878906 276.367188 L 887.738281 276.367188 L 890.839844 281.492188 Z M 885.878906 274.699219 L 885.878906 271.292969 L 888.179688 271.292969 C 889.371094 271.292969 890.8125 271.511719 890.8125 272.902344 C 890.8125 274.5625 889.511719 274.703125 888.011719 274.703125 L 885.878906 274.703125 Z M 885.878906 274.699219 " fill-opacity="1" fill-rule="evenodd"/><g fill="#ffffff" fill-opacity="1"><g transform="translate(69.562676, 248.93947)"><g><path d="M 19.609375 0 L 11.015625 -28 L 10.796875 -28 C 11.097656 -22.300781 11.25 -18.503906 11.25 -16.609375 L 11.25 0 L 4.5 0 L 4.5 -35.6875 L 14.796875 -35.6875 L 23.25 -8.40625 L 23.390625 -8.40625 L 32.34375 -35.6875 L 42.65625 -35.6875 L 42.65625 0 L 35.59375 0 L 35.59375 -16.890625 C 35.59375 -17.691406 35.601562 -18.613281 35.625 -19.65625 C 35.65625 -20.695312 35.769531 -23.460938 35.96875 -27.953125 L 35.75 -27.953125 L 26.53125 0 Z M 19.609375 0 "/></g></g></g><g fill="#ffffff" fill-opacity="1"><g transform="translate(116.698861, 248.93947)"><g><path d="M 0 -27.296875 L 8.15625 -27.296875 L 13.3125 -11.9375 C 13.75 -10.601562 14.046875 -9.023438 14.203125 -7.203125 L 14.359375 -7.203125 C 14.535156 -8.878906 14.882812 -10.457031 15.40625 -11.9375 L 20.453125 -27.296875 L 28.4375 -27.296875 L 16.890625 3.484375 C 15.835938 6.335938 14.328125 8.472656 12.359375 9.890625 C 10.398438 11.304688 8.113281 12.015625 5.5 12.015625 C 4.207031 12.015625 2.941406 11.875 1.703125 11.59375 L 1.703125 5.6875 C 2.597656 5.894531 3.578125 6 4.640625 6 C 5.953125 6 7.101562 5.597656 8.09375 4.796875 C 9.082031 3.992188 9.851562 2.773438 10.40625 1.140625 L 10.84375 -0.203125 Z M 0 -27.296875 "/></g></g></g><g fill="#ffffff" fill-opacity="1"><g transform="translate(145.136798, 248.93947)"><g><path d="M 25.5625 -9.90625 C 25.5625 -6.6875 24.398438 -4.148438 22.078125 -2.296875 C 19.765625 -0.441406 16.539062 0.484375 12.40625 0.484375 C 8.59375 0.484375 5.222656 -0.226562 2.296875 -1.65625 L 2.296875 -8.6875 C 4.703125 -7.613281 6.738281 -6.859375 8.40625 -6.421875 C 10.070312 -5.984375 11.597656 -5.765625 12.984375 -5.765625 C 14.648438 -5.765625 15.925781 -6.082031 16.8125 -6.71875 C 17.695312 -7.351562 18.140625 -8.296875 18.140625 -9.546875 C 18.140625 -10.242188 17.941406 -10.863281 17.546875 -11.40625 C 17.160156 -11.957031 16.585938 -12.484375 15.828125 -12.984375 C 15.078125 -13.492188 13.535156 -14.300781 11.203125 -15.40625 C 9.023438 -16.425781 7.390625 -17.410156 6.296875 -18.359375 C 5.203125 -19.304688 4.328125 -20.40625 3.671875 -21.65625 C 3.023438 -22.90625 2.703125 -24.367188 2.703125 -26.046875 C 2.703125 -29.203125 3.769531 -31.679688 5.90625 -33.484375 C 8.050781 -35.296875 11.015625 -36.203125 14.796875 -36.203125 C 16.648438 -36.203125 18.414062 -35.984375 20.09375 -35.546875 C 21.78125 -35.109375 23.546875 -34.488281 25.390625 -33.6875 L 22.953125 -27.8125 C 21.046875 -28.59375 19.46875 -29.132812 18.21875 -29.4375 C 16.976562 -29.75 15.753906 -29.90625 14.546875 -29.90625 C 13.117188 -29.90625 12.019531 -29.570312 11.25 -28.90625 C 10.488281 -28.238281 10.109375 -27.367188 10.109375 -26.296875 C 10.109375 -25.628906 10.257812 -25.046875 10.5625 -24.546875 C 10.875 -24.046875 11.367188 -23.5625 12.046875 -23.09375 C 12.722656 -22.632812 14.320312 -21.804688 16.84375 -20.609375 C 20.175781 -19.015625 22.460938 -17.414062 23.703125 -15.8125 C 24.941406 -14.207031 25.5625 -12.238281 25.5625 -9.90625 Z M 25.5625 -9.90625 "/></g></g></g><g fill="#ffffff" fill-opacity="1"><g transform="translate(172.671556, 248.93947)"><g><path d="M 36.890625 -17.890625 C 36.890625 -13.691406 36.144531 -10.171875 34.65625 -7.328125 C 33.164062 -4.492188 30.976562 -2.414062 28.09375 -1.09375 L 36.6875 8.5 L 27 8.5 L 20.453125 0.484375 L 19.890625 0.484375 C 14.421875 0.484375 10.222656 -1.097656 7.296875 -4.265625 C 4.367188 -7.441406 2.90625 -12 2.90625 -17.9375 C 2.90625 -23.882812 4.375 -28.421875 7.3125 -31.546875 C 10.25 -34.679688 14.460938 -36.25 19.953125 -36.25 C 25.429688 -36.25 29.625 -34.671875 32.53125 -31.515625 C 35.4375 -28.359375 36.890625 -23.816406 36.890625 -17.890625 Z M 10.84375 -17.890625 C 10.84375 -13.910156 11.597656 -10.910156 13.109375 -8.890625 C 14.617188 -6.867188 16.878906 -5.859375 19.890625 -5.859375 C 25.929688 -5.859375 28.953125 -9.867188 28.953125 -17.890625 C 28.953125 -25.929688 25.953125 -29.953125 19.953125 -29.953125 C 16.941406 -29.953125 14.671875 -28.9375 13.140625 -26.90625 C 11.609375 -24.882812 10.84375 -21.878906 10.84375 -17.890625 Z M 10.84375 -17.890625 "/></g></g></g><g fill="#ffffff" fill-opacity="1"><g transform="translate(212.460257, 248.93947)"><g><path d="M 4.5 0 L 4.5 -35.6875 L 12.0625 -35.6875 L 12.0625 -6.25 L 26.53125 -6.25 L 26.53125 0 Z M 4.5 0 "/></g></g></g></svg>