<svg xmlns="http://www.w3.org/2000/svg" xmlns:xlink="http://www.w3.org/1999/xlink" width="1200" zoomAndPan="magnify" viewBox="0 0 900 470.999988" height="628" preserveAspectRatio="xMidYMid meet" version="1.0"><defs><g/><clipPath id="7b68fde6eb"><path d="M 464.234375 31.324219 L 872.585938 31.324219 L 872.585938 439.675781 L 464.234375 439.675781 Z M 464.234375 31.324219 " clip-rule="nonzero"/></clipPath><clipPath id="5da05261c2"><path d="M 668.410156 31.324219 C 555.648438 31.324219 464.234375 122.738281 464.234375 235.5 C 464.234375 348.261719 555.648438 439.675781 668.410156 439.675781 C 781.175781 439.675781 872.585938 348.261719 872.585938 235.5 C 872.585938 122.738281 781.175781 31.324219 668.410156 31.324219 Z M 668.410156 31.324219 " clip-rule="nonzero"/></clipPath><clipPath id="57331f8f54"><path d="M 512.015625 60 L 824.765625 60 L 824.765625 411 L 512.015625 411 Z M 512.015625 60 " clip-rule="nonzero"/></clipPath><clipPath id="84cf7ae604"><path d="M 668 147 L 824.765625 147 L 824.765625 324 L 668 324 Z M 668 147 " clip-rule="nonzero"/></clipPath></defs><rect x="-90" width="1080" fill="#ffffff" y="-47.099999" height="565.199986" fill-opacity="1"/><rect x="-90" width="1080" fill="#1a4674" y="-47.099999" height="565.199986" fill-opacity="1"/><g clip-path="url(#7b68fde6eb)"><g clip-path="url(#5da05261c2)"><path fill="#ffa100" d="M 464.234375 31.324219 L 872.585938 31.324219 L 872.585938 439.675781 L 464.234375 439.675781 Z M 464.234375 31.324219 " fill-opacity="1" fill-rule="nonzero"/></g></g><g clip-path="url(#57331f8f54)"><path fill="#5c8dbc" d="M 824.277344 163.355469 C 824.277344 157.460938 823.007812 152.253906 820.457031 147.78125 C 817.957031 143.386719 814.210938 139.703125 809.183594 136.789062 C 767.664062 112.851562 726.125 88.980469 684.617188 65.015625 C 673.429688 58.558594 662.582031 58.792969 651.480469 65.347656 C 634.960938 75.09375 552.230469 122.496094 527.570312 136.777344 C 517.425781 142.65625 512.484375 151.652344 512.484375 163.34375 C 512.46875 211.492188 512.484375 259.632812 512.46875 307.785156 C 512.46875 313.546875 513.675781 318.648438 516.113281 323.050781 C 518.617188 327.578125 522.417969 331.375 527.566406 334.351562 C 552.21875 348.628906 634.949219 396.023438 651.472656 405.773438 C 662.585938 412.339844 673.433594 412.570312 684.621094 406.101562 C 726.128906 382.136719 767.683594 358.269531 809.203125 334.339844 C 814.351562 331.363281 818.144531 327.566406 820.65625 323.039062 C 823.085938 318.648438 824.292969 313.535156 824.292969 307.761719 C 824.292969 307.761719 824.292969 211.507812 824.28125 163.355469 " fill-opacity="1" fill-rule="nonzero"/></g><path fill="#1a4674" d="M 668.855469 235.09375 L 516.117188 323.050781 C 518.617188 327.578125 522.417969 331.371094 527.566406 334.351562 C 552.21875 348.628906 634.949219 396.023438 651.472656 405.773438 C 662.585938 412.335938 673.433594 412.570312 684.621094 406.101562 C 726.128906 382.136719 767.683594 358.269531 809.203125 334.339844 C 814.351562 331.359375 818.144531 327.566406 820.65625 323.039062 L 668.859375 235.09375 " fill-opacity="1" fill-rule="nonzero"/><path fill="#1a4674" d="M 623.617188 261.144531 C 632.503906 276.667969 649.210938 287.136719 668.378906 287.136719 C 687.667969 287.136719 704.46875 276.535156 713.3125 260.855469 L 668.855469 235.09375 L 623.617188 261.144531 " fill-opacity="1" fill-rule="nonzero"/><g clip-path="url(#84cf7ae604)"><path fill="#1b598e" d="M 824.277344 163.355469 C 824.277344 157.460938 823.007812 152.253906 820.457031 147.78125 L 668.855469 235.09375 L 820.652344 323.039062 C 823.082031 318.644531 824.289062 313.53125 824.289062 307.761719 C 824.289062 307.761719 824.289062 211.507812 824.277344 163.355469 " fill-opacity="1" fill-rule="nonzero"/></g><path fill="#ffffff" d="M 815.929688 241.378906 L 804.070312 241.378906 L 804.070312 253.238281 L 792.199219 253.238281 L 792.199219 241.378906 L 780.34375 241.378906 L 780.34375 229.515625 L 792.199219 229.515625 L 792.199219 217.65625 L 804.070312 217.65625 L 804.070312 229.515625 L 815.929688 229.515625 L 815.929688 241.378906 " fill-opacity="1" fill-rule="nonzero"/><path fill="#ffffff" d="M 772.644531 241.378906 L 760.785156 241.378906 L 760.785156 253.238281 L 748.925781 253.238281 L 748.925781 241.378906 L 737.066406 241.378906 L 737.066406 229.515625 L 748.925781 229.515625 L 748.925781 217.65625 L 760.785156 217.65625 L 760.785156 229.515625 L 772.644531 229.515625 L 772.644531 241.378906 " fill-opacity="1" fill-rule="nonzero"/><path fill="#ffffff" d="M 713.3125 260.855469 C 704.46875 276.535156 687.667969 287.136719 668.378906 287.136719 C 649.210938 287.136719 632.503906 276.667969 623.617188 261.144531 C 619.296875 253.605469 616.816406 244.878906 616.816406 235.558594 C 616.816406 207.078125 639.902344 183.988281 668.378906 183.988281 C 687.421875 183.988281 704.039062 194.324219 712.972656 209.6875 L 758.039062 183.734375 C 740.128906 152.800781 706.6875 131.992188 668.378906 131.992188 C 611.1875 131.992188 564.828125 178.363281 564.828125 235.558594 C 564.828125 254.324219 569.820312 271.921875 578.542969 287.101562 C 596.410156 318.195312 629.953125 339.132812 668.378906 339.132812 C 706.882812 339.132812 740.472656 318.109375 758.308594 286.929688 L 713.3125 260.855469 " fill-opacity="1" fill-rule="nonzero"/><g fill="#ffffff" fill-opacity="1"><g transform="translate(46.041136, 208.690181)"><g><path d="M 12.0625 -18.890625 L 14.546875 -18.890625 C 16.878906 -18.890625 18.625 -19.347656 19.78125 -20.265625 C 20.9375 -21.191406 21.515625 -22.535156 21.515625 -24.296875 C 21.515625 -26.066406 21.03125 -27.375 20.0625 -28.21875 C 19.09375 -29.070312 17.570312 -29.5 15.5 -29.5 L 12.0625 -29.5 Z M 29.15625 -24.5625 C 29.15625 -20.71875 27.953125 -17.78125 25.546875 -15.75 C 23.148438 -13.71875 19.738281 -12.703125 15.3125 -12.703125 L 12.0625 -12.703125 L 12.0625 0 L 4.5 0 L 4.5 -35.6875 L 15.890625 -35.6875 C 20.222656 -35.6875 23.515625 -34.753906 25.765625 -32.890625 C 28.023438 -31.035156 29.15625 -28.257812 29.15625 -24.5625 Z M 29.15625 -24.5625 "/></g></g></g><g fill="#ffffff" fill-opacity="1"><g transform="translate(77.432712, 208.690181)"><g><path d="M 19.140625 -27.8125 C 20.148438 -27.8125 20.988281 -27.738281 21.65625 -27.59375 L 21.09375 -20.609375 C 20.488281 -20.765625 19.753906 -20.84375 18.890625 -20.84375 C 16.515625 -20.84375 14.664062 -20.234375 13.34375 -19.015625 C 12.019531 -17.796875 11.359375 -16.085938 11.359375 -13.890625 L 11.359375 0 L 3.90625 0 L 3.90625 -27.296875 L 9.546875 -27.296875 L 10.640625 -22.703125 L 11.015625 -22.703125 C 11.859375 -24.234375 13 -25.46875 14.4375 -26.40625 C 15.882812 -27.34375 17.453125 -27.8125 19.140625 -27.8125 Z M 19.140625 -27.8125 "/></g></g></g><g fill="#ffffff" fill-opacity="1"><g transform="translate(100.134241, 208.690181)"><g><path d="M 9.84375 -13.703125 C 9.84375 -10.992188 10.285156 -8.945312 11.171875 -7.5625 C 12.054688 -6.1875 13.5 -5.5 15.5 -5.5 C 17.488281 -5.5 18.914062 -6.1875 19.78125 -7.5625 C 20.65625 -8.9375 21.09375 -10.984375 21.09375 -13.703125 C 21.09375 -16.398438 20.648438 -18.421875 19.765625 -19.765625 C 18.890625 -21.117188 17.453125 -21.796875 15.453125 -21.796875 C 13.460938 -21.796875 12.03125 -21.125 11.15625 -19.78125 C 10.28125 -18.445312 9.84375 -16.421875 9.84375 -13.703125 Z M 28.71875 -13.703125 C 28.71875 -9.253906 27.546875 -5.773438 25.203125 -3.265625 C 22.859375 -0.765625 19.59375 0.484375 15.40625 0.484375 C 12.78125 0.484375 10.46875 -0.0859375 8.46875 -1.234375 C 6.46875 -2.378906 4.929688 -4.023438 3.859375 -6.171875 C 2.785156 -8.328125 2.25 -10.835938 2.25 -13.703125 C 2.25 -18.160156 3.410156 -21.625 5.734375 -24.09375 C 8.066406 -26.570312 11.335938 -27.8125 15.546875 -27.8125 C 18.171875 -27.8125 20.484375 -27.238281 22.484375 -26.09375 C 24.484375 -24.957031 26.019531 -23.320312 27.09375 -21.1875 C 28.175781 -19.0625 28.71875 -16.566406 28.71875 -13.703125 Z M 28.71875 -13.703125 "/></g></g></g><g fill="#ffffff" fill-opacity="1"><g transform="translate(131.086433, 208.690181)"><g><path d="M 27.65625 -27.296875 L 27.65625 -23.515625 L 23.390625 -22.40625 C 24.171875 -21.1875 24.5625 -19.820312 24.5625 -18.3125 C 24.5625 -15.382812 23.539062 -13.101562 21.5 -11.46875 C 19.457031 -9.832031 16.617188 -9.015625 12.984375 -9.015625 L 11.640625 -9.078125 L 10.546875 -9.203125 C 9.785156 -8.617188 9.40625 -7.96875 9.40625 -7.25 C 9.40625 -6.175781 10.769531 -5.640625 13.5 -5.640625 L 18.140625 -5.640625 C 21.128906 -5.640625 23.410156 -4.992188 24.984375 -3.703125 C 26.554688 -2.421875 27.34375 -0.535156 27.34375 1.953125 C 27.34375 5.140625 26.007812 7.613281 23.34375 9.375 C 20.6875 11.132812 16.867188 12.015625 11.890625 12.015625 C 8.078125 12.015625 5.164062 11.347656 3.15625 10.015625 C 1.144531 8.691406 0.140625 6.832031 0.140625 4.4375 C 0.140625 2.800781 0.648438 1.425781 1.671875 0.3125 C 2.703125 -0.789062 4.210938 -1.578125 6.203125 -2.046875 C 5.429688 -2.378906 4.757812 -2.914062 4.1875 -3.65625 C 3.625 -4.394531 3.34375 -5.175781 3.34375 -6 C 3.34375 -7.039062 3.644531 -7.90625 4.25 -8.59375 C 4.851562 -9.289062 5.722656 -9.972656 6.859375 -10.640625 C 5.429688 -11.265625 4.296875 -12.257812 3.453125 -13.625 C 2.617188 -14.988281 2.203125 -16.597656 2.203125 -18.453125 C 2.203125 -21.429688 3.171875 -23.734375 5.109375 -25.359375 C 7.046875 -26.992188 9.8125 -27.8125 13.40625 -27.8125 C 14.164062 -27.8125 15.070312 -27.738281 16.125 -27.59375 C 17.175781 -27.457031 17.847656 -27.359375 18.140625 -27.296875 Z M 6.59375 3.859375 C 6.59375 4.878906 7.082031 5.679688 8.0625 6.265625 C 9.050781 6.859375 10.429688 7.15625 12.203125 7.15625 C 14.878906 7.15625 16.972656 6.785156 18.484375 6.046875 C 19.992188 5.316406 20.75 4.316406 20.75 3.046875 C 20.75 2.023438 20.300781 1.316406 19.40625 0.921875 C 18.507812 0.535156 17.128906 0.34375 15.265625 0.34375 L 11.40625 0.34375 C 10.03125 0.34375 8.882812 0.660156 7.96875 1.296875 C 7.050781 1.941406 6.59375 2.796875 6.59375 3.859375 Z M 9.296875 -18.359375 C 9.296875 -16.878906 9.632812 -15.707031 10.3125 -14.84375 C 10.988281 -13.976562 12.019531 -13.546875 13.40625 -13.546875 C 14.800781 -13.546875 15.820312 -13.976562 16.46875 -14.84375 C 17.125 -15.707031 17.453125 -16.878906 17.453125 -18.359375 C 17.453125 -21.648438 16.101562 -23.296875 13.40625 -23.296875 C 10.664062 -23.296875 9.296875 -21.648438 9.296875 -18.359375 Z M 9.296875 -18.359375 "/></g></g></g><g fill="#ffffff" fill-opacity="1"><g transform="translate(159.329088, 208.690181)"><g><path d="M 19.140625 -27.8125 C 20.148438 -27.8125 20.988281 -27.738281 21.65625 -27.59375 L 21.09375 -20.609375 C 20.488281 -20.765625 19.753906 -20.84375 18.890625 -20.84375 C 16.515625 -20.84375 14.664062 -20.234375 13.34375 -19.015625 C 12.019531 -17.796875 11.359375 -16.085938 11.359375 -13.890625 L 11.359375 0 L 3.90625 0 L 3.90625 -27.296875 L 9.546875 -27.296875 L 10.640625 -22.703125 L 11.015625 -22.703125 C 11.859375 -24.234375 13 -25.46875 14.4375 -26.40625 C 15.882812 -27.34375 17.453125 -27.8125 19.140625 -27.8125 Z M 19.140625 -27.8125 "/></g></g></g><g fill="#ffffff" fill-opacity="1"><g transform="translate(182.030617, 208.690181)"><g><path d="M 21.234375 0 L 19.796875 -3.71875 L 19.609375 -3.71875 C 18.347656 -2.132812 17.054688 -1.035156 15.734375 -0.421875 C 14.410156 0.179688 12.679688 0.484375 10.546875 0.484375 C 7.921875 0.484375 5.851562 -0.257812 4.34375 -1.75 C 2.84375 -3.25 2.09375 -5.382812 2.09375 -8.15625 C 2.09375 -11.050781 3.101562 -13.1875 5.125 -14.5625 C 7.15625 -15.9375 10.21875 -16.695312 14.3125 -16.84375 L 19.046875 -17 L 19.046875 -18.1875 C 19.046875 -20.957031 17.628906 -22.34375 14.796875 -22.34375 C 12.617188 -22.34375 10.054688 -21.679688 7.109375 -20.359375 L 4.640625 -25.390625 C 7.773438 -27.035156 11.257812 -27.859375 15.09375 -27.859375 C 18.75 -27.859375 21.550781 -27.0625 23.5 -25.46875 C 25.457031 -23.875 26.4375 -21.445312 26.4375 -18.1875 L 26.4375 0 Z M 19.046875 -12.640625 L 16.15625 -12.546875 C 14 -12.484375 12.390625 -12.09375 11.328125 -11.375 C 10.265625 -10.65625 9.734375 -9.566406 9.734375 -8.109375 C 9.734375 -6.003906 10.941406 -4.953125 13.359375 -4.953125 C 15.078125 -4.953125 16.453125 -5.445312 17.484375 -6.4375 C 18.523438 -7.4375 19.046875 -8.757812 19.046875 -10.40625 Z M 19.046875 -12.640625 "/></g></g></g><g fill="#ffffff" fill-opacity="1"><g transform="translate(212.226091, 208.690181)"><g><path d="M 28.34375 0 L 20.90625 0 L 20.90625 -15.9375 C 20.90625 -17.90625 20.570312 -19.378906 19.90625 -20.359375 C 19.25 -21.347656 18.210938 -21.84375 16.796875 -21.84375 C 14.890625 -21.84375 13.503906 -21.144531 12.640625 -19.75 C 11.785156 -18.351562 11.359375 -16.050781 11.359375 -12.84375 L 11.359375 0 L 3.90625 0 L 3.90625 -27.296875 L 9.59375 -27.296875 L 10.59375 -23.796875 L 11.015625 -23.796875 C 11.742188 -25.054688 12.800781 -26.039062 14.1875 -26.75 C 15.570312 -27.457031 17.160156 -27.8125 18.953125 -27.8125 C 23.035156 -27.8125 25.800781 -26.472656 27.25 -23.796875 L 27.90625 -23.796875 C 28.632812 -25.066406 29.710938 -26.050781 31.140625 -26.75 C 32.566406 -27.457031 34.175781 -27.8125 35.96875 -27.8125 C 39.050781 -27.8125 41.382812 -27.015625 42.96875 -25.421875 C 44.5625 -23.835938 45.359375 -21.296875 45.359375 -17.796875 L 45.359375 0 L 37.890625 0 L 37.890625 -15.9375 C 37.890625 -17.90625 37.554688 -19.378906 36.890625 -20.359375 C 36.234375 -21.347656 35.203125 -21.84375 33.796875 -21.84375 C 31.972656 -21.84375 30.609375 -21.191406 29.703125 -19.890625 C 28.796875 -18.585938 28.34375 -16.523438 28.34375 -13.703125 Z M 28.34375 0 "/></g></g></g><g fill="#ffffff" fill-opacity="1"><g transform="translate(261.315107, 208.690181)"><g><path d="M 28.34375 0 L 20.90625 0 L 20.90625 -15.9375 C 20.90625 -17.90625 20.570312 -19.378906 19.90625 -20.359375 C 19.25 -21.347656 18.210938 -21.84375 16.796875 -21.84375 C 14.890625 -21.84375 13.503906 -21.144531 12.640625 -19.75 C 11.785156 -18.351562 11.359375 -16.050781 11.359375 -12.84375 L 11.359375 0 L 3.90625 0 L 3.90625 -27.296875 L 9.59375 -27.296875 L 10.59375 -23.796875 L 11.015625 -23.796875 C 11.742188 -25.054688 12.800781 -26.039062 14.1875 -26.75 C 15.570312 -27.457031 17.160156 -27.8125 18.953125 -27.8125 C 23.035156 -27.8125 25.800781 -26.472656 27.25 -23.796875 L 27.90625 -23.796875 C 28.632812 -25.066406 29.710938 -26.050781 31.140625 -26.75 C 32.566406 -27.457031 34.175781 -27.8125 35.96875 -27.8125 C 39.050781 -27.8125 41.382812 -27.015625 42.96875 -25.421875 C 44.5625 -23.835938 45.359375 -21.296875 45.359375 -17.796875 L 45.359375 0 L 37.890625 0 L 37.890625 -15.9375 C 37.890625 -17.90625 37.554688 -19.378906 36.890625 -20.359375 C 36.234375 -21.347656 35.203125 -21.84375 33.796875 -21.84375 C 31.972656 -21.84375 30.609375 -21.191406 29.703125 -19.890625 C 28.796875 -18.585938 28.34375 -16.523438 28.34375 -13.703125 Z M 28.34375 0 "/></g></g></g><g fill="#ffffff" fill-opacity="1"><g transform="translate(310.404101, 208.690181)"><g><path d="M 3.59375 -34.34375 C 3.59375 -36.769531 4.941406 -37.984375 7.640625 -37.984375 C 10.335938 -37.984375 11.6875 -36.769531 11.6875 -34.34375 C 11.6875 -33.195312 11.347656 -32.300781 10.671875 -31.65625 C 10.003906 -31.007812 8.992188 -30.6875 7.640625 -30.6875 C 4.941406 -30.6875 3.59375 -31.90625 3.59375 -34.34375 Z M 11.359375 0 L 3.90625 0 L 3.90625 -27.296875 L 11.359375 -27.296875 Z M 11.359375 0 "/></g></g></g><g fill="#ffffff" fill-opacity="1"><g transform="translate(325.660516, 208.690181)"><g><path d="M 29.109375 0 L 21.65625 0 L 21.65625 -15.9375 C 21.65625 -17.90625 21.304688 -19.378906 20.609375 -20.359375 C 19.910156 -21.347656 18.796875 -21.84375 17.265625 -21.84375 C 15.179688 -21.84375 13.675781 -21.144531 12.75 -19.75 C 11.820312 -18.363281 11.359375 -16.0625 11.359375 -12.84375 L 11.359375 0 L 3.90625 0 L 3.90625 -27.296875 L 9.59375 -27.296875 L 10.59375 -23.796875 L 11.015625 -23.796875 C 11.835938 -25.117188 12.976562 -26.117188 14.4375 -26.796875 C 15.894531 -27.472656 17.550781 -27.8125 19.40625 -27.8125 C 22.582031 -27.8125 24.992188 -26.953125 26.640625 -25.234375 C 28.285156 -23.515625 29.109375 -21.035156 29.109375 -17.796875 Z M 29.109375 0 "/></g></g></g><g fill="#ffffff" fill-opacity="1"><g transform="translate(358.516685, 208.690181)"><g><path d="M 27.65625 -27.296875 L 27.65625 -23.515625 L 23.390625 -22.40625 C 24.171875 -21.1875 24.5625 -19.820312 24.5625 -18.3125 C 24.5625 -15.382812 23.539062 -13.101562 21.5 -11.46875 C 19.457031 -9.832031 16.617188 -9.015625 12.984375 -9.015625 L 11.640625 -9.078125 L 10.546875 -9.203125 C 9.785156 -8.617188 9.40625 -7.96875 9.40625 -7.25 C 9.40625 -6.175781 10.769531 -5.640625 13.5 -5.640625 L 18.140625 -5.640625 C 21.128906 -5.640625 23.410156 -4.992188 24.984375 -3.703125 C 26.554688 -2.421875 27.34375 -0.535156 27.34375 1.953125 C 27.34375 5.140625 26.007812 7.613281 23.34375 9.375 C 20.6875 11.132812 16.867188 12.015625 11.890625 12.015625 C 8.078125 12.015625 5.164062 11.347656 3.15625 10.015625 C 1.144531 8.691406 0.140625 6.832031 0.140625 4.4375 C 0.140625 2.800781 0.648438 1.425781 1.671875 0.3125 C 2.703125 -0.789062 4.210938 -1.578125 6.203125 -2.046875 C 5.429688 -2.378906 4.757812 -2.914062 4.1875 -3.65625 C 3.625 -4.394531 3.34375 -5.175781 3.34375 -6 C 3.34375 -7.039062 3.644531 -7.90625 4.25 -8.59375 C 4.851562 -9.289062 5.722656 -9.972656 6.859375 -10.640625 C 5.429688 -11.265625 4.296875 -12.257812 3.453125 -13.625 C 2.617188 -14.988281 2.203125 -16.597656 2.203125 -18.453125 C 2.203125 -21.429688 3.171875 -23.734375 5.109375 -25.359375 C 7.046875 -26.992188 9.8125 -27.8125 13.40625 -27.8125 C 14.164062 -27.8125 15.070312 -27.738281 16.125 -27.59375 C 17.175781 -27.457031 17.847656 -27.359375 18.140625 -27.296875 Z M 6.59375 3.859375 C 6.59375 4.878906 7.082031 5.679688 8.0625 6.265625 C 9.050781 6.859375 10.429688 7.15625 12.203125 7.15625 C 14.878906 7.15625 16.972656 6.785156 18.484375 6.046875 C 19.992188 5.316406 20.75 4.316406 20.75 3.046875 C 20.75 2.023438 20.300781 1.316406 19.40625 0.921875 C 18.507812 0.535156 17.128906 0.34375 15.265625 0.34375 L 11.40625 0.34375 C 10.03125 0.34375 8.882812 0.660156 7.96875 1.296875 C 7.050781 1.941406 6.59375 2.796875 6.59375 3.859375 Z M 9.296875 -18.359375 C 9.296875 -16.878906 9.632812 -15.707031 10.3125 -14.84375 C 10.988281 -13.976562 12.019531 -13.546875 13.40625 -13.546875 C 14.800781 -13.546875 15.820312 -13.976562 16.46875 -14.84375 C 17.125 -15.707031 17.453125 -16.878906 17.453125 -18.359375 C 17.453125 -21.648438 16.101562 -23.296875 13.40625 -23.296875 C 10.664062 -23.296875 9.296875 -21.648438 9.296875 -18.359375 Z M 9.296875 -18.359375 "/></g></g></g><g fill="#ffffff" fill-opacity="1"><g transform="translate(25.427856, 278.440177)"><g><path d="M 4.5 -35.6875 L 15.59375 -35.6875 C 20.65625 -35.6875 24.328125 -34.96875 26.609375 -33.53125 C 28.898438 -32.09375 30.046875 -29.800781 30.046875 -26.65625 C 30.046875 -24.53125 29.546875 -22.78125 28.546875 -21.40625 C 27.546875 -20.039062 26.21875 -19.222656 24.5625 -18.953125 L 24.5625 -18.703125 C 26.820312 -18.191406 28.453125 -17.242188 29.453125 -15.859375 C 30.453125 -14.484375 30.953125 -12.648438 30.953125 -10.359375 C 30.953125 -7.097656 29.773438 -4.554688 27.421875 -2.734375 C 25.078125 -0.910156 21.882812 0 17.84375 0 L 4.5 0 Z M 12.0625 -21.5625 L 16.453125 -21.5625 C 18.503906 -21.5625 19.988281 -21.878906 20.90625 -22.515625 C 21.832031 -23.148438 22.296875 -24.195312 22.296875 -25.65625 C 22.296875 -27.019531 21.789062 -28 20.78125 -28.59375 C 19.78125 -29.195312 18.203125 -29.5 16.046875 -29.5 L 12.0625 -29.5 Z M 12.0625 -15.546875 L 12.0625 -6.25 L 17 -6.25 C 19.082031 -6.25 20.617188 -6.644531 21.609375 -7.4375 C 22.597656 -8.238281 23.09375 -9.460938 23.09375 -11.109375 C 23.09375 -14.066406 20.976562 -15.546875 16.75 -15.546875 Z M 12.0625 -15.546875 "/></g></g></g><g fill="#ffffff" fill-opacity="1"><g transform="translate(59.016355, 278.440177)"><g><path d="M 21.234375 0 L 19.796875 -3.71875 L 19.609375 -3.71875 C 18.347656 -2.132812 17.054688 -1.035156 15.734375 -0.421875 C 14.410156 0.179688 12.679688 0.484375 10.546875 0.484375 C 7.921875 0.484375 5.851562 -0.257812 4.34375 -1.75 C 2.84375 -3.25 2.09375 -5.382812 2.09375 -8.15625 C 2.09375 -11.050781 3.101562 -13.1875 5.125 -14.5625 C 7.15625 -15.9375 10.21875 -16.695312 14.3125 -16.84375 L 19.046875 -17 L 19.046875 -18.1875 C 19.046875 -20.957031 17.628906 -22.34375 14.796875 -22.34375 C 12.617188 -22.34375 10.054688 -21.679688 7.109375 -20.359375 L 4.640625 -25.390625 C 7.773438 -27.035156 11.257812 -27.859375 15.09375 -27.859375 C 18.75 -27.859375 21.550781 -27.0625 23.5 -25.46875 C 25.457031 -23.875 26.4375 -21.445312 26.4375 -18.1875 L 26.4375 0 Z M 19.046875 -12.640625 L 16.15625 -12.546875 C 14 -12.484375 12.390625 -12.09375 11.328125 -11.375 C 10.265625 -10.65625 9.734375 -9.566406 9.734375 -8.109375 C 9.734375 -6.003906 10.941406 -4.953125 13.359375 -4.953125 C 15.078125 -4.953125 16.453125 -5.445312 17.484375 -6.4375 C 18.523438 -7.4375 19.046875 -8.757812 19.046875 -10.40625 Z M 19.046875 -12.640625 "/></g></g></g><g fill="#ffffff" fill-opacity="1"><g transform="translate(89.211829, 278.440177)"><g><path d="M 22.953125 -8.109375 C 22.953125 -5.304688 21.976562 -3.171875 20.03125 -1.703125 C 18.082031 -0.242188 15.171875 0.484375 11.296875 0.484375 C 9.316406 0.484375 7.625 0.347656 6.21875 0.078125 C 4.820312 -0.179688 3.515625 -0.570312 2.296875 -1.09375 L 2.296875 -7.25 C 3.679688 -6.601562 5.238281 -6.054688 6.96875 -5.609375 C 8.707031 -5.171875 10.234375 -4.953125 11.546875 -4.953125 C 14.242188 -4.953125 15.59375 -5.734375 15.59375 -7.296875 C 15.59375 -7.878906 15.414062 -8.351562 15.0625 -8.71875 C 14.707031 -9.09375 14.085938 -9.507812 13.203125 -9.96875 C 12.328125 -10.4375 11.15625 -10.976562 9.6875 -11.59375 C 7.59375 -12.476562 6.050781 -13.289062 5.0625 -14.03125 C 4.082031 -14.78125 3.367188 -15.640625 2.921875 -16.609375 C 2.472656 -17.578125 2.25 -18.769531 2.25 -20.1875 C 2.25 -22.613281 3.1875 -24.488281 5.0625 -25.8125 C 6.945312 -27.144531 9.613281 -27.8125 13.0625 -27.8125 C 16.351562 -27.8125 19.550781 -27.09375 22.65625 -25.65625 L 20.40625 -20.28125 C 19.039062 -20.875 17.765625 -21.359375 16.578125 -21.734375 C 15.390625 -22.109375 14.175781 -22.296875 12.9375 -22.296875 C 10.738281 -22.296875 9.640625 -21.703125 9.640625 -20.515625 C 9.640625 -19.835938 9.992188 -19.253906 10.703125 -18.765625 C 11.410156 -18.285156 12.960938 -17.566406 15.359375 -16.609375 C 17.492188 -15.742188 19.054688 -14.9375 20.046875 -14.1875 C 21.035156 -13.4375 21.765625 -12.570312 22.234375 -11.59375 C 22.710938 -10.613281 22.953125 -9.453125 22.953125 -8.109375 Z M 22.953125 -8.109375 "/></g></g></g><g fill="#ffffff" fill-opacity="1"><g transform="translate(114.06146, 278.440177)"><g><path d="M 3.59375 -34.34375 C 3.59375 -36.769531 4.941406 -37.984375 7.640625 -37.984375 C 10.335938 -37.984375 11.6875 -36.769531 11.6875 -34.34375 C 11.6875 -33.195312 11.347656 -32.300781 10.671875 -31.65625 C 10.003906 -31.007812 8.992188 -30.6875 7.640625 -30.6875 C 4.941406 -30.6875 3.59375 -31.90625 3.59375 -34.34375 Z M 11.359375 0 L 3.90625 0 L 3.90625 -27.296875 L 11.359375 -27.296875 Z M 11.359375 0 "/></g></g></g><g fill="#ffffff" fill-opacity="1"><g transform="translate(129.317863, 278.440177)"><g><path d="M 14.984375 0.484375 C 6.492188 0.484375 2.25 -4.175781 2.25 -13.5 C 2.25 -18.132812 3.40625 -21.675781 5.71875 -24.125 C 8.03125 -26.582031 11.34375 -27.8125 15.65625 -27.8125 C 18.8125 -27.8125 21.640625 -27.191406 24.140625 -25.953125 L 21.953125 -20.1875 C 20.773438 -20.664062 19.679688 -21.050781 18.671875 -21.34375 C 17.660156 -21.644531 16.65625 -21.796875 15.65625 -21.796875 C 11.78125 -21.796875 9.84375 -19.046875 9.84375 -13.546875 C 9.84375 -8.210938 11.78125 -5.546875 15.65625 -5.546875 C 17.082031 -5.546875 18.40625 -5.734375 19.625 -6.109375 C 20.84375 -6.492188 22.066406 -7.09375 23.296875 -7.90625 L 23.296875 -1.53125 C 22.085938 -0.769531 20.867188 -0.242188 19.640625 0.046875 C 18.410156 0.335938 16.859375 0.484375 14.984375 0.484375 Z M 14.984375 0.484375 "/></g></g></g><g fill="#ffffff" fill-opacity="1"><g transform="translate(155.021853, 278.440177)"><g><path d="M 22.953125 -8.109375 C 22.953125 -5.304688 21.976562 -3.171875 20.03125 -1.703125 C 18.082031 -0.242188 15.171875 0.484375 11.296875 0.484375 C 9.316406 0.484375 7.625 0.347656 6.21875 0.078125 C 4.820312 -0.179688 3.515625 -0.570312 2.296875 -1.09375 L 2.296875 -7.25 C 3.679688 -6.601562 5.238281 -6.054688 6.96875 -5.609375 C 8.707031 -5.171875 10.234375 -4.953125 11.546875 -4.953125 C 14.242188 -4.953125 15.59375 -5.734375 15.59375 -7.296875 C 15.59375 -7.878906 15.414062 -8.351562 15.0625 -8.71875 C 14.707031 -9.09375 14.085938 -9.507812 13.203125 -9.96875 C 12.328125 -10.4375 11.15625 -10.976562 9.6875 -11.59375 C 7.59375 -12.476562 6.050781 -13.289062 5.0625 -14.03125 C 4.082031 -14.78125 3.367188 -15.640625 2.921875 -16.609375 C 2.472656 -17.578125 2.25 -18.769531 2.25 -20.1875 C 2.25 -22.613281 3.1875 -24.488281 5.0625 -25.8125 C 6.945312 -27.144531 9.613281 -27.8125 13.0625 -27.8125 C 16.351562 -27.8125 19.550781 -27.09375 22.65625 -25.65625 L 20.40625 -20.28125 C 19.039062 -20.875 17.765625 -21.359375 16.578125 -21.734375 C 15.390625 -22.109375 14.175781 -22.296875 12.9375 -22.296875 C 10.738281 -22.296875 9.640625 -21.703125 9.640625 -20.515625 C 9.640625 -19.835938 9.992188 -19.253906 10.703125 -18.765625 C 11.410156 -18.285156 12.960938 -17.566406 15.359375 -16.609375 C 17.492188 -15.742188 19.054688 -14.9375 20.046875 -14.1875 C 21.035156 -13.4375 21.765625 -12.570312 22.234375 -11.59375 C 22.710938 -10.613281 22.953125 -9.453125 22.953125 -8.109375 Z M 22.953125 -8.109375 "/></g></g></g><g fill="#ffffff" fill-opacity="1"><g transform="translate(179.871483, 278.440177)"><g/></g></g><g fill="#ffffff" fill-opacity="1"><g transform="translate(192.857734, 278.440177)"><g><path d="M 26.34375 0 L 24.25 -9.546875 L 21.40625 -21.609375 L 21.234375 -21.609375 L 16.265625 0 L 8.25 0 L 0.484375 -27.296875 L 7.90625 -27.296875 L 11.0625 -15.203125 C 11.5625 -13.046875 12.070312 -10.0625 12.59375 -6.25 L 12.75 -6.25 C 12.8125 -7.488281 13.09375 -9.453125 13.59375 -12.140625 L 13.984375 -14.203125 L 17.359375 -27.296875 L 25.5625 -27.296875 L 28.765625 -14.203125 C 28.828125 -13.847656 28.925781 -13.320312 29.0625 -12.625 C 29.195312 -11.925781 29.328125 -11.179688 29.453125 -10.390625 C 29.585938 -9.597656 29.707031 -8.820312 29.8125 -8.0625 C 29.925781 -7.3125 29.988281 -6.707031 30 -6.25 L 30.15625 -6.25 C 30.300781 -7.425781 30.5625 -9.035156 30.9375 -11.078125 C 31.3125 -13.117188 31.578125 -14.492188 31.734375 -15.203125 L 35.015625 -27.296875 L 42.3125 -27.296875 L 34.453125 0 Z M 26.34375 0 "/></g></g></g><g fill="#ffffff" fill-opacity="1"><g transform="translate(235.648896, 278.440177)"><g><path d="M 3.59375 -34.34375 C 3.59375 -36.769531 4.941406 -37.984375 7.640625 -37.984375 C 10.335938 -37.984375 11.6875 -36.769531 11.6875 -34.34375 C 11.6875 -33.195312 11.347656 -32.300781 10.671875 -31.65625 C 10.003906 -31.007812 8.992188 -30.6875 7.640625 -30.6875 C 4.941406 -30.6875 3.59375 -31.90625 3.59375 -34.34375 Z M 11.359375 0 L 3.90625 0 L 3.90625 -27.296875 L 11.359375 -27.296875 Z M 11.359375 0 "/></g></g></g><g fill="#ffffff" fill-opacity="1"><g transform="translate(250.905288, 278.440177)"><g><path d="M 15.40625 -5.4375 C 16.707031 -5.4375 18.269531 -5.722656 20.09375 -6.296875 L 20.09375 -0.75 C 18.238281 0.0703125 15.957031 0.484375 13.25 0.484375 C 10.28125 0.484375 8.113281 -0.265625 6.75 -1.765625 C 5.394531 -3.273438 4.71875 -5.535156 4.71875 -8.546875 L 4.71875 -21.703125 L 1.140625 -21.703125 L 1.140625 -24.859375 L 5.25 -27.34375 L 7.390625 -33.109375 L 12.15625 -33.109375 L 12.15625 -27.296875 L 19.796875 -27.296875 L 19.796875 -21.703125 L 12.15625 -21.703125 L 12.15625 -8.546875 C 12.15625 -7.484375 12.453125 -6.695312 13.046875 -6.1875 C 13.640625 -5.6875 14.425781 -5.4375 15.40625 -5.4375 Z M 15.40625 -5.4375 "/></g></g></g><g fill="#ffffff" fill-opacity="1"><g transform="translate(272.606009, 278.440177)"><g><path d="M 29.109375 0 L 21.65625 0 L 21.65625 -15.9375 C 21.65625 -19.875 20.191406 -21.84375 17.265625 -21.84375 C 15.179688 -21.84375 13.675781 -21.132812 12.75 -19.71875 C 11.820312 -18.3125 11.359375 -16.019531 11.359375 -12.84375 L 11.359375 0 L 3.90625 0 L 3.90625 -37.984375 L 11.359375 -37.984375 L 11.359375 -30.25 C 11.359375 -29.644531 11.300781 -28.226562 11.1875 -26 L 11.015625 -23.796875 L 11.40625 -23.796875 C 13.0625 -26.472656 15.695312 -27.8125 19.3125 -27.8125 C 22.519531 -27.8125 24.953125 -26.945312 26.609375 -25.21875 C 28.273438 -23.488281 29.109375 -21.015625 29.109375 -17.796875 Z M 29.109375 0 "/></g></g></g><g fill="#ffffff" fill-opacity="1"><g transform="translate(305.4622, 278.440177)"><g/></g></g><g fill="#ffffff" fill-opacity="1"><g transform="translate(318.44845, 278.440177)"><g><path d="M 19.65625 -29.90625 C 16.800781 -29.90625 14.59375 -28.832031 13.03125 -26.6875 C 11.46875 -24.550781 10.6875 -21.570312 10.6875 -17.75 C 10.6875 -9.789062 13.675781 -5.8125 19.65625 -5.8125 C 22.15625 -5.8125 25.191406 -6.4375 28.765625 -7.6875 L 28.765625 -1.34375 C 25.828125 -0.125 22.554688 0.484375 18.953125 0.484375 C 13.753906 0.484375 9.78125 -1.085938 7.03125 -4.234375 C 4.28125 -7.378906 2.90625 -11.898438 2.90625 -17.796875 C 2.90625 -21.503906 3.578125 -24.753906 4.921875 -27.546875 C 6.273438 -30.335938 8.21875 -32.476562 10.75 -33.96875 C 13.28125 -35.457031 16.25 -36.203125 19.65625 -36.203125 C 23.125 -36.203125 26.609375 -35.363281 30.109375 -33.6875 L 27.65625 -27.546875 C 26.320312 -28.171875 24.976562 -28.71875 23.625 -29.1875 C 22.28125 -29.664062 20.957031 -29.90625 19.65625 -29.90625 Z M 19.65625 -29.90625 "/></g></g></g><g fill="#ffffff" fill-opacity="1"><g transform="translate(350.30381, 278.440177)"><g><path d="M 11.59375 -14.9375 L 2.15625 -14.9375 L 2.15625 -20.28125 L 11.59375 -20.28125 L 11.59375 -29.8125 L 16.9375 -29.8125 L 16.9375 -20.28125 L 26.390625 -20.28125 L 26.390625 -14.9375 L 16.9375 -14.9375 L 16.9375 -5.546875 L 11.59375 -5.546875 Z M 11.59375 -14.9375 "/></g></g></g><g fill="#ffffff" fill-opacity="1"><g transform="translate(378.8394, 278.440177)"><g><path d="M 11.59375 -14.9375 L 2.15625 -14.9375 L 2.15625 -20.28125 L 11.59375 -20.28125 L 11.59375 -29.8125 L 16.9375 -29.8125 L 16.9375 -20.28125 L 26.390625 -20.28125 L 26.390625 -14.9375 L 16.9375 -14.9375 L 16.9375 -5.546875 L 11.59375 -5.546875 Z M 11.59375 -14.9375 "/></g></g></g></svg>