<svg xmlns="http://www.w3.org/2000/svg" xmlns:xlink="http://www.w3.org/1999/xlink" width="1200" zoomAndPan="magnify" viewBox="0 0 900 470.999988" height="628" preserveAspectRatio="xMidYMid meet" version="1.0"><defs><g/><clipPath id="dcfd3dacf9"><path d="M 464.234375 31.324219 L 872.585938 31.324219 L 872.585938 439.675781 L 464.234375 439.675781 Z M 464.234375 31.324219 " clip-rule="nonzero"/></clipPath><clipPath id="5b92b505e2"><path d="M 668.410156 31.324219 C 555.648438 31.324219 464.234375 122.738281 464.234375 235.5 C 464.234375 348.261719 555.648438 439.675781 668.410156 439.675781 C 781.175781 439.675781 872.585938 348.261719 872.585938 235.5 C 872.585938 122.738281 781.175781 31.324219 668.410156 31.324219 Z M 668.410156 31.324219 " clip-rule="nonzero"/></clipPath><clipPath id="9167c45dae"><path d="M 511.699219 73.667969 L 754 73.667969 L 754 316 L 511.699219 316 Z M 511.699219 73.667969 " clip-rule="nonzero"/></clipPath><clipPath id="fa960a0424"><path d="M 673.328125 73.628906 C 590.726562 73.628906 595.886719 109.480469 595.886719 109.480469 L 595.976562 146.621094 L 674.792969 146.621094 L 674.792969 157.769531 L 564.671875 157.769531 C 564.671875 157.769531 511.820312 151.773438 511.820312 235.183594 C 511.820312 318.597656 557.949219 315.640625 557.949219 315.640625 L 585.480469 315.640625 L 585.480469 276.929688 C 585.480469 276.929688 583.996094 230.757812 630.875 230.757812 L 709.050781 230.757812 C 709.050781 230.757812 752.964844 231.472656 752.964844 188.273438 L 752.964844 116.855469 C 752.964844 116.855469 759.640625 73.628906 673.328125 73.628906 L 673.328125 73.632812 Z M 629.863281 98.605469 C 637.703125 98.605469 644.039062 104.949219 644.039062 112.796875 C 644.039062 120.648438 637.703125 126.992188 629.863281 126.992188 C 622.019531 126.992188 615.683594 120.648438 615.683594 112.796875 C 615.683594 104.949219 622.019531 98.605469 629.863281 98.605469 Z M 629.863281 98.605469 " clip-rule="nonzero"/></clipPath><linearGradient x1="0.00416837" gradientTransform="matrix(241.265174, 0, 0, 242.022254, 511.819428, 73.630678)" y1="-0.00405728" x2="1.027757" gradientUnits="userSpaceOnUse" y2="1.01158" id="577c6f451a"><stop stop-opacity="1" stop-color="rgb(21.998596%, 49.398804%, 72.198486%)" offset="0"/><stop stop-opacity="1" stop-color="rgb(21.99707%, 49.383545%, 72.171021%)" offset="0.125"/><stop stop-opacity="1" stop-color="rgb(21.986389%, 49.269104%, 71.974182%)" offset="0.140625"/><stop stop-opacity="1" stop-color="rgb(21.966553%, 49.072266%, 71.633911%)" offset="0.15625"/><stop stop-opacity="1" stop-color="rgb(21.948242%, 48.875427%, 71.29364%)" offset="0.171875"/><stop stop-opacity="1" stop-color="rgb(21.928406%, 48.678589%, 70.953369%)" offset="0.1875"/><stop stop-opacity="1" stop-color="rgb(21.910095%, 48.48175%, 70.611572%)" offset="0.203125"/><stop stop-opacity="1" stop-color="rgb(21.890259%, 48.286438%, 70.271301%)" offset="0.21875"/><stop stop-opacity="1" stop-color="rgb(21.870422%, 48.0896%, 69.93103%)" offset="0.234375"/><stop stop-opacity="1" stop-color="rgb(21.852112%, 47.892761%, 69.590759%)" offset="0.25"/><stop stop-opacity="1" stop-color="rgb(21.832275%, 47.695923%, 69.250488%)" offset="0.265625"/><stop stop-opacity="1" stop-color="rgb(21.813965%, 47.499084%, 68.908691%)" offset="0.28125"/><stop stop-opacity="1" stop-color="rgb(21.794128%, 47.302246%, 68.56842%)" offset="0.296875"/><stop stop-opacity="1" stop-color="rgb(21.775818%, 47.105408%, 68.228149%)" offset="0.3125"/><stop stop-opacity="1" stop-color="rgb(21.755981%, 46.908569%, 67.887878%)" offset="0.328125"/><stop stop-opacity="1" stop-color="rgb(21.736145%, 46.711731%, 67.546082%)" offset="0.34375"/><stop stop-opacity="1" stop-color="rgb(21.717834%, 46.514893%, 67.205811%)" offset="0.359375"/><stop stop-opacity="1" stop-color="rgb(21.697998%, 46.31958%, 66.86554%)" offset="0.375"/><stop stop-opacity="1" stop-color="rgb(21.679688%, 46.122742%, 66.525269%)" offset="0.390625"/><stop stop-opacity="1" stop-color="rgb(21.659851%, 45.925903%, 66.184998%)" offset="0.40625"/><stop stop-opacity="1" stop-color="rgb(21.641541%, 45.729065%, 65.843201%)" offset="0.421875"/><stop stop-opacity="1" stop-color="rgb(21.621704%, 45.532227%, 65.50293%)" offset="0.4375"/><stop stop-opacity="1" stop-color="rgb(21.601868%, 45.335388%, 65.162659%)" offset="0.453125"/><stop stop-opacity="1" stop-color="rgb(21.583557%, 45.13855%, 64.822388%)" offset="0.46875"/><stop stop-opacity="1" stop-color="rgb(21.563721%, 44.941711%, 64.482117%)" offset="0.484375"/><stop stop-opacity="1" stop-color="rgb(21.54541%, 44.744873%, 64.14032%)" offset="0.494335"/><stop stop-opacity="1" stop-color="rgb(21.536255%, 44.647217%, 63.970947%)" offset="0.5"/><stop stop-opacity="1" stop-color="rgb(21.525574%, 44.548035%, 63.800049%)" offset="0.505665"/><stop stop-opacity="1" stop-color="rgb(21.516418%, 44.450378%, 63.630676%)" offset="0.515625"/><stop stop-opacity="1" stop-color="rgb(21.505737%, 44.352722%, 63.459778%)" offset="0.53125"/><stop stop-opacity="1" stop-color="rgb(21.487427%, 44.155884%, 63.119507%)" offset="0.546875"/><stop stop-opacity="1" stop-color="rgb(21.46759%, 43.959045%, 62.77771%)" offset="0.5625"/><stop stop-opacity="1" stop-color="rgb(21.44928%, 43.762207%, 62.437439%)" offset="0.578125"/><stop stop-opacity="1" stop-color="rgb(21.429443%, 43.565369%, 62.097168%)" offset="0.59375"/><stop stop-opacity="1" stop-color="rgb(21.411133%, 43.36853%, 61.756897%)" offset="0.609375"/><stop stop-opacity="1" stop-color="rgb(21.391296%, 43.171692%, 61.416626%)" offset="0.625"/><stop stop-opacity="1" stop-color="rgb(21.37146%, 42.974854%, 61.074829%)" offset="0.640625"/><stop stop-opacity="1" stop-color="rgb(21.353149%, 42.778015%, 60.734558%)" offset="0.65625"/><stop stop-opacity="1" stop-color="rgb(21.333313%, 42.582703%, 60.394287%)" offset="0.671875"/><stop stop-opacity="1" stop-color="rgb(21.315002%, 42.385864%, 60.054016%)" offset="0.6875"/><stop stop-opacity="1" stop-color="rgb(21.295166%, 42.189026%, 59.713745%)" offset="0.703125"/><stop stop-opacity="1" stop-color="rgb(21.276855%, 41.992188%, 59.371948%)" offset="0.71875"/><stop stop-opacity="1" stop-color="rgb(21.257019%, 41.795349%, 59.031677%)" offset="0.734375"/><stop stop-opacity="1" stop-color="rgb(21.237183%, 41.598511%, 58.691406%)" offset="0.75"/><stop stop-opacity="1" stop-color="rgb(21.218872%, 41.401672%, 58.351135%)" offset="0.765625"/><stop stop-opacity="1" stop-color="rgb(21.203613%, 41.25061%, 58.09021%)" offset="0.78125"/><stop stop-opacity="1" stop-color="rgb(21.199036%, 41.19873%, 57.998657%)" offset="0.8125"/><stop stop-opacity="1" stop-color="rgb(21.199036%, 41.19873%, 57.998657%)" offset="0.875"/><stop stop-opacity="1" stop-color="rgb(21.199036%, 41.19873%, 57.998657%)" offset="1"/></linearGradient><clipPath id="e6450babf4"><path d="M 595 155 L 837.199219 155 L 837.199219 397.667969 L 595 397.667969 Z M 595 155 " clip-rule="nonzero"/></clipPath><clipPath id="da62cef136"><path d="M 675.671875 397.578125 C 758.265625 397.578125 753.105469 361.722656 753.105469 361.722656 L 753.015625 324.578125 L 674.195312 324.578125 L 674.195312 313.433594 L 784.316406 313.433594 C 784.316406 313.433594 837.175781 319.425781 837.175781 236.023438 C 837.175781 152.609375 791.042969 155.566406 791.042969 155.566406 L 763.511719 155.566406 L 763.511719 194.273438 C 763.511719 194.273438 764.992188 240.449219 718.121094 240.449219 L 639.9375 240.449219 C 639.9375 240.449219 596.023438 239.734375 596.023438 282.933594 L 596.023438 354.351562 C 596.023438 354.351562 589.351562 397.578125 675.671875 397.578125 Z M 719.128906 372.597656 C 711.292969 372.597656 704.949219 366.246094 704.949219 358.40625 C 704.949219 350.550781 711.292969 344.214844 719.128906 344.214844 C 726.976562 344.214844 733.308594 350.550781 733.308594 358.40625 C 733.308594 366.246094 726.976562 372.597656 719.128906 372.597656 Z M 719.128906 372.597656 " clip-rule="nonzero"/></clipPath><linearGradient x1="-0.0326454" gradientTransform="matrix(241.272484, 0, 0, 242.023474, 595.902466, 155.553316)" y1="-0.00636603" x2="1.013978" gradientUnits="userSpaceOnUse" y2="0.985247" id="d224c52470"><stop stop-opacity="1" stop-color="rgb(100%, 87.799072%, 32.199097%)" offset="0"/><stop stop-opacity="1" stop-color="rgb(100%, 87.799072%, 32.199097%)" offset="0.125"/><stop stop-opacity="1" stop-color="rgb(100%, 87.799072%, 32.199097%)" offset="0.1875"/><stop stop-opacity="1" stop-color="rgb(100%, 87.759399%, 32.15332%)" offset="0.21875"/><stop stop-opacity="1" stop-color="rgb(100%, 87.590027%, 31.959534%)" offset="0.234375"/><stop stop-opacity="1" stop-color="rgb(100%, 87.332153%, 31.661987%)" offset="0.25"/><stop stop-opacity="1" stop-color="rgb(100%, 87.07428%, 31.365967%)" offset="0.265625"/><stop stop-opacity="1" stop-color="rgb(100%, 86.816406%, 31.06842%)" offset="0.28125"/><stop stop-opacity="1" stop-color="rgb(100%, 86.558533%, 30.7724%)" offset="0.296875"/><stop stop-opacity="1" stop-color="rgb(100%, 86.300659%, 30.474854%)" offset="0.3125"/><stop stop-opacity="1" stop-color="rgb(100%, 86.04126%, 30.177307%)" offset="0.328125"/><stop stop-opacity="1" stop-color="rgb(100%, 85.783386%, 29.881287%)" offset="0.34375"/><stop stop-opacity="1" stop-color="rgb(100%, 85.525513%, 29.58374%)" offset="0.359375"/><stop stop-opacity="1" stop-color="rgb(100%, 85.267639%, 29.28772%)" offset="0.375"/><stop stop-opacity="1" stop-color="rgb(100%, 85.009766%, 28.990173%)" offset="0.390625"/><stop stop-opacity="1" stop-color="rgb(100%, 84.751892%, 28.694153%)" offset="0.40625"/><stop stop-opacity="1" stop-color="rgb(100%, 84.494019%, 28.396606%)" offset="0.421875"/><stop stop-opacity="1" stop-color="rgb(100%, 84.236145%, 28.100586%)" offset="0.4375"/><stop stop-opacity="1" stop-color="rgb(100%, 83.978271%, 27.80304%)" offset="0.453125"/><stop stop-opacity="1" stop-color="rgb(100%, 83.720398%, 27.505493%)" offset="0.46875"/><stop stop-opacity="1" stop-color="rgb(100%, 83.460999%, 27.209473%)" offset="0.482837"/><stop stop-opacity="1" stop-color="rgb(100%, 83.332825%, 27.061462%)" offset="0.484375"/><stop stop-opacity="1" stop-color="rgb(100%, 83.203125%, 26.911926%)" offset="0.5"/><stop stop-opacity="1" stop-color="rgb(100%, 82.945251%, 26.615906%)" offset="0.515625"/><stop stop-opacity="1" stop-color="rgb(100%, 82.687378%, 26.318359%)" offset="0.517163"/><stop stop-opacity="1" stop-color="rgb(100%, 82.559204%, 26.170349%)" offset="0.53125"/><stop stop-opacity="1" stop-color="rgb(100%, 82.429504%, 26.022339%)" offset="0.546875"/><stop stop-opacity="1" stop-color="rgb(100%, 82.171631%, 25.724792%)" offset="0.5625"/><stop stop-opacity="1" stop-color="rgb(100%, 81.913757%, 25.428772%)" offset="0.578125"/><stop stop-opacity="1" stop-color="rgb(100%, 81.655884%, 25.131226%)" offset="0.59375"/><stop stop-opacity="1" stop-color="rgb(100%, 81.39801%, 24.835205%)" offset="0.609375"/><stop stop-opacity="1" stop-color="rgb(100%, 81.138611%, 24.537659%)" offset="0.625"/><stop stop-opacity="1" stop-color="rgb(100%, 80.880737%, 24.240112%)" offset="0.640625"/><stop stop-opacity="1" stop-color="rgb(100%, 80.622864%, 23.944092%)" offset="0.65625"/><stop stop-opacity="1" stop-color="rgb(100%, 80.36499%, 23.646545%)" offset="0.671875"/><stop stop-opacity="1" stop-color="rgb(100%, 80.107117%, 23.350525%)" offset="0.6875"/><stop stop-opacity="1" stop-color="rgb(100%, 79.849243%, 23.052979%)" offset="0.703125"/><stop stop-opacity="1" stop-color="rgb(100%, 79.59137%, 22.756958%)" offset="0.71875"/><stop stop-opacity="1" stop-color="rgb(100%, 79.333496%, 22.459412%)" offset="0.734375"/><stop stop-opacity="1" stop-color="rgb(100%, 79.075623%, 22.163391%)" offset="0.75"/><stop stop-opacity="1" stop-color="rgb(100%, 78.816223%, 21.865845%)" offset="0.765625"/><stop stop-opacity="1" stop-color="rgb(100%, 78.55835%, 21.568298%)" offset="0.78125"/><stop stop-opacity="1" stop-color="rgb(100%, 78.300476%, 21.272278%)" offset="0.796875"/><stop stop-opacity="1" stop-color="rgb(100%, 78.042603%, 20.974731%)" offset="0.8125"/><stop stop-opacity="1" stop-color="rgb(100%, 77.784729%, 20.678711%)" offset="0.828125"/><stop stop-opacity="1" stop-color="rgb(100%, 77.526855%, 20.381165%)" offset="0.84375"/><stop stop-opacity="1" stop-color="rgb(100%, 77.268982%, 20.085144%)" offset="0.859375"/><stop stop-opacity="1" stop-color="rgb(100%, 77.011108%, 19.787598%)" offset="0.875"/><stop stop-opacity="1" stop-color="rgb(100%, 76.753235%, 19.491577%)" offset="0.890625"/><stop stop-opacity="1" stop-color="rgb(100%, 76.560974%, 19.270325%)" offset="0.90625"/><stop stop-opacity="1" stop-color="rgb(100%, 76.499939%, 19.198608%)" offset="0.9375"/><stop stop-opacity="1" stop-color="rgb(100%, 76.499939%, 19.198608%)" offset="1"/></linearGradient></defs><rect x="-90" width="1080" fill="#ffffff" y="-47.099999" height="565.199986" fill-opacity="1"/><rect x="-90" width="1080" fill="#1a4674" y="-47.099999" height="565.199986" fill-opacity="1"/><g clip-path="url(#dcfd3dacf9)"><g clip-path="url(#5b92b505e2)"><path fill="#123254" d="M 464.234375 31.324219 L 872.585938 31.324219 L 872.585938 439.675781 L 464.234375 439.675781 Z M 464.234375 31.324219 " fill-opacity="1" fill-rule="nonzero"/></g></g><g fill="#ffffff" fill-opacity="1"><g transform="translate(43.370545, 184.874988)"><g><path d="M 12.0625 -18.890625 L 14.546875 -18.890625 C 16.878906 -18.890625 18.625 -19.347656 19.78125 -20.265625 C 20.9375 -21.191406 21.515625 -22.535156 21.515625 -24.296875 C 21.515625 -26.066406 21.03125 -27.375 20.0625 -28.21875 C 19.09375 -29.070312 17.570312 -29.5 15.5 -29.5 L 12.0625 -29.5 Z M 29.15625 -24.5625 C 29.15625 -20.71875 27.953125 -17.78125 25.546875 -15.75 C 23.148438 -13.71875 19.738281 -12.703125 15.3125 -12.703125 L 12.0625 -12.703125 L 12.0625 0 L 4.5 0 L 4.5 -35.6875 L 15.890625 -35.6875 C 20.222656 -35.6875 23.515625 -34.753906 25.765625 -32.890625 C 28.023438 -31.035156 29.15625 -28.257812 29.15625 -24.5625 Z M 29.15625 -24.5625 "/></g></g></g><g fill="#ffffff" fill-opacity="1"><g transform="translate(74.762121, 184.874988)"><g><path d="M 19.140625 -27.8125 C 20.148438 -27.8125 20.988281 -27.738281 21.65625 -27.59375 L 21.09375 -20.609375 C 20.488281 -20.765625 19.753906 -20.84375 18.890625 -20.84375 C 16.515625 -20.84375 14.664062 -20.234375 13.34375 -19.015625 C 12.019531 -17.796875 11.359375 -16.085938 11.359375 -13.890625 L 11.359375 0 L 3.90625 0 L 3.90625 -27.296875 L 9.546875 -27.296875 L 10.640625 -22.703125 L 11.015625 -22.703125 C 11.859375 -24.234375 13 -25.46875 14.4375 -26.40625 C 15.882812 -27.34375 17.453125 -27.8125 19.140625 -27.8125 Z M 19.140625 -27.8125 "/></g></g></g><g fill="#ffffff" fill-opacity="1"><g transform="translate(97.46365, 184.874988)"><g><path d="M 9.84375 -13.703125 C 9.84375 -10.992188 10.285156 -8.945312 11.171875 -7.5625 C 12.054688 -6.1875 13.5 -5.5 15.5 -5.5 C 17.488281 -5.5 18.914062 -6.1875 19.78125 -7.5625 C 20.65625 -8.9375 21.09375 -10.984375 21.09375 -13.703125 C 21.09375 -16.398438 20.648438 -18.421875 19.765625 -19.765625 C 18.890625 -21.117188 17.453125 -21.796875 15.453125 -21.796875 C 13.460938 -21.796875 12.03125 -21.125 11.15625 -19.78125 C 10.28125 -18.445312 9.84375 -16.421875 9.84375 -13.703125 Z M 28.71875 -13.703125 C 28.71875 -9.253906 27.546875 -5.773438 25.203125 -3.265625 C 22.859375 -0.765625 19.59375 0.484375 15.40625 0.484375 C 12.78125 0.484375 10.46875 -0.0859375 8.46875 -1.234375 C 6.46875 -2.378906 4.929688 -4.023438 3.859375 -6.171875 C 2.785156 -8.328125 2.25 -10.835938 2.25 -13.703125 C 2.25 -18.160156 3.410156 -21.625 5.734375 -24.09375 C 8.066406 -26.570312 11.335938 -27.8125 15.546875 -27.8125 C 18.171875 -27.8125 20.484375 -27.238281 22.484375 -26.09375 C 24.484375 -24.957031 26.019531 -23.320312 27.09375 -21.1875 C 28.175781 -19.0625 28.71875 -16.566406 28.71875 -13.703125 Z M 28.71875 -13.703125 "/></g></g></g><g fill="#ffffff" fill-opacity="1"><g transform="translate(128.415842, 184.874988)"><g><path d="M 27.65625 -27.296875 L 27.65625 -23.515625 L 23.390625 -22.40625 C 24.171875 -21.1875 24.5625 -19.820312 24.5625 -18.3125 C 24.5625 -15.382812 23.539062 -13.101562 21.5 -11.46875 C 19.457031 -9.832031 16.617188 -9.015625 12.984375 -9.015625 L 11.640625 -9.078125 L 10.546875 -9.203125 C 9.785156 -8.617188 9.40625 -7.96875 9.40625 -7.25 C 9.40625 -6.175781 10.769531 -5.640625 13.5 -5.640625 L 18.140625 -5.640625 C 21.128906 -5.640625 23.410156 -4.992188 24.984375 -3.703125 C 26.554688 -2.421875 27.34375 -0.535156 27.34375 1.953125 C 27.34375 5.140625 26.007812 7.613281 23.34375 9.375 C 20.6875 11.132812 16.867188 12.015625 11.890625 12.015625 C 8.078125 12.015625 5.164062 11.347656 3.15625 10.015625 C 1.144531 8.691406 0.140625 6.832031 0.140625 4.4375 C 0.140625 2.800781 0.648438 1.425781 1.671875 0.3125 C 2.703125 -0.789062 4.210938 -1.578125 6.203125 -2.046875 C 5.429688 -2.378906 4.757812 -2.914062 4.1875 -3.65625 C 3.625 -4.394531 3.34375 -5.175781 3.34375 -6 C 3.34375 -7.039062 3.644531 -7.90625 4.25 -8.59375 C 4.851562 -9.289062 5.722656 -9.972656 6.859375 -10.640625 C 5.429688 -11.265625 4.296875 -12.257812 3.453125 -13.625 C 2.617188 -14.988281 2.203125 -16.597656 2.203125 -18.453125 C 2.203125 -21.429688 3.171875 -23.734375 5.109375 -25.359375 C 7.046875 -26.992188 9.8125 -27.8125 13.40625 -27.8125 C 14.164062 -27.8125 15.070312 -27.738281 16.125 -27.59375 C 17.175781 -27.457031 17.847656 -27.359375 18.140625 -27.296875 Z M 6.59375 3.859375 C 6.59375 4.878906 7.082031 5.679688 8.0625 6.265625 C 9.050781 6.859375 10.429688 7.15625 12.203125 7.15625 C 14.878906 7.15625 16.972656 6.785156 18.484375 6.046875 C 19.992188 5.316406 20.75 4.316406 20.75 3.046875 C 20.75 2.023438 20.300781 1.316406 19.40625 0.921875 C 18.507812 0.535156 17.128906 0.34375 15.265625 0.34375 L 11.40625 0.34375 C 10.03125 0.34375 8.882812 0.660156 7.96875 1.296875 C 7.050781 1.941406 6.59375 2.796875 6.59375 3.859375 Z M 9.296875 -18.359375 C 9.296875 -16.878906 9.632812 -15.707031 10.3125 -14.84375 C 10.988281 -13.976562 12.019531 -13.546875 13.40625 -13.546875 C 14.800781 -13.546875 15.820312 -13.976562 16.46875 -14.84375 C 17.125 -15.707031 17.453125 -16.878906 17.453125 -18.359375 C 17.453125 -21.648438 16.101562 -23.296875 13.40625 -23.296875 C 10.664062 -23.296875 9.296875 -21.648438 9.296875 -18.359375 Z M 9.296875 -18.359375 "/></g></g></g><g fill="#ffffff" fill-opacity="1"><g transform="translate(156.658497, 184.874988)"><g><path d="M 19.140625 -27.8125 C 20.148438 -27.8125 20.988281 -27.738281 21.65625 -27.59375 L 21.09375 -20.609375 C 20.488281 -20.765625 19.753906 -20.84375 18.890625 -20.84375 C 16.515625 -20.84375 14.664062 -20.234375 13.34375 -19.015625 C 12.019531 -17.796875 11.359375 -16.085938 11.359375 -13.890625 L 11.359375 0 L 3.90625 0 L 3.90625 -27.296875 L 9.546875 -27.296875 L 10.640625 -22.703125 L 11.015625 -22.703125 C 11.859375 -24.234375 13 -25.46875 14.4375 -26.40625 C 15.882812 -27.34375 17.453125 -27.8125 19.140625 -27.8125 Z M 19.140625 -27.8125 "/></g></g></g><g fill="#ffffff" fill-opacity="1"><g transform="translate(179.360026, 184.874988)"><g><path d="M 21.234375 0 L 19.796875 -3.71875 L 19.609375 -3.71875 C 18.347656 -2.132812 17.054688 -1.035156 15.734375 -0.421875 C 14.410156 0.179688 12.679688 0.484375 10.546875 0.484375 C 7.921875 0.484375 5.851562 -0.257812 4.34375 -1.75 C 2.84375 -3.25 2.09375 -5.382812 2.09375 -8.15625 C 2.09375 -11.050781 3.101562 -13.1875 5.125 -14.5625 C 7.15625 -15.9375 10.21875 -16.695312 14.3125 -16.84375 L 19.046875 -17 L 19.046875 -18.1875 C 19.046875 -20.957031 17.628906 -22.34375 14.796875 -22.34375 C 12.617188 -22.34375 10.054688 -21.679688 7.109375 -20.359375 L 4.640625 -25.390625 C 7.773438 -27.035156 11.257812 -27.859375 15.09375 -27.859375 C 18.75 -27.859375 21.550781 -27.0625 23.5 -25.46875 C 25.457031 -23.875 26.4375 -21.445312 26.4375 -18.1875 L 26.4375 0 Z M 19.046875 -12.640625 L 16.15625 -12.546875 C 14 -12.484375 12.390625 -12.09375 11.328125 -11.375 C 10.265625 -10.65625 9.734375 -9.566406 9.734375 -8.109375 C 9.734375 -6.003906 10.941406 -4.953125 13.359375 -4.953125 C 15.078125 -4.953125 16.453125 -5.445312 17.484375 -6.4375 C 18.523438 -7.4375 19.046875 -8.757812 19.046875 -10.40625 Z M 19.046875 -12.640625 "/></g></g></g><g fill="#ffffff" fill-opacity="1"><g transform="translate(209.5555, 184.874988)"><g><path d="M 28.34375 0 L 20.90625 0 L 20.90625 -15.9375 C 20.90625 -17.90625 20.570312 -19.378906 19.90625 -20.359375 C 19.25 -21.347656 18.210938 -21.84375 16.796875 -21.84375 C 14.890625 -21.84375 13.503906 -21.144531 12.640625 -19.75 C 11.785156 -18.351562 11.359375 -16.050781 11.359375 -12.84375 L 11.359375 0 L 3.90625 0 L 3.90625 -27.296875 L 9.59375 -27.296875 L 10.59375 -23.796875 L 11.015625 -23.796875 C 11.742188 -25.054688 12.800781 -26.039062 14.1875 -26.75 C 15.570312 -27.457031 17.160156 -27.8125 18.953125 -27.8125 C 23.035156 -27.8125 25.800781 -26.472656 27.25 -23.796875 L 27.90625 -23.796875 C 28.632812 -25.066406 29.710938 -26.050781 31.140625 -26.75 C 32.566406 -27.457031 34.175781 -27.8125 35.96875 -27.8125 C 39.050781 -27.8125 41.382812 -27.015625 42.96875 -25.421875 C 44.5625 -23.835938 45.359375 -21.296875 45.359375 -17.796875 L 45.359375 0 L 37.890625 0 L 37.890625 -15.9375 C 37.890625 -17.90625 37.554688 -19.378906 36.890625 -20.359375 C 36.234375 -21.347656 35.203125 -21.84375 33.796875 -21.84375 C 31.972656 -21.84375 30.609375 -21.191406 29.703125 -19.890625 C 28.796875 -18.585938 28.34375 -16.523438 28.34375 -13.703125 Z M 28.34375 0 "/></g></g></g><g fill="#ffffff" fill-opacity="1"><g transform="translate(258.644516, 184.874988)"><g><path d="M 28.34375 0 L 20.90625 0 L 20.90625 -15.9375 C 20.90625 -17.90625 20.570312 -19.378906 19.90625 -20.359375 C 19.25 -21.347656 18.210938 -21.84375 16.796875 -21.84375 C 14.890625 -21.84375 13.503906 -21.144531 12.640625 -19.75 C 11.785156 -18.351562 11.359375 -16.050781 11.359375 -12.84375 L 11.359375 0 L 3.90625 0 L 3.90625 -27.296875 L 9.59375 -27.296875 L 10.59375 -23.796875 L 11.015625 -23.796875 C 11.742188 -25.054688 12.800781 -26.039062 14.1875 -26.75 C 15.570312 -27.457031 17.160156 -27.8125 18.953125 -27.8125 C 23.035156 -27.8125 25.800781 -26.472656 27.25 -23.796875 L 27.90625 -23.796875 C 28.632812 -25.066406 29.710938 -26.050781 31.140625 -26.75 C 32.566406 -27.457031 34.175781 -27.8125 35.96875 -27.8125 C 39.050781 -27.8125 41.382812 -27.015625 42.96875 -25.421875 C 44.5625 -23.835938 45.359375 -21.296875 45.359375 -17.796875 L 45.359375 0 L 37.890625 0 L 37.890625 -15.9375 C 37.890625 -17.90625 37.554688 -19.378906 36.890625 -20.359375 C 36.234375 -21.347656 35.203125 -21.84375 33.796875 -21.84375 C 31.972656 -21.84375 30.609375 -21.191406 29.703125 -19.890625 C 28.796875 -18.585938 28.34375 -16.523438 28.34375 -13.703125 Z M 28.34375 0 "/></g></g></g><g fill="#ffffff" fill-opacity="1"><g transform="translate(307.733532, 184.874988)"><g><path d="M 3.59375 -34.34375 C 3.59375 -36.769531 4.941406 -37.984375 7.640625 -37.984375 C 10.335938 -37.984375 11.6875 -36.769531 11.6875 -34.34375 C 11.6875 -33.195312 11.347656 -32.300781 10.671875 -31.65625 C 10.003906 -31.007812 8.992188 -30.6875 7.640625 -30.6875 C 4.941406 -30.6875 3.59375 -31.90625 3.59375 -34.34375 Z M 11.359375 0 L 3.90625 0 L 3.90625 -27.296875 L 11.359375 -27.296875 Z M 11.359375 0 "/></g></g></g><g fill="#ffffff" fill-opacity="1"><g transform="translate(322.989925, 184.874988)"><g><path d="M 29.109375 0 L 21.65625 0 L 21.65625 -15.9375 C 21.65625 -17.90625 21.304688 -19.378906 20.609375 -20.359375 C 19.910156 -21.347656 18.796875 -21.84375 17.265625 -21.84375 C 15.179688 -21.84375 13.675781 -21.144531 12.75 -19.75 C 11.820312 -18.363281 11.359375 -16.0625 11.359375 -12.84375 L 11.359375 0 L 3.90625 0 L 3.90625 -27.296875 L 9.59375 -27.296875 L 10.59375 -23.796875 L 11.015625 -23.796875 C 11.835938 -25.117188 12.976562 -26.117188 14.4375 -26.796875 C 15.894531 -27.472656 17.550781 -27.8125 19.40625 -27.8125 C 22.582031 -27.8125 24.992188 -26.953125 26.640625 -25.234375 C 28.285156 -23.515625 29.109375 -21.035156 29.109375 -17.796875 Z M 29.109375 0 "/></g></g></g><g fill="#ffffff" fill-opacity="1"><g transform="translate(355.846116, 184.874988)"><g><path d="M 27.65625 -27.296875 L 27.65625 -23.515625 L 23.390625 -22.40625 C 24.171875 -21.1875 24.5625 -19.820312 24.5625 -18.3125 C 24.5625 -15.382812 23.539062 -13.101562 21.5 -11.46875 C 19.457031 -9.832031 16.617188 -9.015625 12.984375 -9.015625 L 11.640625 -9.078125 L 10.546875 -9.203125 C 9.785156 -8.617188 9.40625 -7.96875 9.40625 -7.25 C 9.40625 -6.175781 10.769531 -5.640625 13.5 -5.640625 L 18.140625 -5.640625 C 21.128906 -5.640625 23.410156 -4.992188 24.984375 -3.703125 C 26.554688 -2.421875 27.34375 -0.535156 27.34375 1.953125 C 27.34375 5.140625 26.007812 7.613281 23.34375 9.375 C 20.6875 11.132812 16.867188 12.015625 11.890625 12.015625 C 8.078125 12.015625 5.164062 11.347656 3.15625 10.015625 C 1.144531 8.691406 0.140625 6.832031 0.140625 4.4375 C 0.140625 2.800781 0.648438 1.425781 1.671875 0.3125 C 2.703125 -0.789062 4.210938 -1.578125 6.203125 -2.046875 C 5.429688 -2.378906 4.757812 -2.914062 4.1875 -3.65625 C 3.625 -4.394531 3.34375 -5.175781 3.34375 -6 C 3.34375 -7.039062 3.644531 -7.90625 4.25 -8.59375 C 4.851562 -9.289062 5.722656 -9.972656 6.859375 -10.640625 C 5.429688 -11.265625 4.296875 -12.257812 3.453125 -13.625 C 2.617188 -14.988281 2.203125 -16.597656 2.203125 -18.453125 C 2.203125 -21.429688 3.171875 -23.734375 5.109375 -25.359375 C 7.046875 -26.992188 9.8125 -27.8125 13.40625 -27.8125 C 14.164062 -27.8125 15.070312 -27.738281 16.125 -27.59375 C 17.175781 -27.457031 17.847656 -27.359375 18.140625 -27.296875 Z M 6.59375 3.859375 C 6.59375 4.878906 7.082031 5.679688 8.0625 6.265625 C 9.050781 6.859375 10.429688 7.15625 12.203125 7.15625 C 14.878906 7.15625 16.972656 6.785156 18.484375 6.046875 C 19.992188 5.316406 20.75 4.316406 20.75 3.046875 C 20.75 2.023438 20.300781 1.316406 19.40625 0.921875 C 18.507812 0.535156 17.128906 0.34375 15.265625 0.34375 L 11.40625 0.34375 C 10.03125 0.34375 8.882812 0.660156 7.96875 1.296875 C 7.050781 1.941406 6.59375 2.796875 6.59375 3.859375 Z M 9.296875 -18.359375 C 9.296875 -16.878906 9.632812 -15.707031 10.3125 -14.84375 C 10.988281 -13.976562 12.019531 -13.546875 13.40625 -13.546875 C 14.800781 -13.546875 15.820312 -13.976562 16.46875 -14.84375 C 17.125 -15.707031 17.453125 -16.878906 17.453125 -18.359375 C 17.453125 -21.648438 16.101562 -23.296875 13.40625 -23.296875 C 10.664062 -23.296875 9.296875 -21.648438 9.296875 -18.359375 Z M 9.296875 -18.359375 "/></g></g></g><g fill="#ffffff" fill-opacity="1"><g transform="translate(73.710387, 254.624983)"><g><path d="M 4.5 -35.6875 L 15.59375 -35.6875 C 20.65625 -35.6875 24.328125 -34.96875 26.609375 -33.53125 C 28.898438 -32.09375 30.046875 -29.800781 30.046875 -26.65625 C 30.046875 -24.53125 29.546875 -22.78125 28.546875 -21.40625 C 27.546875 -20.039062 26.21875 -19.222656 24.5625 -18.953125 L 24.5625 -18.703125 C 26.820312 -18.191406 28.453125 -17.242188 29.453125 -15.859375 C 30.453125 -14.484375 30.953125 -12.648438 30.953125 -10.359375 C 30.953125 -7.097656 29.773438 -4.554688 27.421875 -2.734375 C 25.078125 -0.910156 21.882812 0 17.84375 0 L 4.5 0 Z M 12.0625 -21.5625 L 16.453125 -21.5625 C 18.503906 -21.5625 19.988281 -21.878906 20.90625 -22.515625 C 21.832031 -23.148438 22.296875 -24.195312 22.296875 -25.65625 C 22.296875 -27.019531 21.789062 -28 20.78125 -28.59375 C 19.78125 -29.195312 18.203125 -29.5 16.046875 -29.5 L 12.0625 -29.5 Z M 12.0625 -15.546875 L 12.0625 -6.25 L 17 -6.25 C 19.082031 -6.25 20.617188 -6.644531 21.609375 -7.4375 C 22.597656 -8.238281 23.09375 -9.460938 23.09375 -11.109375 C 23.09375 -14.066406 20.976562 -15.546875 16.75 -15.546875 Z M 12.0625 -15.546875 "/></g></g></g><g fill="#ffffff" fill-opacity="1"><g transform="translate(107.298885, 254.624983)"><g><path d="M 21.234375 0 L 19.796875 -3.71875 L 19.609375 -3.71875 C 18.347656 -2.132812 17.054688 -1.035156 15.734375 -0.421875 C 14.410156 0.179688 12.679688 0.484375 10.546875 0.484375 C 7.921875 0.484375 5.851562 -0.257812 4.34375 -1.75 C 2.84375 -3.25 2.09375 -5.382812 2.09375 -8.15625 C 2.09375 -11.050781 3.101562 -13.1875 5.125 -14.5625 C 7.15625 -15.9375 10.21875 -16.695312 14.3125 -16.84375 L 19.046875 -17 L 19.046875 -18.1875 C 19.046875 -20.957031 17.628906 -22.34375 14.796875 -22.34375 C 12.617188 -22.34375 10.054688 -21.679688 7.109375 -20.359375 L 4.640625 -25.390625 C 7.773438 -27.035156 11.257812 -27.859375 15.09375 -27.859375 C 18.75 -27.859375 21.550781 -27.0625 23.5 -25.46875 C 25.457031 -23.875 26.4375 -21.445312 26.4375 -18.1875 L 26.4375 0 Z M 19.046875 -12.640625 L 16.15625 -12.546875 C 14 -12.484375 12.390625 -12.09375 11.328125 -11.375 C 10.265625 -10.65625 9.734375 -9.566406 9.734375 -8.109375 C 9.734375 -6.003906 10.941406 -4.953125 13.359375 -4.953125 C 15.078125 -4.953125 16.453125 -5.445312 17.484375 -6.4375 C 18.523438 -7.4375 19.046875 -8.757812 19.046875 -10.40625 Z M 19.046875 -12.640625 "/></g></g></g><g fill="#ffffff" fill-opacity="1"><g transform="translate(137.49436, 254.624983)"><g><path d="M 22.953125 -8.109375 C 22.953125 -5.304688 21.976562 -3.171875 20.03125 -1.703125 C 18.082031 -0.242188 15.171875 0.484375 11.296875 0.484375 C 9.316406 0.484375 7.625 0.347656 6.21875 0.078125 C 4.820312 -0.179688 3.515625 -0.570312 2.296875 -1.09375 L 2.296875 -7.25 C 3.679688 -6.601562 5.238281 -6.054688 6.96875 -5.609375 C 8.707031 -5.171875 10.234375 -4.953125 11.546875 -4.953125 C 14.242188 -4.953125 15.59375 -5.734375 15.59375 -7.296875 C 15.59375 -7.878906 15.414062 -8.351562 15.0625 -8.71875 C 14.707031 -9.09375 14.085938 -9.507812 13.203125 -9.96875 C 12.328125 -10.4375 11.15625 -10.976562 9.6875 -11.59375 C 7.59375 -12.476562 6.050781 -13.289062 5.0625 -14.03125 C 4.082031 -14.78125 3.367188 -15.640625 2.921875 -16.609375 C 2.472656 -17.578125 2.25 -18.769531 2.25 -20.1875 C 2.25 -22.613281 3.1875 -24.488281 5.0625 -25.8125 C 6.945312 -27.144531 9.613281 -27.8125 13.0625 -27.8125 C 16.351562 -27.8125 19.550781 -27.09375 22.65625 -25.65625 L 20.40625 -20.28125 C 19.039062 -20.875 17.765625 -21.359375 16.578125 -21.734375 C 15.390625 -22.109375 14.175781 -22.296875 12.9375 -22.296875 C 10.738281 -22.296875 9.640625 -21.703125 9.640625 -20.515625 C 9.640625 -19.835938 9.992188 -19.253906 10.703125 -18.765625 C 11.410156 -18.285156 12.960938 -17.566406 15.359375 -16.609375 C 17.492188 -15.742188 19.054688 -14.9375 20.046875 -14.1875 C 21.035156 -13.4375 21.765625 -12.570312 22.234375 -11.59375 C 22.710938 -10.613281 22.953125 -9.453125 22.953125 -8.109375 Z M 22.953125 -8.109375 "/></g></g></g><g fill="#ffffff" fill-opacity="1"><g transform="translate(162.34399, 254.624983)"><g><path d="M 3.59375 -34.34375 C 3.59375 -36.769531 4.941406 -37.984375 7.640625 -37.984375 C 10.335938 -37.984375 11.6875 -36.769531 11.6875 -34.34375 C 11.6875 -33.195312 11.347656 -32.300781 10.671875 -31.65625 C 10.003906 -31.007812 8.992188 -30.6875 7.640625 -30.6875 C 4.941406 -30.6875 3.59375 -31.90625 3.59375 -34.34375 Z M 11.359375 0 L 3.90625 0 L 3.90625 -27.296875 L 11.359375 -27.296875 Z M 11.359375 0 "/></g></g></g><g fill="#ffffff" fill-opacity="1"><g transform="translate(177.600394, 254.624983)"><g><path d="M 14.984375 0.484375 C 6.492188 0.484375 2.25 -4.175781 2.25 -13.5 C 2.25 -18.132812 3.40625 -21.675781 5.71875 -24.125 C 8.03125 -26.582031 11.34375 -27.8125 15.65625 -27.8125 C 18.8125 -27.8125 21.640625 -27.191406 24.140625 -25.953125 L 21.953125 -20.1875 C 20.773438 -20.664062 19.679688 -21.050781 18.671875 -21.34375 C 17.660156 -21.644531 16.65625 -21.796875 15.65625 -21.796875 C 11.78125 -21.796875 9.84375 -19.046875 9.84375 -13.546875 C 9.84375 -8.210938 11.78125 -5.546875 15.65625 -5.546875 C 17.082031 -5.546875 18.40625 -5.734375 19.625 -6.109375 C 20.84375 -6.492188 22.066406 -7.09375 23.296875 -7.90625 L 23.296875 -1.53125 C 22.085938 -0.769531 20.867188 -0.242188 19.640625 0.046875 C 18.410156 0.335938 16.859375 0.484375 14.984375 0.484375 Z M 14.984375 0.484375 "/></g></g></g><g fill="#ffffff" fill-opacity="1"><g transform="translate(203.304383, 254.624983)"><g><path d="M 22.953125 -8.109375 C 22.953125 -5.304688 21.976562 -3.171875 20.03125 -1.703125 C 18.082031 -0.242188 15.171875 0.484375 11.296875 0.484375 C 9.316406 0.484375 7.625 0.347656 6.21875 0.078125 C 4.820312 -0.179688 3.515625 -0.570312 2.296875 -1.09375 L 2.296875 -7.25 C 3.679688 -6.601562 5.238281 -6.054688 6.96875 -5.609375 C 8.707031 -5.171875 10.234375 -4.953125 11.546875 -4.953125 C 14.242188 -4.953125 15.59375 -5.734375 15.59375 -7.296875 C 15.59375 -7.878906 15.414062 -8.351562 15.0625 -8.71875 C 14.707031 -9.09375 14.085938 -9.507812 13.203125 -9.96875 C 12.328125 -10.4375 11.15625 -10.976562 9.6875 -11.59375 C 7.59375 -12.476562 6.050781 -13.289062 5.0625 -14.03125 C 4.082031 -14.78125 3.367188 -15.640625 2.921875 -16.609375 C 2.472656 -17.578125 2.25 -18.769531 2.25 -20.1875 C 2.25 -22.613281 3.1875 -24.488281 5.0625 -25.8125 C 6.945312 -27.144531 9.613281 -27.8125 13.0625 -27.8125 C 16.351562 -27.8125 19.550781 -27.09375 22.65625 -25.65625 L 20.40625 -20.28125 C 19.039062 -20.875 17.765625 -21.359375 16.578125 -21.734375 C 15.390625 -22.109375 14.175781 -22.296875 12.9375 -22.296875 C 10.738281 -22.296875 9.640625 -21.703125 9.640625 -20.515625 C 9.640625 -19.835938 9.992188 -19.253906 10.703125 -18.765625 C 11.410156 -18.285156 12.960938 -17.566406 15.359375 -16.609375 C 17.492188 -15.742188 19.054688 -14.9375 20.046875 -14.1875 C 21.035156 -13.4375 21.765625 -12.570312 22.234375 -11.59375 C 22.710938 -10.613281 22.953125 -9.453125 22.953125 -8.109375 Z M 22.953125 -8.109375 "/></g></g></g><g fill="#ffffff" fill-opacity="1"><g transform="translate(228.154014, 254.624983)"><g/></g></g><g fill="#ffffff" fill-opacity="1"><g transform="translate(241.140264, 254.624983)"><g><path d="M 26.34375 0 L 24.25 -9.546875 L 21.40625 -21.609375 L 21.234375 -21.609375 L 16.265625 0 L 8.25 0 L 0.484375 -27.296875 L 7.90625 -27.296875 L 11.0625 -15.203125 C 11.5625 -13.046875 12.070312 -10.0625 12.59375 -6.25 L 12.75 -6.25 C 12.8125 -7.488281 13.09375 -9.453125 13.59375 -12.140625 L 13.984375 -14.203125 L 17.359375 -27.296875 L 25.5625 -27.296875 L 28.765625 -14.203125 C 28.828125 -13.847656 28.925781 -13.320312 29.0625 -12.625 C 29.195312 -11.925781 29.328125 -11.179688 29.453125 -10.390625 C 29.585938 -9.597656 29.707031 -8.820312 29.8125 -8.0625 C 29.925781 -7.3125 29.988281 -6.707031 30 -6.25 L 30.15625 -6.25 C 30.300781 -7.425781 30.5625 -9.035156 30.9375 -11.078125 C 31.3125 -13.117188 31.578125 -14.492188 31.734375 -15.203125 L 35.015625 -27.296875 L 42.3125 -27.296875 L 34.453125 0 Z M 26.34375 0 "/></g></g></g><g fill="#ffffff" fill-opacity="1"><g transform="translate(283.931426, 254.624983)"><g><path d="M 3.59375 -34.34375 C 3.59375 -36.769531 4.941406 -37.984375 7.640625 -37.984375 C 10.335938 -37.984375 11.6875 -36.769531 11.6875 -34.34375 C 11.6875 -33.195312 11.347656 -32.300781 10.671875 -31.65625 C 10.003906 -31.007812 8.992188 -30.6875 7.640625 -30.6875 C 4.941406 -30.6875 3.59375 -31.90625 3.59375 -34.34375 Z M 11.359375 0 L 3.90625 0 L 3.90625 -27.296875 L 11.359375 -27.296875 Z M 11.359375 0 "/></g></g></g><g fill="#ffffff" fill-opacity="1"><g transform="translate(299.187818, 254.624983)"><g><path d="M 15.40625 -5.4375 C 16.707031 -5.4375 18.269531 -5.722656 20.09375 -6.296875 L 20.09375 -0.75 C 18.238281 0.0703125 15.957031 0.484375 13.25 0.484375 C 10.28125 0.484375 8.113281 -0.265625 6.75 -1.765625 C 5.394531 -3.273438 4.71875 -5.535156 4.71875 -8.546875 L 4.71875 -21.703125 L 1.140625 -21.703125 L 1.140625 -24.859375 L 5.25 -27.34375 L 7.390625 -33.109375 L 12.15625 -33.109375 L 12.15625 -27.296875 L 19.796875 -27.296875 L 19.796875 -21.703125 L 12.15625 -21.703125 L 12.15625 -8.546875 C 12.15625 -7.484375 12.453125 -6.695312 13.046875 -6.1875 C 13.640625 -5.6875 14.425781 -5.4375 15.40625 -5.4375 Z M 15.40625 -5.4375 "/></g></g></g><g fill="#ffffff" fill-opacity="1"><g transform="translate(320.888516, 254.624983)"><g><path d="M 29.109375 0 L 21.65625 0 L 21.65625 -15.9375 C 21.65625 -19.875 20.191406 -21.84375 17.265625 -21.84375 C 15.179688 -21.84375 13.675781 -21.132812 12.75 -19.71875 C 11.820312 -18.3125 11.359375 -16.019531 11.359375 -12.84375 L 11.359375 0 L 3.90625 0 L 3.90625 -37.984375 L 11.359375 -37.984375 L 11.359375 -30.25 C 11.359375 -29.644531 11.300781 -28.226562 11.1875 -26 L 11.015625 -23.796875 L 11.40625 -23.796875 C 13.0625 -26.472656 15.695312 -27.8125 19.3125 -27.8125 C 22.519531 -27.8125 24.953125 -26.945312 26.609375 -25.21875 C 28.273438 -23.488281 29.109375 -21.015625 29.109375 -17.796875 Z M 29.109375 0 "/></g></g></g><g fill="#ffffff" fill-opacity="1"><g transform="translate(124.628356, 324.374978)"><g><path d="M 12.0625 -18.890625 L 14.546875 -18.890625 C 16.878906 -18.890625 18.625 -19.347656 19.78125 -20.265625 C 20.9375 -21.191406 21.515625 -22.535156 21.515625 -24.296875 C 21.515625 -26.066406 21.03125 -27.375 20.0625 -28.21875 C 19.09375 -29.070312 17.570312 -29.5 15.5 -29.5 L 12.0625 -29.5 Z M 29.15625 -24.5625 C 29.15625 -20.71875 27.953125 -17.78125 25.546875 -15.75 C 23.148438 -13.71875 19.738281 -12.703125 15.3125 -12.703125 L 12.0625 -12.703125 L 12.0625 0 L 4.5 0 L 4.5 -35.6875 L 15.890625 -35.6875 C 20.222656 -35.6875 23.515625 -34.753906 25.765625 -32.890625 C 28.023438 -31.035156 29.15625 -28.257812 29.15625 -24.5625 Z M 29.15625 -24.5625 "/></g></g></g><g fill="#ffffff" fill-opacity="1"><g transform="translate(156.019932, 324.374978)"><g><path d="M 0 -27.296875 L 8.15625 -27.296875 L 13.3125 -11.9375 C 13.75 -10.601562 14.046875 -9.023438 14.203125 -7.203125 L 14.359375 -7.203125 C 14.535156 -8.878906 14.882812 -10.457031 15.40625 -11.9375 L 20.453125 -27.296875 L 28.4375 -27.296875 L 16.890625 3.484375 C 15.835938 6.335938 14.328125 8.472656 12.359375 9.890625 C 10.398438 11.304688 8.113281 12.015625 5.5 12.015625 C 4.207031 12.015625 2.941406 11.875 1.703125 11.59375 L 1.703125 5.6875 C 2.597656 5.894531 3.578125 6 4.640625 6 C 5.953125 6 7.101562 5.597656 8.09375 4.796875 C 9.082031 3.992188 9.851562 2.773438 10.40625 1.140625 L 10.84375 -0.203125 Z M 0 -27.296875 "/></g></g></g><g fill="#ffffff" fill-opacity="1"><g transform="translate(184.457869, 324.374978)"><g><path d="M 15.40625 -5.4375 C 16.707031 -5.4375 18.269531 -5.722656 20.09375 -6.296875 L 20.09375 -0.75 C 18.238281 0.0703125 15.957031 0.484375 13.25 0.484375 C 10.28125 0.484375 8.113281 -0.265625 6.75 -1.765625 C 5.394531 -3.273438 4.71875 -5.535156 4.71875 -8.546875 L 4.71875 -21.703125 L 1.140625 -21.703125 L 1.140625 -24.859375 L 5.25 -27.34375 L 7.390625 -33.109375 L 12.15625 -33.109375 L 12.15625 -27.296875 L 19.796875 -27.296875 L 19.796875 -21.703125 L 12.15625 -21.703125 L 12.15625 -8.546875 C 12.15625 -7.484375 12.453125 -6.695312 13.046875 -6.1875 C 13.640625 -5.6875 14.425781 -5.4375 15.40625 -5.4375 Z M 15.40625 -5.4375 "/></g></g></g><g fill="#ffffff" fill-opacity="1"><g transform="translate(206.158578, 324.374978)"><g><path d="M 29.109375 0 L 21.65625 0 L 21.65625 -15.9375 C 21.65625 -19.875 20.191406 -21.84375 17.265625 -21.84375 C 15.179688 -21.84375 13.675781 -21.132812 12.75 -19.71875 C 11.820312 -18.3125 11.359375 -16.019531 11.359375 -12.84375 L 11.359375 0 L 3.90625 0 L 3.90625 -37.984375 L 11.359375 -37.984375 L 11.359375 -30.25 C 11.359375 -29.644531 11.300781 -28.226562 11.1875 -26 L 11.015625 -23.796875 L 11.40625 -23.796875 C 13.0625 -26.472656 15.695312 -27.8125 19.3125 -27.8125 C 22.519531 -27.8125 24.953125 -26.945312 26.609375 -25.21875 C 28.273438 -23.488281 29.109375 -21.015625 29.109375 -17.796875 Z M 29.109375 0 "/></g></g></g><g fill="#ffffff" fill-opacity="1"><g transform="translate(239.014769, 324.374978)"><g><path d="M 9.84375 -13.703125 C 9.84375 -10.992188 10.285156 -8.945312 11.171875 -7.5625 C 12.054688 -6.1875 13.5 -5.5 15.5 -5.5 C 17.488281 -5.5 18.914062 -6.1875 19.78125 -7.5625 C 20.65625 -8.9375 21.09375 -10.984375 21.09375 -13.703125 C 21.09375 -16.398438 20.648438 -18.421875 19.765625 -19.765625 C 18.890625 -21.117188 17.453125 -21.796875 15.453125 -21.796875 C 13.460938 -21.796875 12.03125 -21.125 11.15625 -19.78125 C 10.28125 -18.445312 9.84375 -16.421875 9.84375 -13.703125 Z M 28.71875 -13.703125 C 28.71875 -9.253906 27.546875 -5.773438 25.203125 -3.265625 C 22.859375 -0.765625 19.59375 0.484375 15.40625 0.484375 C 12.78125 0.484375 10.46875 -0.0859375 8.46875 -1.234375 C 6.46875 -2.378906 4.929688 -4.023438 3.859375 -6.171875 C 2.785156 -8.328125 2.25 -10.835938 2.25 -13.703125 C 2.25 -18.160156 3.410156 -21.625 5.734375 -24.09375 C 8.066406 -26.570312 11.335938 -27.8125 15.546875 -27.8125 C 18.171875 -27.8125 20.484375 -27.238281 22.484375 -26.09375 C 24.484375 -24.957031 26.019531 -23.320312 27.09375 -21.1875 C 28.175781 -19.0625 28.71875 -16.566406 28.71875 -13.703125 Z M 28.71875 -13.703125 "/></g></g></g><g fill="#ffffff" fill-opacity="1"><g transform="translate(269.966961, 324.374978)"><g><path d="M 29.109375 0 L 21.65625 0 L 21.65625 -15.9375 C 21.65625 -17.90625 21.304688 -19.378906 20.609375 -20.359375 C 19.910156 -21.347656 18.796875 -21.84375 17.265625 -21.84375 C 15.179688 -21.84375 13.675781 -21.144531 12.75 -19.75 C 11.820312 -18.363281 11.359375 -16.0625 11.359375 -12.84375 L 11.359375 0 L 3.90625 0 L 3.90625 -27.296875 L 9.59375 -27.296875 L 10.59375 -23.796875 L 11.015625 -23.796875 C 11.835938 -25.117188 12.976562 -26.117188 14.4375 -26.796875 C 15.894531 -27.472656 17.550781 -27.8125 19.40625 -27.8125 C 22.582031 -27.8125 24.992188 -26.953125 26.640625 -25.234375 C 28.285156 -23.515625 29.109375 -21.035156 29.109375 -17.796875 Z M 29.109375 0 "/></g></g></g><g clip-path="url(#9167c45dae)"><g clip-path="url(#fa960a0424)"><path fill="url(#577c6f451a)" d="M 511.820312 73.667969 L 511.820312 318.597656 L 759.640625 318.597656 L 759.640625 73.667969 Z M 511.820312 73.667969 " fill-rule="nonzero"/></g></g><g clip-path="url(#e6450babf4)"><g clip-path="url(#da62cef136)"><path fill="url(#d224c52470)" d="M 589.351562 152.609375 L 589.351562 397.578125 L 837.175781 397.578125 L 837.175781 152.609375 Z M 589.351562 152.609375 " fill-rule="nonzero"/></g></g></svg>