<svg xmlns="http://www.w3.org/2000/svg" xmlns:xlink="http://www.w3.org/1999/xlink" width="1200" zoomAndPan="magnify" viewBox="0 0 900 470.999988" height="628" preserveAspectRatio="xMidYMid meet" version="1.0"><defs><g/><clipPath id="0adba9246d"><path d="M 464.234375 0 L 900 0 L 900 471 L 464.234375 471 Z M 464.234375 0 " clip-rule="nonzero"/></clipPath><clipPath id="5cdc4bd365"><path d="M 477.835938 313.914062 C 469.625 289.84375 464.234375 262.316406 464.234375 235.371094 C 464.234375 208.429688 468.855469 182.503906 477.066406 158.609375 C 477.324219 158.101562 477.324219 157.59375 477.578125 157.085938 C 510.425781 67.359375 597.164062 1.269531 698.523438 0 L 1043.929688 0 L 1043.929688 471 L 698.78125 471 C 596.648438 469.730469 509.914062 404.65625 477.835938 313.914062 Z M 477.835938 313.914062 " clip-rule="nonzero"/></clipPath><clipPath id="647ace4fdb"><path d="M 576.316406 82.488281 L 868.816406 82.488281 L 868.816406 374.988281 L 576.316406 374.988281 Z M 576.316406 82.488281 " clip-rule="nonzero"/></clipPath><clipPath id="613a179c9d"><path d="M 576.316406 99.738281 L 576.316406 357.761719 C 576.316406 367.289062 584.039062 375.011719 593.566406 375.011719 L 851.585938 375.011719 C 861.113281 375.011719 868.835938 367.289062 868.835938 357.761719 L 868.835938 99.738281 C 868.835938 90.210938 861.113281 82.488281 851.585938 82.488281 L 593.566406 82.488281 C 584.039062 82.488281 576.316406 90.210938 576.316406 99.738281 Z M 576.316406 99.738281 " clip-rule="nonzero"/></clipPath><clipPath id="6cd2f93434"><path d="M 640 217 L 744 217 L 744 350 L 640 350 Z M 640 217 " clip-rule="nonzero"/></clipPath><clipPath id="809b6d379b"><path d="M 576.316406 99.738281 L 576.316406 357.761719 C 576.316406 367.289062 584.039062 375.011719 593.566406 375.011719 L 851.585938 375.011719 C 861.113281 375.011719 868.835938 367.289062 868.835938 357.761719 L 868.835938 99.738281 C 868.835938 90.210938 861.113281 82.488281 851.585938 82.488281 L 593.566406 82.488281 C 584.039062 82.488281 576.316406 90.210938 576.316406 99.738281 Z M 576.316406 99.738281 " clip-rule="nonzero"/></clipPath><clipPath id="4043a1c9a0"><path d="M 751 216 L 846 216 L 846 352 L 751 352 Z M 751 216 " clip-rule="nonzero"/></clipPath><clipPath id="081ec8f222"><path d="M 576.316406 99.738281 L 576.316406 357.761719 C 576.316406 367.289062 584.039062 375.011719 593.566406 375.011719 L 851.585938 375.011719 C 861.113281 375.011719 868.835938 367.289062 868.835938 357.761719 L 868.835938 99.738281 C 868.835938 90.210938 861.113281 82.488281 851.585938 82.488281 L 593.566406 82.488281 C 584.039062 82.488281 576.316406 90.210938 576.316406 99.738281 Z M 576.316406 99.738281 " clip-rule="nonzero"/></clipPath></defs><rect x="-90" width="1080" fill="#ffffff" y="-47.099999" height="565.199986" fill-opacity="1"/><rect x="-90" width="1080" fill="#1a4674" y="-47.099999" height="565.199986" fill-opacity="1"/><g clip-path="url(#0adba9246d)"><g clip-path="url(#5cdc4bd365)"><path fill="#e89300" d="M 464.234375 471 L 464.234375 0 L 1043.785156 0 L 1043.785156 471 Z M 464.234375 471 " fill-opacity="1" fill-rule="nonzero"/></g></g><g fill="#ffffff" fill-opacity="1"><g transform="translate(80.676401, 229.515585)"><g><path d="M 18.265625 0 L 10.6875 0 L 10.6875 -29.390625 L 1 -29.390625 L 1 -35.6875 L 27.953125 -35.6875 L 27.953125 -29.390625 L 18.265625 -29.390625 Z M 18.265625 0 "/></g></g></g><g fill="#ffffff" fill-opacity="1"><g transform="translate(109.626953, 229.515585)"><g><path d="M 0 -27.296875 L 8.15625 -27.296875 L 13.3125 -11.9375 C 13.75 -10.601562 14.046875 -9.023438 14.203125 -7.203125 L 14.359375 -7.203125 C 14.535156 -8.878906 14.882812 -10.457031 15.40625 -11.9375 L 20.453125 -27.296875 L 28.4375 -27.296875 L 16.890625 3.484375 C 15.835938 6.335938 14.328125 8.472656 12.359375 9.890625 C 10.398438 11.304688 8.113281 12.015625 5.5 12.015625 C 4.207031 12.015625 2.941406 11.875 1.703125 11.59375 L 1.703125 5.6875 C 2.597656 5.894531 3.578125 6 4.640625 6 C 5.953125 6 7.101562 5.597656 8.09375 4.796875 C 9.082031 3.992188 9.851562 2.773438 10.40625 1.140625 L 10.84375 -0.203125 Z M 0 -27.296875 "/></g></g></g><g fill="#ffffff" fill-opacity="1"><g transform="translate(138.06489, 229.515585)"><g><path d="M 18.890625 0.484375 C 15.691406 0.484375 13.179688 -0.675781 11.359375 -3 L 10.96875 -3 C 11.226562 -0.71875 11.359375 0.597656 11.359375 0.953125 L 11.359375 12.015625 L 3.90625 12.015625 L 3.90625 -27.296875 L 9.96875 -27.296875 L 11.015625 -23.75 L 11.359375 -23.75 C 13.097656 -26.457031 15.675781 -27.8125 19.09375 -27.8125 C 22.3125 -27.8125 24.832031 -26.566406 26.65625 -24.078125 C 28.476562 -21.585938 29.390625 -18.128906 29.390625 -13.703125 C 29.390625 -10.785156 28.960938 -8.25 28.109375 -6.09375 C 27.253906 -3.945312 26.035156 -2.3125 24.453125 -1.1875 C 22.878906 -0.0703125 21.023438 0.484375 18.890625 0.484375 Z M 16.703125 -21.84375 C 14.859375 -21.84375 13.515625 -21.273438 12.671875 -20.140625 C 11.828125 -19.015625 11.390625 -17.148438 11.359375 -14.546875 L 11.359375 -13.75 C 11.359375 -10.8125 11.789062 -8.707031 12.65625 -7.4375 C 13.53125 -6.175781 14.910156 -5.546875 16.796875 -5.546875 C 20.128906 -5.546875 21.796875 -8.296875 21.796875 -13.796875 C 21.796875 -16.484375 21.382812 -18.492188 20.5625 -19.828125 C 19.75 -21.171875 18.460938 -21.84375 16.703125 -21.84375 Z M 16.703125 -21.84375 "/></g></g></g><g fill="#ffffff" fill-opacity="1"><g transform="translate(169.700569, 229.515585)"><g><path d="M 15.203125 -22.515625 C 13.628906 -22.515625 12.394531 -22.007812 11.5 -21 C 10.601562 -20 10.09375 -18.582031 9.96875 -16.75 L 20.40625 -16.75 C 20.375 -18.582031 19.894531 -20 18.96875 -21 C 18.039062 -22.007812 16.785156 -22.515625 15.203125 -22.515625 Z M 16.265625 0.484375 C 11.867188 0.484375 8.429688 -0.722656 5.953125 -3.140625 C 3.484375 -5.566406 2.25 -9.003906 2.25 -13.453125 C 2.25 -18.023438 3.390625 -21.5625 5.671875 -24.0625 C 7.960938 -26.5625 11.125 -27.8125 15.15625 -27.8125 C 19.019531 -27.8125 22.023438 -26.710938 24.171875 -24.515625 C 26.316406 -22.316406 27.390625 -19.28125 27.390625 -15.40625 L 27.390625 -11.796875 L 9.796875 -11.796875 C 9.867188 -9.679688 10.488281 -8.023438 11.65625 -6.828125 C 12.832031 -5.640625 14.484375 -5.046875 16.609375 -5.046875 C 18.242188 -5.046875 19.796875 -5.21875 21.265625 -5.5625 C 22.734375 -5.90625 24.265625 -6.453125 25.859375 -7.203125 L 25.859375 -1.4375 C 24.554688 -0.789062 23.160156 -0.3125 21.671875 0 C 20.191406 0.320312 18.390625 0.484375 16.265625 0.484375 Z M 16.265625 0.484375 "/></g></g></g><g fill="#ffffff" fill-opacity="1"><g transform="translate(199.236967, 229.515585)"><g><path d="M 25.5625 -9.90625 C 25.5625 -6.6875 24.398438 -4.148438 22.078125 -2.296875 C 19.765625 -0.441406 16.539062 0.484375 12.40625 0.484375 C 8.59375 0.484375 5.222656 -0.226562 2.296875 -1.65625 L 2.296875 -8.6875 C 4.703125 -7.613281 6.738281 -6.859375 8.40625 -6.421875 C 10.070312 -5.984375 11.597656 -5.765625 12.984375 -5.765625 C 14.648438 -5.765625 15.925781 -6.082031 16.8125 -6.71875 C 17.695312 -7.351562 18.140625 -8.296875 18.140625 -9.546875 C 18.140625 -10.242188 17.941406 -10.863281 17.546875 -11.40625 C 17.160156 -11.957031 16.585938 -12.484375 15.828125 -12.984375 C 15.078125 -13.492188 13.535156 -14.300781 11.203125 -15.40625 C 9.023438 -16.425781 7.390625 -17.410156 6.296875 -18.359375 C 5.203125 -19.304688 4.328125 -20.40625 3.671875 -21.65625 C 3.023438 -22.90625 2.703125 -24.367188 2.703125 -26.046875 C 2.703125 -29.203125 3.769531 -31.679688 5.90625 -33.484375 C 8.050781 -35.296875 11.015625 -36.203125 14.796875 -36.203125 C 16.648438 -36.203125 18.414062 -35.984375 20.09375 -35.546875 C 21.78125 -35.109375 23.546875 -34.488281 25.390625 -33.6875 L 22.953125 -27.8125 C 21.046875 -28.59375 19.46875 -29.132812 18.21875 -29.4375 C 16.976562 -29.75 15.753906 -29.90625 14.546875 -29.90625 C 13.117188 -29.90625 12.019531 -29.570312 11.25 -28.90625 C 10.488281 -28.238281 10.109375 -27.367188 10.109375 -26.296875 C 10.109375 -25.628906 10.257812 -25.046875 10.5625 -24.546875 C 10.875 -24.046875 11.367188 -23.5625 12.046875 -23.09375 C 12.722656 -22.632812 14.320312 -21.804688 16.84375 -20.609375 C 20.175781 -19.015625 22.460938 -17.414062 23.703125 -15.8125 C 24.941406 -14.207031 25.5625 -12.238281 25.5625 -9.90625 Z M 25.5625 -9.90625 "/></g></g></g><g fill="#ffffff" fill-opacity="1"><g transform="translate(226.771725, 229.515585)"><g><path d="M 14.984375 0.484375 C 6.492188 0.484375 2.25 -4.175781 2.25 -13.5 C 2.25 -18.132812 3.40625 -21.675781 5.71875 -24.125 C 8.03125 -26.582031 11.34375 -27.8125 15.65625 -27.8125 C 18.8125 -27.8125 21.640625 -27.191406 24.140625 -25.953125 L 21.953125 -20.1875 C 20.773438 -20.664062 19.679688 -21.050781 18.671875 -21.34375 C 17.660156 -21.644531 16.65625 -21.796875 15.65625 -21.796875 C 11.78125 -21.796875 9.84375 -19.046875 9.84375 -13.546875 C 9.84375 -8.210938 11.78125 -5.546875 15.65625 -5.546875 C 17.082031 -5.546875 18.40625 -5.734375 19.625 -6.109375 C 20.84375 -6.492188 22.066406 -7.09375 23.296875 -7.90625 L 23.296875 -1.53125 C 22.085938 -0.769531 20.867188 -0.242188 19.640625 0.046875 C 18.410156 0.335938 16.859375 0.484375 14.984375 0.484375 Z M 14.984375 0.484375 "/></g></g></g><g fill="#ffffff" fill-opacity="1"><g transform="translate(252.475714, 229.515585)"><g><path d="M 19.140625 -27.8125 C 20.148438 -27.8125 20.988281 -27.738281 21.65625 -27.59375 L 21.09375 -20.609375 C 20.488281 -20.765625 19.753906 -20.84375 18.890625 -20.84375 C 16.515625 -20.84375 14.664062 -20.234375 13.34375 -19.015625 C 12.019531 -17.796875 11.359375 -16.085938 11.359375 -13.890625 L 11.359375 0 L 3.90625 0 L 3.90625 -27.296875 L 9.546875 -27.296875 L 10.640625 -22.703125 L 11.015625 -22.703125 C 11.859375 -24.234375 13 -25.46875 14.4375 -26.40625 C 15.882812 -27.34375 17.453125 -27.8125 19.140625 -27.8125 Z M 19.140625 -27.8125 "/></g></g></g><g fill="#ffffff" fill-opacity="1"><g transform="translate(275.177243, 229.515585)"><g><path d="M 3.59375 -34.34375 C 3.59375 -36.769531 4.941406 -37.984375 7.640625 -37.984375 C 10.335938 -37.984375 11.6875 -36.769531 11.6875 -34.34375 C 11.6875 -33.195312 11.347656 -32.300781 10.671875 -31.65625 C 10.003906 -31.007812 8.992188 -30.6875 7.640625 -30.6875 C 4.941406 -30.6875 3.59375 -31.90625 3.59375 -34.34375 Z M 11.359375 0 L 3.90625 0 L 3.90625 -27.296875 L 11.359375 -27.296875 Z M 11.359375 0 "/></g></g></g><g fill="#ffffff" fill-opacity="1"><g transform="translate(290.433635, 229.515585)"><g><path d="M 18.890625 0.484375 C 15.691406 0.484375 13.179688 -0.675781 11.359375 -3 L 10.96875 -3 C 11.226562 -0.71875 11.359375 0.597656 11.359375 0.953125 L 11.359375 12.015625 L 3.90625 12.015625 L 3.90625 -27.296875 L 9.96875 -27.296875 L 11.015625 -23.75 L 11.359375 -23.75 C 13.097656 -26.457031 15.675781 -27.8125 19.09375 -27.8125 C 22.3125 -27.8125 24.832031 -26.566406 26.65625 -24.078125 C 28.476562 -21.585938 29.390625 -18.128906 29.390625 -13.703125 C 29.390625 -10.785156 28.960938 -8.25 28.109375 -6.09375 C 27.253906 -3.945312 26.035156 -2.3125 24.453125 -1.1875 C 22.878906 -0.0703125 21.023438 0.484375 18.890625 0.484375 Z M 16.703125 -21.84375 C 14.859375 -21.84375 13.515625 -21.273438 12.671875 -20.140625 C 11.828125 -19.015625 11.390625 -17.148438 11.359375 -14.546875 L 11.359375 -13.75 C 11.359375 -10.8125 11.789062 -8.707031 12.65625 -7.4375 C 13.53125 -6.175781 14.910156 -5.546875 16.796875 -5.546875 C 20.128906 -5.546875 21.796875 -8.296875 21.796875 -13.796875 C 21.796875 -16.484375 21.382812 -18.492188 20.5625 -19.828125 C 19.75 -21.171875 18.460938 -21.84375 16.703125 -21.84375 Z M 16.703125 -21.84375 "/></g></g></g><g fill="#ffffff" fill-opacity="1"><g transform="translate(322.069314, 229.515585)"><g><path d="M 15.40625 -5.4375 C 16.707031 -5.4375 18.269531 -5.722656 20.09375 -6.296875 L 20.09375 -0.75 C 18.238281 0.0703125 15.957031 0.484375 13.25 0.484375 C 10.28125 0.484375 8.113281 -0.265625 6.75 -1.765625 C 5.394531 -3.273438 4.71875 -5.535156 4.71875 -8.546875 L 4.71875 -21.703125 L 1.140625 -21.703125 L 1.140625 -24.859375 L 5.25 -27.34375 L 7.390625 -33.109375 L 12.15625 -33.109375 L 12.15625 -27.296875 L 19.796875 -27.296875 L 19.796875 -21.703125 L 12.15625 -21.703125 L 12.15625 -8.546875 C 12.15625 -7.484375 12.453125 -6.695312 13.046875 -6.1875 C 13.640625 -5.6875 14.425781 -5.4375 15.40625 -5.4375 Z M 15.40625 -5.4375 "/></g></g></g><g clip-path="url(#647ace4fdb)"><g clip-path="url(#613a179c9d)"><path fill="#007acc" d="M 576.316406 374.988281 L 868.816406 374.988281 L 868.816406 82.488281 L 576.316406 82.488281 Z M 576.316406 374.988281 " fill-opacity="1" fill-rule="nonzero"/></g></g><g clip-path="url(#6cd2f93434)"><g clip-path="url(#809b6d379b)"><path fill="#ffffff" d="M 640.984375 229.699219 L 640.894531 241.683594 L 678.964844 241.683594 L 678.964844 349.863281 L 705.894531 349.863281 L 705.894531 241.683594 L 743.964844 241.683594 L 743.964844 229.9375 C 743.964844 223.4375 743.828125 218 743.640625 217.863281 C 743.503906 217.679688 720.335938 217.585938 692.242188 217.632812 L 641.121094 217.769531 Z M 640.984375 229.699219 " fill-opacity="1" fill-rule="nonzero"/></g></g><g clip-path="url(#4043a1c9a0)"><g clip-path="url(#081ec8f222)"><path fill="#ffffff" d="M 812.339844 217.4375 C 819.765625 219.289062 825.433594 222.59375 830.628906 227.972656 C 833.316406 230.851562 837.316406 236.097656 837.632812 237.355469 C 837.726562 237.730469 825.007812 246.265625 817.296875 251.054688 C 817.023438 251.238281 815.914062 250.027344 814.65625 248.175781 C 810.898438 242.691406 806.945312 240.324219 800.914062 239.914062 C 792.046875 239.308594 786.332031 243.945312 786.378906 251.703125 C 786.378906 253.980469 786.710938 255.328125 787.636719 257.179688 C 789.589844 261.222656 793.210938 263.632812 804.578125 268.558594 C 825.523438 277.5625 834.480469 283.503906 840.058594 291.957031 C 846.273438 301.382812 847.667969 316.421875 843.4375 327.605469 C 838.800781 339.773438 827.28125 348.035156 811.082031 350.777344 C 806.066406 351.65625 794.183594 351.519531 788.789062 350.550781 C 777.042969 348.457031 765.902344 342.652344 759.035156 335.042969 C 756.339844 332.074219 751.097656 324.316406 751.414062 323.757812 C 751.5625 323.574219 752.765625 322.832031 754.113281 322.042969 C 755.414062 321.300781 760.339844 318.464844 764.976562 315.769531 L 773.375 310.902344 L 775.148438 313.496094 C 777.605469 317.253906 782.996094 322.40625 786.242188 324.132812 C 795.578125 329.046875 808.382812 328.347656 814.703125 322.695312 C 817.398438 320.226562 818.507812 317.675781 818.507812 313.917969 C 818.507812 310.523438 818.097656 309.039062 816.324219 306.492188 C 814.050781 303.234375 809.414062 300.492188 796.226562 294.792969 C 781.132812 288.289062 774.632812 284.246094 768.691406 277.835938 C 765.253906 274.121094 762.007812 268.179688 760.660156 263.210938 C 759.539062 259.085938 759.265625 248.734375 760.144531 244.550781 C 763.265625 229.972656 774.265625 219.804688 790.136719 216.789062 C 795.289062 215.816406 807.277344 216.183594 812.339844 217.4375 Z M 812.339844 217.4375 " fill-opacity="1" fill-rule="nonzero"/></g></g></svg>