<?xml version="1.0" encoding="UTF-8"?>
<svg version="1.1" xmlns="http://www.w3.org/2000/svg" width="512" height="512">
<path d="M0 0 C0.94198242 0.00499512 1.88396484 0.00999023 2.85449219 0.01513672 C23.14855032 0.50152324 47.38870494 6.11810944 63.8125 18.5 C64.46347656 18.94730469 65.11445313 19.39460938 65.78515625 19.85546875 C73.5537208 25.67762372 78.61220911 35.78224293 80.296875 45.2109375 C81.03476441 52.61153418 80.68320812 57.90248438 77.1875 64.625 C69.41177465 74.03772016 57.39783805 78.56817213 45.8125 81.5 C40.96317155 81.90040327 36.11434566 81.82447525 31.25 81.8125 C29.32704102 81.83666992 29.32704102 81.83666992 27.36523438 81.86132812 C15.522998 81.86730603 0.83645431 81.27701841 -8.1875 72.5703125 C-12.48442593 67.84022871 -14.63729192 64.45825632 -14.52734375 57.8125 C-13.37403775 49.96471667 -8.30539105 43.28151806 -2.1875 38.5 C0.71974899 36.62469345 3.71363177 35.0335696 6.8125 33.5 C7.58851563 33.10554688 8.36453125 32.71109375 9.1640625 32.3046875 C11.04028336 31.35663244 12.92547262 30.42635889 14.8125 29.5 C0.04326378 31.15689691 -7.87900055 37.8915511 -17.91943359 48.23730469 C-27.89089133 58.43331476 -39.06869085 65.43051954 -53.75 65.9375 C-62.74669291 65.54463131 -73.18807673 63.5200801 -80.1875 57.5 C-82.37468603 54.34820886 -83.7932105 51.06261473 -85.1875 47.5 C-85.579375 46.55253906 -85.97125 45.60507812 -86.375 44.62890625 C-87.34166694 42.26258614 -88.27777394 39.88866618 -89.1875 37.5 C-86.1126561 54.17415352 -81.09339777 71.56819597 -67.1875 82.5 C-59.40233665 86.74384595 -48.80396894 85.62265594 -40.21484375 85.60546875 C-37.90949588 85.61892999 -35.6041567 85.63395408 -33.29882812 85.65039062 C-29.72047461 85.67311111 -26.14311257 85.68756334 -22.56469727 85.67504883 C5.15738723 85.60413855 25.66643948 93.27987263 45.8125 112.5 C47.54486969 114.4565115 49.17979416 116.45762254 50.8125 118.5 C54.95501363 114.9301841 57.14916094 110.62209325 59.6875 105.875 C60.57720688 104.24819546 61.46782555 102.62188923 62.359375 100.99609375 C62.78412109 100.21733887 63.20886719 99.43858398 63.64648438 98.63623047 C71.736875 83.81401146 81.50403329 72.40150741 97.8125 66.5 C112.48972364 62.30512864 128.11316156 66.0413123 141.375 72.5625 C148.51080576 76.58340143 154.08625079 81.72307602 159.8125 87.5 C160.48023438 88.13421875 161.14796875 88.7684375 161.8359375 89.421875 C171.93414539 99.74854913 177.61294065 115.47820529 178.1875 129.6875 C177.75842217 140.71837591 173.17868261 148.48471436 165.375 156 C152.9372225 166.36088107 133.15795773 175.52159111 116.8125 174.5 C113.875 174 113.875 174 111.8125 172.5 C108.97762048 163.35425795 107.65113585 151.49322092 111.4375 142.4375 C112.578125 140.3828125 112.578125 140.3828125 113.8125 138.5 C114.36164063 137.59894531 114.36164063 137.59894531 114.921875 136.6796875 C118.75033241 131.03153119 123.81942431 126.40935317 128.78662109 121.7746582 C133.02433315 117.70689545 135.44032636 113.88164767 137.8125 108.5 C136.925625 109.325 136.03875 110.15 135.125 111 C133.13745707 112.84887715 132.09799804 113.45639499 129.3828125 113.87109375 C126.12767429 113.40112699 124.8198636 112.22844868 122.375 110.0625 C117.7019584 106.15801039 117.7019584 106.15801039 111.8125 105.5 C109.62531249 107.14039063 108.42705464 108.36859098 106.8125 110.5 C106.08546875 111.41458984 106.08546875 111.41458984 105.34375 112.34765625 C97.01277188 123.71774118 94.27053085 138.66522851 90.8515625 152.08398438 C88.97344465 159.17200113 86.81431529 165.32814297 82.8125 171.5 C76.02873641 165.94964797 69.95727032 159.73557973 63.8125 153.5 C68.40346044 160.89567689 73.23050723 168.08440155 78.25512695 175.19140625 C81.8125 180.28349082 81.8125 180.28349082 81.8125 182.5 C98.28475402 190.94344371 112.13913286 192.05628594 129.8125 186.5 C136.14295877 184.25482329 142.41107201 181.85040832 148.65893555 179.38549805 C162.44836757 173.96832065 177.37883658 170.21032322 192 175.125 C202.87793039 179.94092584 209.43827119 187.60096532 214.05078125 198.421875 C215.89257529 203.44666694 216.02823315 208.07220574 216.0625 213.375 C216.0934375 214.56029297 216.0934375 214.56029297 216.125 215.76953125 C216.15806313 220.73726634 215.690905 224.26018722 212.8125 228.5 C207.82628156 232.30585257 199.77976257 231.18397821 193.8125 230.5 C184.098624 228.62407591 169.97204461 224.63299094 163.8125 216.5 C163.25502352 211.8485556 164.22738475 208.2857262 167 204.5625 C172.90119737 200.23495526 178.70602298 199.97404731 185.8125 200.5 C186.8025 200.83 187.7925 201.16 188.8125 201.5 C186.09045616 196.78877028 183.99354791 194.32860514 178.8125 192.5 C168.76900401 191.31841224 158.5504112 196.22683045 149.4375 199.9375 C141.31546886 203.1864437 133.25609462 206.18246827 124.8125 208.5 C132.40596945 212.51719029 140.17168499 215.99119685 148.0625 219.375 C173.37438627 230.27603741 196.79087075 241.39024508 208.5234375 267.9296875 C211.75804751 276.88857704 213.71826224 286.97332211 212.8125 296.5 C212.7196875 297.49644531 212.626875 298.49289062 212.53125 299.51953125 C210.73485204 314.63345637 206.0213331 328.52722238 200.4375 342.625 C199.76859741 344.35012817 199.76859741 344.35012817 199.08618164 346.11010742 C195.79165315 354.19172956 192.32805971 360.99490151 184.49609375 365.33984375 C183.42488281 365.70207031 182.35367187 366.06429688 181.25 366.4375 C180.17621094 366.81777344 179.10242188 367.19804687 177.99609375 367.58984375 C157.83530033 373.35360432 136.42592584 368.15044302 118.25 358.75 C98.18394259 347.35083415 98.18394259 347.35083415 94.6875 337.25 C94.89289952 331.08801452 97.31605049 326.03894227 101.6484375 321.6328125 C110.33811808 314.72915322 120.12324439 312.83017224 131.0859375 313.78515625 C136.32360161 314.52539619 141.31303577 315.59768321 146.375 317.125 C153.07163093 319.03692245 160.40568988 320.20340506 166.8125 317 C171.45177852 311.20090185 174.25296216 305.03422108 173.8125 297.5 C171.69381069 285.19895311 165.2809544 275.55510574 155.375 268.0625 C139.44021638 257.4099651 120.72750327 253.56038709 102.37597656 248.95043945 C73.18706082 241.59457469 42.73992227 228.84638144 26.3125 201.875 C25.13320775 199.75698066 23.96660335 197.63184933 22.8125 195.5 C18.44172376 188.10200174 13.71673946 181.08365256 8.1875 174.5 C7.75655029 173.984375 7.32560059 173.46875 6.8815918 172.9375 C-0.71005952 164.1485221 -10.49959385 157.76679135 -19.91552734 151.10888672 C-21.32862338 150.10820943 -22.73843617 149.10285825 -24.14306641 148.09033203 C-40.03879159 136.65311173 -57.77341418 129.53437612 -75.97052002 122.60031128 C-114.21955746 108.0214478 -114.21955746 108.0214478 -124.8125 86.375 C-128.00922089 79.02148693 -130.22604444 71.26517882 -132.1875 63.5 C-132.37876465 62.75596924 -132.5700293 62.01193848 -132.76708984 61.24536133 C-134.44789727 53.94468089 -134.484822 46.77754488 -134.4375 39.3125 C-134.44523438 38.08080078 -134.45296875 36.84910156 -134.4609375 35.58007812 C-134.43067875 21.54758396 -134.43067875 21.54758396 -130.84765625 16.6796875 C-120.48272095 8.2154127 -106.56085876 3.60026467 -93.18359375 4.03515625 C-84.00168697 5.45972849 -76.85498978 11.3382066 -69.77294922 16.94213867 C-62.46672725 22.7919257 -62.46672725 22.7919257 -53.47265625 24.46484375 C-48.22270589 23.68185564 -44.90869331 20.70200506 -40.9375 17.375 C-39.44523835 16.18268799 -37.9491295 14.99517515 -36.44921875 13.8125 C-35.72395996 13.24015625 -34.99870117 12.6678125 -34.25146484 12.078125 C-23.86544848 4.13688892 -13.10648823 -0.09399651 0 0 Z M2.8125 48.5 C1.8225 49.985 1.8225 49.985 0.8125 51.5 C5.42262242 54.45047835 8.17779617 56.0497272 13.8125 55.5 C13.8125 54.51 13.8125 53.52 13.8125 52.5 C12.20375 51.51 12.20375 51.51 10.5625 50.5 C9.65757812 49.943125 9.65757812 49.943125 8.734375 49.375 C6.55770615 48.22375977 6.55770615 48.22375977 2.8125 48.5 Z M37.25 52.5 C36.445625 53.16 35.64125 53.82 34.8125 54.5 C34.8125 55.16 34.8125 55.82 34.8125 56.5 C41.39046056 58.21598971 45.8190888 56.46527163 51.8125 53.5 C52.8025 52.84 53.7925 52.18 54.8125 51.5 C54.8125 50.84 54.8125 50.18 54.8125 49.5 C48.82440995 47.56835805 42.46699539 49.1991996 37.25 52.5 Z M128.1875 137.75 C125.49080432 140.75737316 125.49080432 140.75737316 124.8125 144.5 C125.8025 145.985 125.8025 145.985 126.8125 147.5 C131.38998509 144.6204024 131.38998509 144.6204024 134.8125 140.5 C134.5003236 137.85367713 134.5003236 137.85367713 133.8125 135.5 C130.61590677 135.17460431 130.61590677 135.17460431 128.1875 137.75 Z M183.8125 208.5 C181.9770201 209.83378575 181.9770201 209.83378575 180.8125 211.5 C184.04041555 213.6519437 185.09650809 213.70086443 188.8125 213.5 C188.8125 212.18 188.8125 210.86 188.8125 209.5 C186.46716049 208.73043864 186.46716049 208.73043864 183.8125 208.5 Z M119.8125 325.5 C119.07166369 327.54922176 119.07166369 327.54922176 118.8125 329.5 C125.11202361 331.14776272 129.70977987 332.09690218 135.8125 329.5 C136.1425 328.84 136.4725 328.18 136.8125 327.5 C134.66629773 324.94106653 133.19751956 323.62833985 130 322.5625 C125.88603146 322.48183395 123.37253569 323.47566598 119.8125 325.5 Z " fill="#000000" transform="translate(290.1875,5.5)"/>
<path d="M0 0 C8.27271161 6.2345073 13.64660583 13.05933058 19.07299805 21.79223633 C32.21135647 42.90770854 52.26308299 50.66197252 75.02709961 58.12231445 C100.04105902 66.35070645 100.04105902 66.35070645 104 73 C104.19616903 76.32553206 103.65264658 78.21183354 101.51855469 80.7890625 C99.53232627 82.77217933 97.4795467 84.64304703 95.375 86.5 C94.67503906 87.13808594 93.97507813 87.77617187 93.25390625 88.43359375 C90.58812907 90.85208177 87.91936241 93.25262879 85.12597656 95.5234375 C77.86442064 101.43818861 73.51767393 108.58458059 69.25 116.8125 C63.24589681 127.94280698 55.82092214 135.8583163 45.83984375 143.68359375 C43.32823365 145.73226608 40.99468756 147.88379042 38.66821289 150.13793945 C21.82292849 166.34440846 0.00274795 171.71584963 -22.02789307 177.43960571 C-29.0773774 179.27392021 -36.10727603 181.17213502 -43.125 183.125 C-44.24285889 183.42519043 -45.36071777 183.72538086 -46.51245117 184.03466797 C-61.76845138 188.31548349 -75.01327845 195.53813268 -83.625 209.25 C-87.637672 216.74425506 -89.57416234 224.29047063 -87.27734375 232.62109375 C-85.14314326 238.43614206 -82.74512614 243.12743693 -77 246 C-69.55153767 246.42971898 -62.98962023 245.07866306 -55.75 243.4375 C-43.5345343 240.8584326 -33.44169606 239.18593265 -22.0859375 245.6171875 C-16.34465683 249.42320502 -12.29410804 254.45793454 -10.40234375 261.09765625 C-9.91727694 264.97135882 -10.45678599 267.20918147 -12.6796875 270.4453125 C-28.06278542 286.96789916 -51.66807964 296.69778487 -73.92407227 297.92553711 C-84.32651985 298.28449918 -95.40654195 297.43037871 -104 291 C-108.78625002 286.35498879 -111.55434261 281.39904484 -114 275.25 C-114.33539795 274.42870605 -114.6707959 273.60741211 -115.01635742 272.76123047 C-121.00582368 257.79112574 -127.01864121 241.1924201 -128 225 C-128.06445312 223.99839844 -128.12890625 222.99679687 -128.1953125 221.96484375 C-128.73810273 205.91634582 -124.37950399 190.0066875 -113.6875 177.75 C-112.14420721 176.14793944 -110.58221525 174.56363218 -109 173 C-108.00226563 171.96939453 -108.00226563 171.96939453 -106.984375 170.91796875 C-89.78125438 154.27296464 -62.56519165 145.99316492 -41 137 C-44.47355579 134.68429614 -47.99852766 133.61709404 -51.9375 132.375 C-59.89727167 129.8073581 -67.63881804 126.83745999 -75.36108398 123.62841797 C-82.58767452 120.65280613 -89.49118026 118.32024363 -97.1875 121.1875 C-100.20001212 123.1288967 -101.84022272 125.17425285 -104 128 C-103.14277344 127.96519531 -102.28554687 127.93039063 -101.40234375 127.89453125 C-93.30361128 127.70279125 -87.85447042 127.63969246 -81.5625 133.125 C-79.38427091 137.13294153 -79.07536157 140.53651811 -80 145 C-86.22478927 152.72732461 -100.69888983 156.14376986 -110 158 C-123.52646931 159.24222677 -123.52646931 159.24222677 -129 155 C-131.83789329 151.3733267 -131.34381385 146.84095291 -131.3125 142.4375 C-131.30758545 141.6319165 -131.3026709 140.82633301 -131.29760742 139.99633789 C-131.08888729 129.32592271 -128.53569545 119.11712517 -121.21484375 111.02734375 C-111.69694545 102.11495786 -101.18439098 100.48745077 -88.57421875 100.73828125 C-75.52438471 101.29689808 -64.00301786 106.51141044 -52.09350586 111.41308594 C-44.45400206 114.52182701 -37.23973732 117.03661943 -29 118 C-28.17628906 118.09925781 -27.35257812 118.19851562 -26.50390625 118.30078125 C-15.11943638 118.95506113 -1.00222614 114.83514784 8.34765625 108.37890625 C11.84036556 105.24627007 14.48042184 101.70833498 17.25 97.9375 C17.79140625 97.21755859 18.3328125 96.49761719 18.890625 95.75585938 C21.95445641 91.65878926 21.95445641 91.65878926 24 87 C21.89511995 88.93672986 19.79107304 90.87435141 17.6875 92.8125 C17.09259766 93.35970703 16.49769531 93.90691406 15.88476562 94.47070312 C15.30791016 95.00244141 14.73105469 95.53417969 14.13671875 96.08203125 C13.60780029 96.56905518 13.07888184 97.0560791 12.53393555 97.55786133 C10.96038492 99.00162852 10.96038492 99.00162852 9.45922852 100.67993164 C8 102 8 102 5.515625 102.0390625 C0.93227983 100.14594167 -0.19098881 95.63936473 -2.03515625 91.32421875 C-5.21536396 83.14070224 -7.47694242 74.60270343 -9.80371094 66.14404297 C-13.59392787 52.1640305 -13.59392787 52.1640305 -20.4375 39.5 C-20.99308594 38.6853125 -21.54867187 37.870625 -22.12109375 37.03125 C-24.29619765 34.67978633 -25.91662195 33.8173399 -29 33 C-32.60145702 34.30265467 -35.26188759 36.15132857 -38.125 38.625 C-42.21052632 42 -42.21052632 42 -45 42 C-48.27363833 40.36318083 -51.11576306 38.2432954 -54 36 C-50.32661 42.92292731 -46.07591495 48.32698822 -40.0625 53.375 C-33.10876925 59.33154182 -25.81775614 67.45504242 -24.79296875 76.91015625 C-24.25005415 85.33308855 -24.39499989 93.23538437 -28 101 C-35.0993485 104.54967425 -44.57605987 101.72234665 -51.7121582 99.4050293 C-65.58291031 94.52406228 -83.91548452 86.10665525 -91.23046875 72.75390625 C-96.72569293 60.17096435 -95.77869829 48.21477382 -91.0390625 35.40234375 C-82.02661788 15.74754432 -64.45745636 -0.02405415 -44.7265625 -8.0546875 C-29.39240899 -13.37111322 -13.0737969 -8.8522437 0 0 Z M-50 64 C-49.72217314 67.98218499 -49.20726652 69.74909842 -46.625 72.875 C-44.17426323 75.31459911 -44.17426323 75.31459911 -41 75 C-40.20643199 73.25328412 -40.20643199 73.25328412 -40 71 C-41.3992219 68.20155619 -42.78791383 66.21208617 -45 64 C-47.58354218 63.83312552 -47.58354218 63.83312552 -50 64 Z M-105 138 C-104.67 138.99 -104.34 139.98 -104 141 C-100.535 140.505 -100.535 140.505 -97 140 C-97 139.01 -97 138.02 -97 137 C-101.17810069 135.81068813 -101.17810069 135.81068813 -105 138 Z M-52 254 C-51.67 254.99 -51.34 255.98 -51 257 C-45.65472366 258.84319874 -41.59229217 259.45399596 -36 258 C-35.34 257.01 -34.68 256.02 -34 255 C-40.23231156 249.14540429 -45.28794537 248.59761457 -52 254 Z " fill="#000000" transform="translate(137,78)"/>
<path d="M0 0 C1.04320473 3.12961419 1.1547095 5.42130405 1.2109375 8.70703125 C1.84498467 36.58732983 6.52621235 56.36605434 27.25 76.1875 C36.92035645 84.68772987 48.3501676 90.66896697 60 96 C60.70382813 96.35964844 61.40765625 96.71929687 62.1328125 97.08984375 C67.36389105 99.18453971 72.11080104 96.94140059 77.01708984 94.85717773 C99.36073291 84.71423117 119.83471601 68.31668298 128.8125 44.75 C132.86901797 30.7637233 132.5334557 15.42873585 133 1 C137.06888639 1.45838637 139.38960137 1.77320497 142.0625 4.9375 C157.15601976 21.09021413 176.43909866 29.73822115 197.8125 33.9375 C214.47239455 37.37987842 229.50373737 40.54613015 240 55 C242.48340144 58.9950371 242.30530736 62.87582227 241.734375 67.4296875 C240.08413769 73.20551807 235.83915326 76.85972498 230.875 79.9375 C221.84005777 83.27650039 213.37657979 82.77870797 204.484375 79.19921875 C199.92660022 76.9991608 197.05651715 74.51434125 194.125 70.3125 C192.59917957 65.81980651 192.74927978 61.69868259 193 57 C197.04492746 55.81611879 198.63477914 55.82391137 202.5 57.6875 C204.72513902 59.08366566 206.7315599 60.56899103 208.8125 62.1875 C213.08448361 64.61666715 217.1199042 65.04199738 222 65 C223.485 64.505 223.485 64.505 225 64 C225.9593157 61.80485127 225.9593157 61.80485127 226 59 C223.01526896 53.95683376 219.53393458 51.70680272 214.05859375 49.74609375 C203.47311202 47.1639392 191.81539778 47.84790847 181 48 C181.31453125 48.85980469 181.6290625 49.71960938 181.953125 50.60546875 C187.92395752 69.966116 175.21969809 89.60802242 166.92211914 106.51049805 C163.72024229 113.20744793 162.01412157 119.61681586 161 127 C160.87238281 127.80824219 160.74476563 128.61648438 160.61328125 129.44921875 C159.51072633 137.88304793 159.91679068 146.51264983 160 155 C146.82263724 152.93386298 136.82977118 139.84441954 129.25 129.6875 C122.75688462 120.72958567 116.98269908 111.0149949 115 100 C110.37731305 100.61221766 106.6369552 102.55025857 102.5625 104.6875 C71.50805593 120.59868616 71.50805593 120.59868616 55.18310547 115.40673828 C45.97609925 112.18920088 37.22580949 107.92154601 28.49072266 103.6081543 C27.54632324 103.1419165 26.60192383 102.67567871 25.62890625 102.1953125 C24.78400635 101.77266113 23.93910645 101.35000977 23.06860352 100.91455078 C21.07209134 99.86521501 21.07209134 99.86521501 19 100 C18.78085938 100.73863281 18.56171875 101.47726562 18.3359375 102.23828125 C10.67024752 126.7622569 -7.72552442 145.52963336 -27.9140625 160.66796875 C-34.26925361 165.03253142 -34.26925361 165.03253142 -38.125 171.375 C-37.9631049 176.06995804 -36.59949448 178.14014456 -34 182 C-41.9808929 181.70978571 -47.33990698 178.87860604 -52.83203125 173.05859375 C-57.9213404 166.33476195 -59.32701874 158.59122286 -58.83984375 150.26171875 C-57.2184641 140.1399021 -51.26238011 132.9337688 -45.03198242 125.17089844 C-37.6804302 116.06237335 -37.6804302 116.06237335 -35 105 C-36.08339372 98.53699607 -38.96163014 92.94398879 -41.9375 87.1875 C-48.53277225 74.37915927 -52.29881483 63.13450316 -48 49 C-51.928468 48.89975447 -55.85642234 48.82789756 -59.78588867 48.78027344 C-61.76572908 48.75069866 -63.74521501 48.69982467 -65.72460938 48.6484375 C-74.82923897 48.55623872 -83.66305144 49.06648851 -90.6875 55.4375 C-92.11776592 58.22992395 -92.35349011 59.90696157 -92 63 C-88.45995816 65.00260719 -85.79873797 65.34670866 -81.70703125 64.82421875 C-76.96783903 63.38126123 -73.06359558 60.49660131 -69.015625 57.71484375 C-65.92526585 55.95750221 -64.47244476 55.42328278 -61 56 C-59 58 -59 58 -58.625 61.625 C-58.79105381 66.44930026 -60.04983218 70.16160961 -63 74 C-69.81272548 80.15870384 -77.77312027 82.52743139 -86.890625 82.25390625 C-93.22762906 81.49111872 -99.59063179 79.79843011 -104 75 C-107.20110316 70.35153337 -108.73796981 65.89826535 -108.4453125 60.23046875 C-107.04700476 53.22666417 -101.77140159 47.85125847 -96 44 C-86.27702953 38.49673454 -75.40114641 36.03062712 -64.5234375 33.921875 C-42.18433247 29.53587127 -26.97761849 21.38637102 -10.1953125 5.953125 C-3.504 0 -3.504 0 0 0 Z " fill="#000000" transform="translate(189,228)"/>
<path d="M0 0 C0.96808594 0.350625 1.93617188 0.70125 2.93359375 1.0625 C19.27952123 7.45005375 41.88364518 17.57931117 50.03515625 34.09765625 C51.18045738 37.65700528 50.9777717 40.08743131 50.0625 43.6875 C46.53225114 49.35729362 42.41051828 51.80825323 36.0625 53.75 C29.84114922 55.15683812 23.6611857 55.30581886 17.3125 55.5 C-16.47240674 56.54077342 -42.52225746 68.69415492 -67.93261719 90.68969727 C-86.39900348 106.59130768 -112.40631132 120.26335109 -137.47265625 119.26953125 C-154.53444149 117.4499591 -173.76057155 103.13663052 -185.25 90.8125 C-193.57072064 80.35714422 -193.97792879 67.80670574 -193 55 C-190.70060059 38.60613387 -182.99375568 26.063927 -170.16796875 15.71484375 C-166.82440782 13.330782 -163.90738877 11.30246292 -160 10 C-159.505 10.495 -159.505 10.495 -159 11 C-159.09281281 12.64967285 -159.25099306 14.29577838 -159.4375 15.9375 C-160.53399135 27.42102423 -160.31549112 36.2729109 -153.875 46.3125 C-143.59659153 55.92057749 -131.03168504 59.35616872 -117.23828125 59.21875 C-107.2323101 58.54283398 -100.59465889 56.05882743 -93.9375 48.625 C-92.62055455 47.08712906 -91.30879798 45.54481073 -90 44 C-75.50275401 26.99777335 -75.50275401 26.99777335 -69 20 C-67.75863281 18.64261719 -67.75863281 18.64261719 -66.4921875 17.2578125 C-48.04239262 -2.16019319 -25.68329257 -9.48690272 0 0 Z M-14 16 C-9.19071113 21.58498062 -3.6605202 23.98318883 3.375 25.9375 C6.0463593 26.27563711 6.0463593 26.27563711 7.875 24.5625 C8.24625 24.046875 8.6175 23.53125 9 23 C5.33030631 17.83949325 2.20417301 15.45048446 -4 14 C-8.01659713 13.61378874 -10.55040351 13.87717139 -14 16 Z " fill="#000000" transform="translate(285,361)"/>
<path d="M0 0 C0.99 0 1.98 0 3 0 C4.3671875 1.3984375 4.3671875 1.3984375 5.875 3.375 C12.17107274 10.87221031 20.52382602 16.28516156 28.50048828 21.85498047 C39.73604981 29.72986474 47.86457758 39.05607418 56 50 C56.7321875 50.97324219 57.464375 51.94648438 58.21875 52.94921875 C60.26336741 56.45107445 61.10641631 59.73860344 61.75 63.6875 C61.87141357 64.39084473 61.99282715 65.09418945 62.11791992 65.81884766 C64.44495539 80.1609846 62.93768743 93.26750958 54.3515625 105.3125 C45.18226551 116.45493685 31.77459861 123.06243088 19.27001953 129.77246094 C17.10344963 130.94405843 14.95484868 132.14324786 12.80859375 133.3515625 C-24.0553071 153.85481319 -65.12742975 160.0515115 -106.75 160.3125 C-107.66489197 160.32221832 -108.57978394 160.33193665 -109.5223999 160.34194946 C-147.13256918 160.68039631 -147.13256918 160.68039631 -157.7421875 152.6875 C-160.04376744 150.29883325 -160.96357373 148.41890212 -161.25 145.125 C-157.28923355 135.22308387 -147.49485192 129.72146285 -139 124 C-138.04601318 123.35297119 -138.04601318 123.35297119 -137.07275391 122.69287109 C-132.73955328 119.75761871 -128.37707996 116.86928131 -124 114 C-122.99710938 113.33742188 -121.99421875 112.67484375 -120.9609375 111.9921875 C-106.53066092 102.60234555 -92.26484853 97.01996814 -74.85400391 100.41894531 C-69.4629536 101.80100292 -64.27463398 103.7625654 -59.07470703 105.72753906 C-47.74005018 109.97695135 -37.42980575 112.46935526 -25.75 107.875 C-23.81421879 106.95588903 -21.89617533 105.998265 -20 105 C-19.13632812 104.55398438 -18.27265625 104.10796875 -17.3828125 103.6484375 C-5.72343307 97.14678978 4.37562046 87.69385559 9 75 C10.354571 62.09173521 7.66862546 51.58453815 2.4375 39.9375 C-2.87484663 28.0470441 -5.38206384 14.72974337 -0.953125 1.98828125 C-0.63859375 1.33214844 -0.3240625 0.67601562 0 0 Z M-114.625 123.8125 C-115.40875 124.864375 -116.1925 125.91625 -117 127 C-108.61478134 126.62143482 -98.06067766 125.6412962 -91.6171875 119.86328125 C-91.08351563 119.24839844 -90.54984375 118.63351562 -90 118 C-90.33 117.34 -90.66 116.68 -91 116 C-100.12023405 112.95992198 -108.5559442 116.75345637 -114.625 123.8125 Z " fill="#000000" transform="translate(358,346)"/>
<path d="M0 0 C1.69829159 0.98926887 3.36206536 2.03871397 5 3.125 C5.54688477 3.4844873 6.09376953 3.84397461 6.65722656 4.21435547 C26.21221975 17.20651779 26.21221975 17.20651779 29 25.125 C28.65779397 30.34771579 26.08534831 32.67777687 22.4375 36.13671875 C12.09723047 44.57132963 -1.61759146 50.03309201 -15 49.125 C-27.6096704 47.63399168 -41.4308625 41.96045388 -50.3125 32.71875 C-52 30.125 -52 30.125 -52.5625 27.7109375 C-51.741846 23.93820868 -49.51249361 21.55058413 -47 18.75 C-46.49380127 18.17491699 -45.98760254 17.59983398 -45.46606445 17.00732422 C-34.05881212 4.22411389 -17.88709819 -8.12518512 0 0 Z M-13 10.125 C-17.44748005 15.31372673 -19.44641959 19.37531841 -19.25390625 26.203125 C-18.64910518 30.78100384 -15.529335 34.34431182 -12 37.125 C-9.93557165 37.07789307 -9.93557165 37.07789307 -8 36.125 C-4.80766019 31.06566001 -4.60085294 25.19439461 -5.41796875 19.4296875 C-6.30652753 15.91123325 -7.6136778 13.86225193 -10 11.125 C-10.99 10.795 -11.98 10.465 -13 10.125 Z " fill="#000000" transform="translate(269,164.875)"/>
<path d="M0 0 C18.54175568 6.44021821 18.54175568 6.44021821 24 13.43359375 C27.34926958 24.94670793 27.52241855 36.9692614 28 48.87109375 C26.68 49.53109375 25.36 50.19109375 24 50.87109375 C21.73539646 46.6482176 20.25204239 42.64863666 19.0625 38.01171875 C18.72161188 36.71868203 18.38045842 35.42571524 18.0390625 34.1328125 C17.51502334 32.11708746 16.99474416 30.1005092 16.47949219 28.08251953 C15.97540276 26.11884914 15.45666247 24.15895799 14.9375 22.19921875 C14.63714844 21.03293945 14.33679688 19.86666016 14.02734375 18.66503906 C13.20542644 15.58229735 13.20542644 15.58229735 10 13.87109375 C8.01197413 13.39176795 8.01197413 13.39176795 5.83203125 13.16015625 C5.02056641 13.04929688 4.20910156 12.9384375 3.37304688 12.82421875 C1.6862082 12.60805636 -0.00129255 12.39699021 -1.68945312 12.19140625 C-7.41043293 11.39795279 -13.73568188 10.13541187 -18 5.87109375 C-18.04080783 3.87151011 -18.04254356 1.87064121 -18 -0.12890625 C-12.60420171 -2.82680539 -5.57285455 -1.7348189 0 0 Z " fill="#000000" transform="translate(224,230.12890625)"/>
<path d="M0 0 C1.44246094 -0.02126953 1.44246094 -0.02126953 2.9140625 -0.04296875 C5.375 0.1875 5.375 0.1875 7.375 2.1875 C7.28516906 5.6010758 6.70389261 6.87233612 4.22265625 9.25 C1.03132892 11.42132834 -1.34736845 12.09336372 -5.125 12.8125 C-6.3521875 13.04839844 -7.579375 13.28429687 -8.84375 13.52734375 C-10.71546875 13.85412109 -10.71546875 13.85412109 -12.625 14.1875 C-13.8109375 14.39503906 -14.996875 14.60257813 -16.21875 14.81640625 C-21.42202201 15.66969512 -26.34205863 16.28969976 -31.625 16.1875 C-31.625 14 -31.625 14 -30.625 11.1875 C-23.01550853 4.24063279 -10.1771966 0.06857949 0 0 Z " fill="#000000" transform="translate(298.625,228.8125)"/>
</svg>
